<svg id="Layer_1" enable-background="new 0 0 128 128" height="512" viewBox="0 0 128 128" width="512" xmlns="http://www.w3.org/2000/svg"><path d="m119.596 22.518c0-5.577-4.537-10.113-10.113-10.113h-86.965c-5.577 0-10.113 4.537-10.113 10.113v86.965c0 5.576 4.537 10.113 10.113 10.113h86.965c5.576 0 10.113-4.537 10.113-10.113z" fill="#e6e7e8"/><path d="m105.483 9.404h-86.965c-5.033 0-9.113 4.08-9.113 9.113v86.965c0 5.033 4.08 9.113 9.113 9.113h86.965c5.033 0 9.113-4.08 9.113-9.113v-86.965c0-5.033-4.08-9.113-9.113-9.113z" fill="#fff"/><path d="m105.483 12.404h-86.965c-5.033 0-9.113 4.08-9.113 9.113v83.965c0 5.033 4.08 9.113 9.113 9.113h86.965c5.033 0 9.113-4.08 9.113-9.113v-83.965c0-5.033-4.08-9.113-9.113-9.113z" fill="#0089ef"/><path d="m31.628 73.957c2.21 0 4.241.747 5.872 1.992v-43.97c0-3.243-2.629-5.872-5.872-5.872s-5.872 2.629-5.872 5.872v43.97c1.631-1.245 3.662-1.992 5.872-1.992z" fill="#6dc9f7"/><path d="m60.224 51.787c-2.21 0-4.241-.747-5.872-1.992v43.46c0 3.243 2.629 5.872 5.872 5.872s5.872-2.629 5.872-5.872v-43.46c-1.631 1.245-3.662 1.992-5.872 1.992z" fill="#6dc9f7"/><path d="m89.319 73.957c2.21 0 4.241.747 5.872 1.992v-43.97c0-3.243-2.629-5.872-5.872-5.872s-5.872 2.629-5.872 5.872v43.97c1.631-1.245 3.662-1.992 5.872-1.992z" fill="#6dc9f7"/><path d="m31.628 73.957c-5.358 0-9.702 4.344-9.702 9.702v8.851c0 5.358 4.344 9.702 9.702 9.702 5.358 0 9.702-4.344 9.702-9.702v-8.851c0-5.358-4.344-9.702-9.702-9.702z" fill="#fa759e"/><path d="m89.319 73.957c-5.358 0-9.702 4.344-9.702 9.702v8.851c0 5.358 4.344 9.702 9.702 9.702s9.702-4.344 9.702-9.702v-8.851c0-5.358-4.343-9.702-9.702-9.702z" fill="#fa759e"/><path d="m60.224 23.532c-5.358 0-9.702 4.344-9.702 9.702v8.851c0 5.358 4.344 9.702 9.702 9.702s9.702-4.344 9.702-9.702v-8.851c0-5.358-4.344-9.702-9.702-9.702z" fill="#fa759e"/><g fill="#3a2c60"><path d="m105.482 8.404h-86.964c-5.577 0-10.113 4.537-10.113 10.113v86.965c0 5.576 4.537 10.113 10.113 10.113h86.965c5.576 0 10.113-4.537 10.113-10.113v-24.333c0-.552-.447-1-1-1s-1 .448-1 1v24.334c0 4.474-3.64 8.113-8.113 8.113h-86.965c-4.474 0-8.113-3.639-8.113-8.113v-86.965c0-4.474 3.64-8.113 8.113-8.113h86.965c4.474 0 8.113 3.64 8.113 8.113v38.1c0 .552.447 1 1 1s1-.448 1-1v-38.1c0-5.577-4.537-10.114-10.114-10.114z"/><path d="m114.596 61.596c-.553 0-1 .448-1 1v12.553c0 .552.447 1 1 1s1-.448 1-1v-12.553c0-.553-.448-1-1-1z"/><path d="m31.628 25.106c-3.79 0-6.873 3.083-6.873 6.873v43.487c-2.338 1.965-3.83 4.907-3.83 8.193v8.851c0 5.901 4.801 10.702 10.702 10.702s10.703-4.801 10.703-10.702v-8.851c0-3.286-1.492-6.228-3.83-8.193v-43.487c0-3.79-3.083-6.873-6.872-6.873zm-4.873 49.03v-42.157c0-2.687 2.186-4.873 4.873-4.873s4.872 2.186 4.872 4.873v42.157c-.048-.025-.099-.041-.147-.065-.291-.144-.588-.275-.893-.393-.082-.031-.164-.061-.247-.091-.337-.12-.681-.224-1.033-.311-.024-.006-.047-.013-.071-.018-.798-.19-1.626-.302-2.481-.302-.856 0-1.684.112-2.482.302-.023.005-.046.012-.07.018-.352.086-.696.19-1.034.311-.083.029-.166.06-.248.091-.303.117-.598.247-.887.39-.049.026-.102.042-.152.068zm13.575 9.523v8.851c0 4.798-3.904 8.702-8.702 8.702s-8.702-3.903-8.702-8.702v-8.851c0-2.856 1.389-5.387 3.521-6.975.157-.117.316-.23.478-.336.045-.029.093-.056.139-.084.455-.283.931-.519 1.422-.711.153-.059.306-.119.463-.17.094-.031.19-.056.285-.084.165-.047.331-.091.5-.129.093-.021.186-.04.28-.058.182-.034.366-.062.552-.085.083-.01.166-.023.249-.031.268-.025.539-.041.814-.041s.545.016.814.041c.084.008.167.02.25.031.185.023.369.05.55.084.095.018.189.037.283.058.167.037.332.081.495.128.097.028.194.054.29.085.153.05.302.108.452.166.5.195.984.434 1.445.723.04.025.081.048.121.074.166.108.329.224.489.343 2.126 1.59 3.512 4.119 3.512 6.971z"/><path d="m60.224 100.128c3.789 0 6.872-3.083 6.872-6.873v-42.977c2.339-1.965 3.83-4.907 3.83-8.193v-8.851c0-5.901-4.801-10.702-10.702-10.702s-10.702 4.801-10.702 10.702v8.851c0 3.286 1.491 6.228 3.83 8.192v42.978c-.001 3.79 3.082 6.873 6.872 6.873zm4.872-48.519v41.646c0 2.687-2.186 4.873-4.872 4.873s-4.873-2.186-4.873-4.873v-41.647c.049.025.102.042.151.066.289.143.585.273.888.39.083.032.165.062.248.091.338.121.683.224 1.035.311.023.005.045.012.068.017.798.191 1.627.302 2.482.302s1.683-.112 2.481-.302c.024-.006.047-.013.071-.018.351-.086.694-.19 1.03-.31.085-.03.169-.061.252-.093.301-.116.594-.245.88-.387.053-.023.108-.04.159-.066zm-13.574-9.524v-8.851c0-4.798 3.904-8.702 8.702-8.702s8.702 3.904 8.702 8.702v8.851c0 2.851-1.385 5.379-3.51 6.967-.162.121-.326.238-.494.346-.038.024-.077.046-.115.07-.462.289-.946.529-1.446.724-.151.059-.302.117-.456.167-.095.031-.192.057-.288.085-.164.047-.329.091-.496.128-.094.021-.189.041-.284.059-.181.034-.364.061-.549.084-.084.01-.167.023-.251.031-.268.025-.539.041-.814.041s-.546-.016-.814-.041c-.084-.008-.167-.021-.251-.031-.185-.023-.368-.05-.549-.084-.095-.018-.189-.037-.283-.059-.168-.037-.333-.081-.497-.128-.096-.028-.192-.053-.287-.084-.156-.05-.307-.109-.459-.168-.496-.194-.976-.432-1.434-.718-.042-.026-.086-.051-.128-.078-.164-.107-.325-.221-.484-.339-2.128-1.587-3.515-4.117-3.515-6.972z"/><path d="m89.319 25.106c-3.789 0-6.872 3.083-6.872 6.873v43.487c-2.339 1.965-3.83 4.907-3.83 8.193v8.851c0 5.901 4.801 10.702 10.702 10.702s10.702-4.801 10.702-10.702v-8.851c0-3.286-1.492-6.228-3.83-8.193v-43.487c0-3.79-3.083-6.873-6.872-6.873zm-4.872 49.029v-42.156c0-2.687 2.186-4.873 4.872-4.873s4.872 2.186 4.872 4.873v42.156c-.056-.029-.116-.049-.173-.077-.265-.13-.535-.251-.812-.36-.126-.05-.254-.095-.382-.14-.238-.083-.48-.156-.725-.222-.142-.039-.284-.078-.428-.11-.255-.057-.514-.101-.775-.139-.13-.019-.257-.045-.388-.059-.391-.043-.787-.07-1.189-.07s-.798.027-1.189.07c-.131.014-.258.04-.388.059-.261.039-.521.082-.775.139-.144.032-.286.072-.428.11-.245.066-.487.139-.725.222-.128.045-.256.09-.382.14-.277.109-.547.23-.812.36-.057.029-.116.048-.173.077zm13.575 9.524v8.851c0 4.798-3.903 8.702-8.702 8.702s-8.702-3.903-8.702-8.702v-8.851c0-2.851 1.385-5.379 3.51-6.967.162-.121.326-.238.494-.346.037-.024.076-.046.114-.069.464-.29.95-.531 1.452-.727.149-.058.298-.116.451-.165.096-.031.193-.057.289-.085.164-.047.329-.09.496-.128.094-.021.188-.04.282-.058.182-.034.365-.062.551-.084.083-.01.166-.023.25-.031.268-.025.539-.041.814-.041s.546.016.814.041c.084.008.167.02.25.031.185.023.369.05.551.084.094.018.188.037.282.058.167.037.332.081.496.128.097.028.194.054.289.085.153.05.302.108.452.166.502.196.988.437 1.452.727.037.023.076.045.112.068.168.109.332.226.494.347 2.124 1.587 3.509 4.115 3.509 6.966z"/></g></svg>