<svg height="470pt" viewBox="-4 0 470 470.272" width="470pt" xmlns="http://www.w3.org/2000/svg"><path d="m350.007812 466.273438h-41.953124v-438.136719h41.953124c8.839844 0 16 7.160156 16 16v406.136719c0 8.832031-7.167968 16-16 16zm0 0" fill="#52b8d9"/><path d="m350 470.273438h-41.945312c-2.207032 0-4-1.792969-4-4v-438.136719c0-2.207031 1.792968-4 4-4h41.945312c11.03125 0 20 8.976562 20 20v406.136719c0 11.023437-8.96875 20-20 20zm-37.945312-8h37.945312c6.617188 0 12-5.386719 12-12v-406.136719c0-6.617188-5.382812-12-12-12h-37.945312zm0 0" fill="#63312d"/><path d="m324.054688 466.273438h-303.917969c-8.839844 0-16-7.160157-16-16v-406.136719c0-8.839844 7.160156-16 16-16h303.917969c8.839843 0 16 7.160156 16 16v406.136719c0 8.832031-7.167969 16-16 16zm0 0" fill="#82d9ff"/><path d="m28.136719 44.136719h311.917969c0-8.839844-7.160157-16-16-16h-303.917969c-8.839844 0-16 7.160156-16 16v406.136719c0 8.839843 7.160156 16 16 16v-414.136719c0-4.417969 3.582031-8 8-8zm0 0" fill="#caf4ff"/><path d="m324.054688 470.273438h-303.917969c-11.03125 0-20-8.976563-20-20v-406.136719c0-11.023438 8.96875-20 20-20h303.917969c11.035156 0 20 8.976562 20 20v406.136719c0 11.023437-8.964844 20-20 20zm-303.917969-438.136719c-6.617188 0-12 5.382812-12 12v406.136719c0 6.613281 5.382812 12 12 12h303.917969c6.617187 0 12-5.386719 12-12v-406.136719c0-6.617188-5.382813-12-12-12zm0 0" fill="#63312d"/><path d="m36.136719 60.136719h271.917969v374.136719h-271.917969zm0 0" fill="#f8f3f3"/><path d="m308.054688 438.273438h-271.917969c-2.207031 0-4-1.792969-4-4v-374.136719c0-2.207031 1.792969-4 4-4h271.917969c2.210937 0 4 1.792969 4 4v374.136719c0 2.207031-1.789063 4-4 4zm-267.917969-8h263.917969v-366.136719h-263.917969zm0 0" fill="#63312d"/><path d="m94.070312 4h165.664063v75.136719h-165.664063zm0 0" fill="#f9dd9d"/><path d="m110.070312 20h149.664063v-16h-165.664063v75.136719h16zm0 0" fill="#ffeecf"/><path d="m259.734375 83.136719h-165.664063c-2.207031 0-4-1.792969-4-4v-75.136719c0-2.207031 1.792969-4 4-4h165.664063c2.210937 0 4 1.792969 4 4v75.136719c0 2.207031-1.789063 4-4 4zm-161.664063-8h157.664063v-67.136719h-157.664063zm0 0" fill="#63312d"/><path d="m213.71875 335.878906 36.875-12.023437 200.070312-200.070313c10.65625-10.65625 10.65625-27.9375 0-38.59375s-27.9375-10.65625-38.59375 0l-200.070312 200.074219-12.023438 36.871094c-1.273437 3.902343-.25 8.183593 2.65625 11.085937 2.902344 2.898438 7.191407 3.929688 11.085938 2.65625zm0 0" fill="#f9dd9d"/><path d="m408.71875 165.726562 41.007812-41.007812c9.464844-9.460938 11.847657-24.613281 4.21875-35.613281-10.035156-14.449219-30.035156-15.761719-41.867187-3.921875l-41.949219 41.953125zm0 0" fill="#f9a287"/><path d="m230.207031 267.0625 15.457031-15.453125 38.589844 38.589844-15.457031 15.453125zm0 0" fill="#82d9ff"/><g fill="#63312d"><path d="m210.3125 340.425781c-3.871094 0-7.65625-1.523437-10.503906-4.371093-3.984375-3.992188-5.375-9.796876-3.625-15.160157l12.015625-36.863281c.191406-.597656.527343-1.144531.976562-1.589844l200.082031-200.074218c11.8125-11.824219 32.4375-11.824219 44.246094 0 5.902344 5.914062 9.167969 13.769531 9.167969 22.121093 0 8.359375-3.257813 16.214844-9.167969 22.128907l-200.078125 200.070312c-.449219.449219-.992187.785156-1.585937.976562l-36.871094 12.023438c-1.535156.488281-3.097656.738281-4.65625.738281zm5.199219-53.011719-11.71875 35.960938c-.816407 2.488281-.167969 5.175781 1.671875 7.015625s4.542968 2.480469 7.015625 1.679687l35.96875-11.726562 199.398437-199.390625c4.398438-4.402344 6.824219-10.25 6.824219-16.472656 0-6.214844-2.425781-12.066407-6.824219-16.464844-9.078125-9.078125-23.855468-9.078125-32.9375 0zm0 0"/><path d="m367.304688 129.988281 5.65625-5.65625 38.589843 38.589844-5.65625 5.65625zm0 0"/><path d="m243.335938 254.945312 5.660156-5.65625 37.332031 37.335938-5.65625 5.65625zm0 0"/><path d="m227.898438 270.398438 5.65625-5.65625 37.335937 37.335937-5.65625 5.65625zm0 0"/></g><path d="m353.222656 218.742188c-5-5-5-13.109376 0-18.117188l55.113282-55.113281c5-5 13.113281-5 18.121093 0 5 5 5 13.113281 0 18.121093l-55.113281 55.109376c-5.007812 5.011718-13.121094 5.011718-18.121094 0zm0 0" fill="#82d9ff"/><path d="m362.273438 226.496094c-4.304688 0-8.609376-1.640625-11.882813-4.921875-6.550781-6.550781-6.550781-17.222657 0-23.773438l55.113281-55.113281c6.335938-6.335938 17.425782-6.351562 23.777344 0 3.175781 3.175781 4.925781 7.402344 4.925781 11.886719 0 4.488281-1.75 8.714843-4.925781 11.890625l-55.113281 55.109375c-3.273438 3.28125-7.582031 4.921875-11.894531 4.921875zm-6.226563-10.574219c3.449219 3.445313 9.03125 3.4375 12.464844 0l55.113281-55.113281c1.664062-1.664063 2.582031-3.878906 2.582031-6.234375 0-2.351563-.917969-4.566407-2.582031-6.230469-3.335938-3.335938-9.144531-3.328125-12.464844 0l-55.113281 55.113281c-3.429687 3.4375-3.429687 9.023438 0 12.464844zm0 0" fill="#63312d"/><path d="m77.121094 149.207031h43v43h-43zm0 0" fill="#f9a287"/><path d="m120.121094 196.207031h-43c-2.210938 0-4-1.792969-4-4v-43c0-2.207031 1.789062-4 4-4h43c2.207031 0 4 1.792969 4 4v43c0 2.207031-1.792969 4-4 4zm-39-8h35v-35h-35zm0 0" fill="#63312d"/><path d="m98.617188 179.070312c-.007813 0-.015626 0-.023438 0-1.203125-.007812-2.335938-.550781-3.089844-1.484374l-19-23.507813 6.214844-5.03125 15.929688 19.707031 28.878906-34.824218 6.160156 5.109374-32 38.585938c-.75.917969-1.878906 1.445312-3.070312 1.445312zm0 0" fill="#63312d"/><path d="m153.617188 166.703125h115.503906v8h-115.503906zm0 0" fill="#63312d"/><path d="m77.121094 232.0625h43v43h-43zm0 0" fill="#f9a287"/><path d="m120.121094 279.0625h-43c-2.210938 0-4-1.789062-4-4v-43c0-2.207031 1.789062-4 4-4h43c2.207031 0 4 1.792969 4 4v43c0 2.210938-1.792969 4-4 4zm-39-8h35v-35h-35zm0 0" fill="#63312d"/><path d="m98.617188 261.929688c-.007813 0-.015626 0-.023438 0-1.203125-.007813-2.335938-.554688-3.089844-1.488282l-19-23.503906 6.214844-5.035156 15.929688 19.707031 28.878906-34.832031 6.160156 5.109375-32 38.585937c-.75.925782-1.878906 1.457032-3.070312 1.457032zm0 0" fill="#63312d"/><path d="m153.617188 249.558594h90.085937v8h-90.085937zm0 0" fill="#63312d"/><path d="m77.121094 314.910156h43v43h-43zm0 0" fill="#f9a287"/><path d="m120.121094 361.910156h-43c-2.210938 0-4-1.789062-4-4v-43c0-2.207031 1.789062-4 4-4h43c2.207031 0 4 1.792969 4 4v43c0 2.21875-1.792969 4-4 4zm-39-8h35v-35h-35zm0 0" fill="#63312d"/><path d="m98.617188 344.785156c-.007813 0-.015626 0-.023438 0-1.203125-.007812-2.335938-.554687-3.089844-1.488281l-19-23.503906 6.214844-5.03125 15.929688 19.703125 28.878906-34.824219 6.160156 5.113281-32 38.582032c-.75.910156-1.878906 1.449218-3.070312 1.449218zm0 0" fill="#63312d"/><path d="m153.617188 332.414062h56.503906v8h-56.503906zm0 0" fill="#63312d"/></svg>