<svg height="504pt" viewBox="0 0 504 504" width="504pt" xmlns="http://www.w3.org/2000/svg"><path d="m28 133.675781h472v236.648438h-472zm0 0" fill="#fcc24c"/><path d="m480 133.675781h20v236.648438h-20zm0 0" fill="#dea42e"/><path d="m28 133.675781h20v236.648438h-20zm0 0" fill="#fce06a"/><g fill="#690589"><path d="m500 374.324219h-472c-2.207031 0-4-1.789063-4-4v-236.648438c0-2.210937 1.792969-4 4-4h472c2.207031 0 4 1.789063 4 4v236.648438c0 2.210937-1.792969 4-4 4zm-468-8h464v-228.648438h-464zm0 0"/><path d="m44 187.640625c-2.207031 0-4-1.792969-4-4v-24c0-2.207031 1.792969-4 4-4s4 1.792969 4 4v24c0 2.207031-1.792969 4-4 4zm0 0"/><path d="m73.789062 313.632812c-1.289062 0-2.550781-.621093-3.324218-1.765624-1.234375-1.835938-.746094-4.320313 1.085937-5.554688l118.808594-80c1.03125-.691406 2.332031-.867188 3.511719-.46875l116.847656 39.335938 109.476562-80.167969c1.785157-1.304688 4.285157-.917969 5.589844.863281 1.304688 1.78125.917969 4.285156-.863281 5.589844l-111.152344 81.394531c-1.050781.769531-2.410156.980469-3.636719.566406l-116.941406-39.371093-117.171875 78.898437c-.6875.457031-1.464843.679687-2.230469.679687zm0 0"/></g><path d="m500 500h-496v-496h24v472h472zm0 0" fill="#f4efed"/><path d="m4 4h20v496h-20zm0 0" fill="#fff"/><path d="m480 476h20v24h-20zm0 0" fill="#d6d1cf"/><path d="m500 504h-496c-2.207031 0-4-1.792969-4-4v-496c0-2.207031 1.792969-4 4-4h24c2.207031 0 4 1.792969 4 4v468h468c2.207031 0 4 1.792969 4 4v24c0 2.207031-1.792969 4-4 4zm-492-8h488v-16h-468c-2.207031 0-4-1.792969-4-4v-468h-16zm0 0" fill="#690589"/><path d="m78.96875 287.644531c-12.15625-2.871093-24.335938 4.65625-27.203125 16.8125-2.871094 12.152344 4.65625 24.332031 16.808594 27.203125 12.15625 2.871094 24.335937-4.65625 27.207031-16.808594 2.867188-12.15625-4.65625-24.335937-16.8125-27.207031zm0 0" fill="#ff4397"/><path d="m73.785156 336.246094c-14.675781 0-26.613281-11.9375-26.613281-26.613282 0-14.671874 11.9375-26.613281 26.613281-26.613281 14.671875 0 26.613282 11.9375 26.613282 26.613281 0 14.675782-11.941407 26.613282-26.613282 26.613282zm0-45.226563c-10.265625 0-18.613281 8.351563-18.613281 18.613281 0 10.265626 8.347656 18.613282 18.613281 18.613282 10.261719 0 18.613282-8.347656 18.613282-18.613282 0-10.261718-8.351563-18.613281-18.613282-18.613281zm0 0" fill="#690589"/><path d="m197.789062 207.644531c-12.152343-2.867187-24.332031 4.660157-27.203124 16.8125-2.871094 12.15625 4.65625 24.335938 16.808593 27.207031 12.15625 2.867188 24.335938-4.660156 27.207031-16.8125 2.871094-12.15625-4.65625-24.335937-16.8125-27.207031zm0 0" fill="#7bac51"/><path d="m192.59375 256.246094c-14.671875 0-26.613281-11.9375-26.613281-26.613282 0-14.671874 11.941406-26.613281 26.613281-26.613281 14.675781 0 26.613281 11.9375 26.613281 26.613281 0 14.675782-11.9375 26.613282-26.613281 26.613282zm0-45.226563c-10.265625 0-18.613281 8.351563-18.613281 18.613281 0 10.265626 8.347656 18.613282 18.613281 18.613282s18.613281-8.347656 18.613281-18.613282c0-10.261718-8.347656-18.613281-18.613281-18.613281zm0 0" fill="#690589"/><path d="m327.394531 253.644531c-8.832031-8.832031-23.152343-8.832031-31.980469 0-8.832031 8.832031-8.832031 23.148438 0 31.980469 8.828126 8.832031 23.148438 8.832031 31.980469 0 8.828125-8.832031 8.828125-23.148438 0-31.980469zm0 0" fill="#fcc24c"/><path d="m311.40625 296.246094c-14.675781 0-26.613281-11.9375-26.613281-26.613282 0-14.671874 11.9375-26.613281 26.613281-26.613281 14.671875 0 26.613281 11.9375 26.613281 26.613281 0 14.675782-11.941406 26.613282-26.613281 26.613282zm0-45.226563c-10.265625 0-18.613281 8.351563-18.613281 18.613281 0 10.265626 8.347656 18.613282 18.613281 18.613282s18.613281-8.347656 18.613281-18.613282c0-10.261718-8.347656-18.613281-18.613281-18.613281zm0 0" fill="#690589"/><path d="m422.554688 110.792969c-42.769532 0-77.441407 34.671875-77.441407 77.441406 0 42.773437 34.671875 77.445313 77.441407 77.445313 42.769531 0 77.445312-34.671876 77.445312-77.445313 0-42.769531-34.671875-77.441406-77.445312-77.441406zm0 135.609375c-32.121094 0-58.164063-26.042969-58.164063-58.167969 0-32.121094 26.042969-58.164063 58.164063-58.164063 32.125 0 58.167968 26.042969 58.167968 58.164063 0 32.125-26.042968 58.167969-58.167968 58.167969zm0 0" fill="#fcc24c"/><path d="m431.882812 130.820312c-31.707031-5.148437-61.585937 16.386719-66.730468 48.097657-5.144532 31.710937 16.386718 61.585937 48.09375 66.734375 31.710937 5.144531 61.585937-16.390625 66.734375-48.097656 5.144531-31.710938-16.386719-61.589844-48.097657-66.734376zm0 0" fill="#f4efed"/><path d="m422.554688 110.792969c-1.503907 0-2.996094.054687-4.476563.140625 40.6875 2.320312 72.964844 36.035156 72.964844 77.300781 0 41.269531-32.28125 74.984375-72.964844 77.304687 1.484375.085938 2.972656.140626 4.476563.140626 42.769531 0 77.441406-34.671876 77.441406-77.445313 0-42.769531-34.667969-77.441406-77.441406-77.441406zm0 0" fill="#dea42e"/><path d="m422.554688 265.679688c1.503906 0 2.996093-.054688 4.480468-.136719-40.6875-2.324219-72.964844-36.039063-72.964844-77.304688s32.277344-74.984375 72.964844-77.304687c-1.484375-.082032-2.976562-.136719-4.480468-.136719-42.769532 0-77.441407 34.671875-77.441407 77.441406 0 42.773438 34.671875 77.441407 77.441407 77.441407zm0 0" fill="#fce06a"/><path d="m422.554688 298.839844c3.371093 0 6.511718.941406 9.210937 2.550781v-36.273437c-3.023437.355468-6.089844.5625-9.210937.5625-3.117188 0-6.183594-.207032-9.207032-.5625v36.273437c2.699219-1.609375 5.839844-2.550781 9.207032-2.550781zm0 0" fill="#f4efed"/><path d="m431.765625 305.390625c-.710937 0-1.417969-.1875-2.050781-.566406-4.359375-2.597657-9.957032-2.597657-14.316406 0-1.234376.742187-2.769532.753906-4.023438.046875-1.25-.710938-2.023438-2.042969-2.023438-3.480469v-36.273437c0-1.144532.488282-2.234376 1.34375-2.992188.851563-.757812 1.988282-1.125 3.125-.980469 5.992188.707031 11.480469.707031 17.472657 0 1.128906-.148437 2.273437.222657 3.125.980469.855469.757812 1.34375 1.847656 1.34375 2.992188v36.273437c0 1.441406-.773438 2.769531-2.027344 3.480469-.609375.347656-1.289063.519531-1.96875.519531zm-9.210937-10.550781c1.757812 0 3.507812.214844 5.210937.632812v-25.96875c-3.539063.234375-6.878906.234375-10.414063 0v25.96875c1.695313-.417968 3.445313-.632812 5.203126-.632812zm0 0" fill="#690589"/><path d="m422.554688 250.402344c-34.277344 0-62.164063-27.886719-62.164063-62.167969 0-34.277344 27.886719-62.164063 62.164063-62.164063 34.28125 0 62.167968 27.886719 62.167968 62.164063 0 34.28125-27.886718 62.167969-62.167968 62.167969zm0-116.332032c-29.863282 0-54.164063 24.300782-54.164063 54.167969 0 29.867188 24.300781 54.164063 54.164063 54.164063 29.871093 0 54.167968-24.296875 54.167968-54.164063 0-29.867187-24.296875-54.167969-54.167968-54.167969zm0 0" fill="#690589"/><path d="m422.554688 269.679688c-44.90625 0-81.441407-36.535157-81.441407-81.445313 0-44.90625 36.535157-81.441406 81.441407-81.441406 44.910156 0 81.445312 36.535156 81.445312 81.441406 0 44.910156-36.535156 81.445313-81.445312 81.445313zm0-154.886719c-40.496094 0-73.441407 32.945312-73.441407 73.441406 0 40.5 32.945313 73.445313 73.441407 73.445313 40.496093 0 73.445312-32.945313 73.445312-73.445313 0-40.496094-32.949219-73.441406-73.445312-73.441406zm0 0" fill="#690589"/><path d="m422.554688 397.316406c-9.945313 0-18.011719-8.066406-18.011719-18.015625v-62.445312c0-9.949219 8.066406-18.015625 18.011719-18.015625 9.953124 0 18.015624 8.066406 18.015624 18.015625v62.445312c0 9.953125-8.0625 18.015625-18.015624 18.015625zm0 0" fill="#ff4397"/><path d="m422.554688 298.839844c-1.664063 0-3.269532.246094-4.800782.667968 7.613282 2.105469 13.207032 9.0625 13.207032 17.347657v62.445312c0 8.285157-5.597657 15.242188-13.207032 17.347657 1.53125.421874 3.136719.667968 4.800782.667968 9.949218 0 18.015624-8.066406 18.015624-18.015625v-62.445312c0-9.949219-8.0625-18.015625-18.015624-18.015625zm0 0" fill="#e12579"/><path d="m422.554688 401.316406c-12.136719 0-22.011719-9.875-22.011719-22.011718v-62.449219c0-12.136719 9.875-22.011719 22.011719-22.011719 12.140624 0 22.015624 9.875 22.015624 22.011719v62.449219c0 12.136718-9.875 22.011718-22.015624 22.011718zm0-98.476562c-7.726563 0-14.011719 6.289062-14.011719 14.015625v62.445312c0 7.730469 6.285156 14.015625 14.011719 14.015625 7.726562 0 14.015624-6.289062 14.015624-14.015625v-62.445312c0-7.730469-6.285156-14.015625-14.015624-14.015625zm0 0" fill="#690589"/><path d="m428.890625 195.746094v6.644531c0 2.863281-2.148437 5.011719-5.007813 5.011719-2.660156 0-5.011718-2.148438-5.011718-5.011719v-10.628906c0-.105469.101562-.105469.101562-.207031-.101562-.101563-.101562-.101563-.101562-.203126 0-2.660156 2.351562-5.011718 5.011718-5.011718 6.4375 0 11.652344-5.113282 11.652344-11.449219 0-6.441406-5.214844-11.449219-11.652344-11.449219-4.191406 0-7.875 2.246094-9.816406 5.621094-1.429687 2.453125-4.496094 3.273438-6.953125 1.839844-2.351562-1.429688-3.167969-4.394532-1.734375-6.847656 3.679688-6.339844 10.628906-10.632813 18.503906-10.632813 11.859376 0 21.570313 9.609375 21.570313 21.46875 0 10.121094-7.054687 18.605469-16.5625 20.855469zm0 22.386718v1.839844c0 2.867188-2.148437 5.011719-5.007813 5.011719-2.660156 0-5.011718-2.144531-5.011718-5.011719v-1.839844c0-2.757812 2.351562-5.007812 5.011718-5.007812 2.859376 0 5.007813 2.25 5.007813 5.007812zm0 0" fill="#690589"/></svg>