<svg id="Layer_1" enable-background="new 0 0 256 256" height="512" viewBox="0 0 256 256" width="512" xmlns="http://www.w3.org/2000/svg"><path d="m227.71 16.55h-199.42c-6.479 0-11.731 5.252-11.731 11.73 0 6.479 5.252 11.731 11.731 11.731h199.42c6.478 0 11.73-5.252 11.73-11.731 0-6.478-5.252-11.73-11.73-11.73z" fill="#8ac6dd"/><path d="m227.709 15.05h-59.96c-.829 0-1.5.671-1.5 1.5s.671 1.5 1.5 1.5h59.96c5.641 0 10.23 4.589 10.23 10.23s-4.589 10.23-10.23 10.23h-199.419c-5.641 0-10.23-4.589-10.23-10.23s4.589-10.23 10.23-10.23h125.294c.829 0 1.5-.671 1.5-1.5s-.671-1.5-1.5-1.5h-125.294c-7.295 0-13.23 5.935-13.23 13.23s5.935 13.23 13.23 13.23h199.419c7.295 0 13.23-5.935 13.23-13.23s-5.934-13.23-13.23-13.23z" fill="#3a312a"/><path d="m122.13 180.78v52.78c0 3.24 2.63 5.87 5.87 5.87s5.87-2.63 5.87-5.87v-52.78z" fill="#87796f"/><path d="m133.87 179.28h-11.74c-.829 0-1.5.671-1.5 1.5v52.78c0 4.063 3.306 7.37 7.37 7.37s7.37-3.306 7.37-7.37v-52.78c0-.829-.671-1.5-1.5-1.5zm-1.5 54.28c0 2.409-1.96 4.37-4.37 4.37s-4.37-1.96-4.37-4.37v-51.28h8.74z" fill="#3a312a"/><path d="m99.27 180.78-8.547 17.985-6.71 14.118-8.633 18.167c-1.39 2.92-.15 6.42 2.78 7.81 2.92 1.39 6.42.15 7.81-2.78l26.28-55.3z" fill="#87796f"/><path d="m113.518 179.979c-.275-.435-.753-.699-1.268-.699h-12.98c-.579 0-1.106.333-1.355.856l-8.547 17.985c-.355.749-.037 1.643.711 1.999.748.354 1.643.037 1.999-.711l8.14-17.129h9.659l-25.261 53.157c-.5 1.054-1.38 1.849-2.478 2.24-1.098.39-2.282.329-3.334-.171-1.054-.5-1.849-1.38-2.239-2.478-.391-1.098-.33-2.281.171-3.333l8.633-18.167c.355-.749.037-1.643-.711-1.999-.749-.355-1.643-.037-1.999.711l-8.633 18.166c-.845 1.776-.947 3.774-.288 5.628.66 1.853 2.002 3.338 3.778 4.181 1.004.478 2.077.718 3.156.718.831 0 1.665-.143 2.471-.429 1.854-.66 3.339-2.002 4.183-3.779l26.28-55.3c.22-.466.187-1.011-.088-1.446z" fill="#3a312a"/><path d="m181.31 231.05-23.89-50.27h-12.98l26.28 55.3c1.39 2.93 4.89 4.17 7.81 2.78 2.93-1.39 4.17-4.89 2.78-7.81z" fill="#87796f"/><path d="m182.665 230.406-23.89-50.27c-.249-.523-.776-.856-1.355-.856h-12.98c-.515 0-.993.264-1.268.699s-.308.98-.087 1.445l26.28 55.299c.844 1.778 2.329 3.12 4.182 3.779.807.287 1.641.43 2.472.43 1.078 0 2.152-.24 3.154-.717 1.778-.843 3.121-2.329 3.78-4.183.659-1.853.557-3.851-.288-5.626zm-2.539 4.621c-.391 1.098-1.186 1.978-2.24 2.478-.001 0-.001 0-.002 0-1.052.5-2.234.561-3.333.171-1.098-.391-1.977-1.186-2.477-2.24l-25.262-53.156h9.659l23.483 49.415c.502 1.051.563 2.234.172 3.332z" fill="#3a312a"/><path d="m35.578 40.011v45.649 14.659 56.997h184.844v-117.305z" fill="#fce8cb"/><path d="m220.422 38.511h-184.844c-.829 0-1.5.671-1.5 1.5v117.306c0 .829.671 1.5 1.5 1.5h184.844c.829 0 1.5-.671 1.5-1.5v-117.306c0-.829-.672-1.5-1.5-1.5zm-1.5 117.305h-181.844v-114.305h181.844z" fill="#3a312a"/><path d="m227.71 157.316h-198.729c-6.479 0-11.731 5.251-11.731 11.73s5.252 11.73 11.731 11.73h151.711 15.115 31.902c6.478 0 11.73-5.252 11.73-11.73.001-6.478-5.251-11.73-11.729-11.73z" fill="#8ac6dd"/><path d="m227.709 155.816h-198.728c-7.296 0-13.231 5.935-13.231 13.23s5.935 13.23 13.231 13.23h151.711c.829 0 1.5-.671 1.5-1.5s-.671-1.5-1.5-1.5h-151.711c-5.641 0-10.231-4.589-10.231-10.23s4.589-10.23 10.231-10.23h198.728c5.641 0 10.23 4.589 10.23 10.23s-4.589 10.23-10.23 10.23h-31.902c-.829 0-1.5.671-1.5 1.5s.671 1.5 1.5 1.5h31.902c7.295 0 13.23-5.935 13.23-13.23s-5.934-13.23-13.23-13.23z" fill="#3a312a"/><path d="m203.92 41.51h15v114.31h-15z" fill="#decaad"/><path d="m190.144 75.028c-.56-.611-1.508-.653-2.119-.094l-31.283 28.641-28.757-15.797c-.597-.328-1.342-.212-1.811.283l-29.451 31.087-29.253-18.275c-.703-.439-1.628-.225-2.067.477-.439.703-.226 1.628.477 2.067l30.293 18.925c.246.153.521.228.794.228.401 0 .798-.161 1.089-.468l29.498-31.137 28.685 15.757c.564.31 1.261.226 1.735-.208l32.076-29.367c.612-.56.653-1.508.094-2.119z" fill="#3a312a"/><circle cx="97.348" cy="121.07" fill="#d7e057" r="8.551"/><path d="m97.348 111.019c-5.542 0-10.051 4.509-10.051 10.051s4.509 10.051 10.051 10.051 10.051-4.509 10.051-10.051-4.509-10.051-10.051-10.051zm0 17.102c-3.888 0-7.051-3.163-7.051-7.051s3.163-7.051 7.051-7.051 7.051 3.163 7.051 7.051-3.164 7.051-7.051 7.051z" fill="#3a312a"/><ellipse cx="127.385" cy="89.195" fill="#ef6d7a" rx="8.551" ry="8.551" transform="matrix(.987 -.16 .16 .987 -12.643 21.557)"/><path d="m127.385 79.145c-5.542 0-10.051 4.509-10.051 10.051s4.509 10.051 10.051 10.051 10.051-4.509 10.051-10.051-4.509-10.051-10.051-10.051zm0 17.101c-3.888 0-7.051-3.163-7.051-7.051s3.163-7.051 7.051-7.051 7.051 3.163 7.051 7.051-3.164 7.051-7.051 7.051z" fill="#3a312a"/><path d="m156.961 96.792c-4.723 0-8.551 3.828-8.551 8.551s3.828 8.551 8.551 8.551c4.722 0 8.551-3.828 8.551-8.551s-3.828-8.551-8.551-8.551z" fill="#d7e057"/><path d="m156.961 95.292c-5.542 0-10.051 4.509-10.051 10.051s4.509 10.051 10.051 10.051 10.051-4.509 10.051-10.051-4.509-10.051-10.051-10.051zm0 17.102c-3.888 0-7.051-3.163-7.051-7.051s3.163-7.051 7.051-7.051 7.051 3.163 7.051 7.051-3.163 7.051-7.051 7.051z" fill="#3a312a"/><circle cx="189.038" cy="76.041" fill="#ef6d7a" r="8.551"/><path d="m189.038 65.99c-5.542 0-10.051 4.509-10.051 10.051s4.509 10.051 10.051 10.051 10.051-4.509 10.051-10.051-4.509-10.051-10.051-10.051zm0 17.101c-3.888 0-7.051-3.163-7.051-7.051s3.163-7.051 7.051-7.051 7.051 3.163 7.051 7.051-3.164 7.051-7.051 7.051z" fill="#3a312a"/><ellipse cx="66.675" cy="102.222" fill="#ef6d7a" rx="8.551" ry="8.551" transform="matrix(.099 -.995 .995 .099 -41.619 158.5)"/><path d="m66.675 92.171c-5.542 0-10.051 4.509-10.051 10.051s4.509 10.051 10.051 10.051 10.051-4.509 10.051-10.051-4.509-10.051-10.051-10.051zm0 17.102c-3.888 0-7.051-3.163-7.051-7.051s3.163-7.051 7.051-7.051 7.051 3.163 7.051 7.051-3.163 7.051-7.051 7.051z" fill="#3a312a"/><path d="m227.71 18.05h-15c5.64 0 10.23 4.59 10.23 10.23s-4.59 10.23-10.23 10.23h15c5.64 0 10.23-4.59 10.23-10.23s-4.59-10.23-10.23-10.23z" fill="#6ca8bf"/><path d="m227.71 158.82h-15c5.64 0 10.23 4.59 10.23 10.23s-4.59 10.23-10.23 10.23h15c5.64 0 10.23-4.59 10.23-10.23s-4.59-10.23-10.23-10.23z" fill="#6ca8bf"/><path clip-rule="evenodd" d="m27.42 94.665c-.315-2.055-1.994-3.734-4.049-4.049-3.298-.505-6.097 2.294-5.592 5.592.315 2.055 1.994 3.735 4.049 4.049 3.298.505 6.097-2.295 5.592-5.592z" fill="#f7e3c7" fill-rule="evenodd"/><path d="m28.903 94.438c-.414-2.708-2.596-4.89-5.305-5.305-2.052-.313-4.058.34-5.51 1.792-1.452 1.453-2.105 3.46-1.792 5.509.414 2.709 2.596 4.891 5.305 5.305.337.051.673.077 1.006.077 1.689 0 3.29-.656 4.504-1.869 1.452-1.452 2.105-3.461 1.792-5.509zm-3.914 3.388c-.771.771-1.842 1.114-2.935.948-1.404-.215-2.578-1.39-2.793-2.793-.168-1.095.178-2.164.948-2.934.643-.643 1.494-.989 2.394-.989.179 0 .36.014.541.042 1.404.215 2.578 1.389 2.793 2.793.168 1.093-.178 2.163-.948 2.933z" fill="#3a312a"/><path clip-rule="evenodd" d="m70.013 94.665c-.315-2.055-1.994-3.734-4.049-4.049-3.298-.505-6.097 2.294-5.592 5.592.315 2.055 1.994 3.735 4.049 4.049 3.297.505 6.097-2.295 5.592-5.592z" fill="#f7e3c7" fill-rule="evenodd"/><path d="m71.496 94.438c-.414-2.708-2.596-4.89-5.305-5.305-2.048-.312-4.057.34-5.51 1.792-1.453 1.453-2.106 3.461-1.793 5.51.415 2.709 2.596 4.891 5.305 5.305.337.051.673.077 1.006.077 1.688 0 3.29-.656 4.503-1.869 1.454-1.453 2.107-3.461 1.794-5.51zm-3.915 3.389c-.769.769-1.838 1.115-2.934.947-1.404-.215-2.578-1.39-2.793-2.793-.168-1.095.178-2.165.948-2.935.643-.642 1.493-.989 2.393-.989.179 0 .36.014.542.042 1.404.215 2.579 1.39 2.793 2.793.168 1.095-.178 2.164-.949 2.935z" fill="#3a312a"/><path d="m66.535 81.586c0-5.752-2.374-10.973-6.237-14.824.234.671.358 1.349.358 2.02 0 2.271-1.564 4.345-4.139 5.917.535.889 1.201 1.703 1.983 2.419 3.917 3.58 6.505 8.583 6.957 14.187.058-.078.185-.119.284-.156.926-.339.794-8.823.794-9.563z" fill="#87796f"/><path d="m68.037 81.841-.001-.255c0-5.952-2.372-11.594-6.679-15.887-.496-.493-1.267-.581-1.858-.207-.592.373-.848 1.105-.616 1.765.182.518.273 1.031.273 1.524 0 1.644-1.215 3.29-3.42 4.636-.704.43-.929 1.347-.504 2.054.611 1.016 1.37 1.941 2.256 2.753 3.765 3.441 6.064 8.129 6.474 13.2.05.624.482 1.151 1.084 1.322.136.039.274.057.411.057.308 0 .608-.095.859-.271 1.113-.424 1.788-1.31 1.721-10.691zm-2.998 1.825c-1.28-2.875-3.149-5.481-5.526-7.654-.321-.294-.621-.608-.896-.939 1.571-1.219 2.65-2.632 3.174-4.146 2.111 3.164 3.244 6.84 3.244 10.66l.001.277c.006.648.006 1.247.003 1.802z" fill="#3a312a"/><path d="m58.5 77.113c-.782-.712-1.448-1.526-1.983-2.411-3.012 1.844-7.414 3.008-12.319 3.008-1.164 0-2.3-.066-3.398-.193-7.883-.897-15.441 3.806-17.939 11.339-.243.724-.411 1.419-.49 2.065-.012.091-.021.181-.029.271-.049.617-.078 1.242-.078 1.876 0 11.944 11.965 30.286 21.634 30.286 10.126 0 21.629-18.342 21.629-30.286 0-6.319-2.707-12.001-7.027-15.955z" fill="#f7e3c7"/><path d="m59.509 76.004c-.668-.608-1.243-1.307-1.709-2.078-.206-.342-.541-.587-.929-.682-.387-.094-.797-.031-1.138.178-2.894 1.771-7.099 2.787-11.536 2.787-1.091 0-2.177-.062-3.229-.184-8.62-.978-16.833 4.217-19.531 12.353-.281.838-.468 1.633-.552 2.333-.017.117-.028.234-.039.36-.056.696-.083 1.349-.083 1.997 0 12.551 12.408 31.786 23.134 31.786 10.946 0 23.129-18.946 23.129-31.786.001-6.471-2.738-12.691-7.517-17.064zm-15.611 45.851c-8.279 0-20.134-16.949-20.134-28.786 0-.566.024-1.141.073-1.747.005-.064.011-.128.023-.221.064-.528.206-1.123.424-1.773 2.072-6.25 8.043-10.421 14.593-10.421.579 0 1.164.033 1.749.1 1.163.135 2.365.203 3.571.203 4.386 0 8.618-.915 11.856-2.538.432.555.912 1.073 1.433 1.548 4.156 3.804 6.54 9.216 6.54 14.85.001 11.105-10.99 28.785-20.128 28.785z" fill="#3a312a"/><path d="m38.306 92.298c-.178-.739-.784-1.345-1.523-1.523-1.572-.379-2.953 1.002-2.573 2.574.178.739.784 1.344 1.523 1.522 1.572.379 2.952-1.001 2.573-2.573z" fill="#3a312a"/><path d="m53.582 92.298c-.178-.739-.784-1.344-1.523-1.523-1.572-.379-2.953 1.002-2.573 2.574.178.739.784 1.344 1.523 1.522 1.572.379 2.952-1.001 2.573-2.573z" fill="#3a312a"/><path d="m32.038 96.382c-2.009 0-3.637 1.217-3.637 2.719s1.629 2.719 3.637 2.719c2.009 0 3.637-1.218 3.637-2.719s-1.628-2.719-3.637-2.719z" fill="#f59689"/><path d="m55.753 96.382c-2.009 0-3.637 1.217-3.637 2.719s1.628 2.719 3.637 2.719 3.637-1.218 3.637-2.719-1.628-2.719-3.637-2.719z" fill="#f59689"/><g fill="#3a312a"><path d="m50.398 105.489c-.777-.292-1.641.103-1.931.879-.413 1.104-1.972 2.747-4.573 2.747-2.224 0-3.692-.911-4.623-2.866-.357-.747-1.25-1.064-1.999-.709-.748.356-1.066 1.251-.71 2 1.425 2.993 3.961 4.576 7.332 4.576 3.865 0 6.536-2.434 7.382-4.695.292-.777-.102-1.641-.878-1.932z"/><path d="m43.544 90.919c-.695-3.667-3.625-6.598-7.292-7.292-3.057-.579-6.177.371-8.348 2.542s-3.122 5.292-2.542 8.348c.695 3.667 3.626 6.598 7.293 7.293.59.112 1.183.167 1.771.167 2.455 0 4.825-.957 6.577-2.708 2.17-2.173 3.12-5.294 2.541-8.35zm-4.664 6.227c-1.491 1.491-3.555 2.116-5.668 1.716-2.466-.467-4.437-2.438-4.904-4.904-.4-2.111.225-4.177 1.716-5.667 1.196-1.196 2.761-1.834 4.422-1.834.411 0 .828.039 1.246.118 2.466.467 4.437 2.438 4.904 4.904.401 2.11-.225 4.176-1.716 5.667z"/><path d="m62.928 90.919c-.695-3.667-3.626-6.598-7.293-7.292-3.056-.58-6.176.371-8.348 2.542-2.171 2.171-3.122 5.292-2.542 8.348.695 3.667 3.625 6.598 7.292 7.292.59.112 1.183.167 1.771.167 2.456 0 4.826-.958 6.578-2.709 2.171-2.171 3.121-5.292 2.542-8.348zm-4.664 6.227c-1.49 1.491-3.554 2.116-5.668 1.716-2.466-.467-4.437-2.438-4.904-4.904-.4-2.111.226-4.178 1.716-5.668 1.195-1.195 2.76-1.834 4.422-1.834.411 0 .827.039 1.246.118 2.466.467 4.437 2.438 4.904 4.904.4 2.111-.225 4.177-1.716 5.668z"/><path d="m46.074 91.202h-3.859c-.829 0-1.5.671-1.5 1.5s.671 1.5 1.5 1.5h3.859c.829 0 1.5-.671 1.5-1.5s-.671-1.5-1.5-1.5z"/><path d="m27.047 89.483-4.481-.452c-.818-.084-1.56.517-1.643 1.342-.083.824.518 1.56 1.342 1.643l4.48.452c.051.005.102.008.152.008.761 0 1.413-.576 1.49-1.35.086-.825-.515-1.56-1.34-1.643z"/><path d="m66.87 90.323c-.098-.823-.848-1.414-1.667-1.312l-3.984.475c-.823.098-1.41.844-1.312 1.667.091.763.738 1.323 1.487 1.323.059 0 .119-.003.179-.011l3.984-.475c.824-.098 1.411-.844 1.313-1.667z"/></g><path d="m45.943 58.074c-7.317-.458-13.79 2.926-16.955 5.984-4.778 3.925-7.234 11.032-7.234 17.527 0 1.187.209 7.939.589 9.61.07-.815.295-1.716.632-2.664 2.608-7.347 10.09-11.892 17.837-11.011 1.093.125 2.226.19 3.387.19 9.089 0 16.457-3.996 16.457-8.926s-6.734-10.212-14.713-10.71z" fill="#87796f"/><path d="m46.037 56.577c-7.413-.468-14.391 2.854-18.047 6.36-4.773 3.952-7.736 11.09-7.736 18.647 0 .984.189 8.014.626 9.942.156.687.767 1.168 1.462 1.168.035 0 .07-.001.104-.003.738-.051 1.329-.632 1.391-1.37.055-.646.24-1.416.55-2.289 2.348-6.611 9.186-10.82 16.253-10.023 1.16.132 2.357.199 3.557.199 10.069 0 17.957-4.579 17.957-10.425 0-5.966-7.531-11.67-16.117-12.206zm-1.84 19.631c-1.087 0-2.17-.061-3.218-.18-7.071-.805-13.954 2.607-17.651 8.388-.049-1.283-.076-2.371-.076-2.832 0-6.605 2.625-13.03 6.687-16.368.031-.026.061-.053.09-.081 2.97-2.87 8.528-5.604 14.583-5.604.41 0 .823.013 1.236.039 7.493.468 13.305 5.336 13.305 9.212.001 4.026-6.848 7.426-14.956 7.426z" fill="#3a312a"/><path d="m146.713 99.254c-.475-.678-1.409-.843-2.089-.368l-42.941 30.085c-.678.476-.843 1.411-.368 2.089.292.417.757.639 1.23.639.297 0 .597-.088.859-.271l42.941-30.085c.679-.475.843-1.41.368-2.089z" fill="#3a312a"/><path d="m43.976 227.425-13.751.027.011 5.777c.007 3.442 2.803 6.227 6.245 6.22l1.277-.002c3.45-.007 6.235-2.803 6.229-6.245z" fill="#87796f"/><path d="m45.477 227.422c-.001-.398-.16-.779-.441-1.06-.281-.28-.662-.437-1.059-.437h-.003l-13.751.027c-.829.001-1.499.674-1.497 1.503l.011 5.777c.004 2.065.813 4.005 2.276 5.463 1.46 1.454 3.397 2.254 5.457 2.254h.016l1.278-.002c2.068-.004 4.011-.812 5.47-2.275s2.26-3.407 2.256-5.473zm-4.37 9.132c-.894.896-2.084 1.391-3.351 1.394l-1.278.002h-.01c-2.605 0-4.727-2.117-4.733-4.723l-.008-4.277 10.751-.021.008 4.277c.004 1.264-.486 2.453-1.379 3.348z" fill="#3a312a"/><path d="m57.72 227.398-13.743.027.011 5.777c.007 3.442 2.803 6.227 6.245 6.22l1.277-.002c3.442-.007 6.227-2.803 6.221-6.245z" fill="#87796f"/><path d="m59.22 227.396c-.001-.398-.16-.779-.441-1.06-.281-.28-.662-.438-1.059-.438h-.003l-13.743.027c-.829.001-1.498.674-1.497 1.503l.011 5.777c.004 2.065.813 4.006 2.276 5.463 1.46 1.454 3.397 2.254 5.457 2.254h.016l1.277-.003c2.065-.004 4.005-.812 5.463-2.276 1.458-1.463 2.258-3.407 2.254-5.472zm-4.369 9.132c-.892.896-2.08 1.39-3.344 1.393l-1.277.003h-.01c-2.605 0-4.727-2.117-4.732-4.724l-.008-4.277 10.743-.021.008 4.277c.002 1.263-.487 2.453-1.38 3.349z" fill="#3a312a"/><path d="m26.661 173.676h34.846v53.752h-34.846z" fill="#d6df58" transform="matrix(1 -.002 .002 1 -.395 .087)"/><path d="m62.953 173.639c-.001-.828-.673-1.497-1.5-1.497h-.003l-34.845.068c-.398.001-.779.16-1.06.441-.28.282-.438.664-.437 1.062l.106 53.752c.001.398.16.779.441 1.06.281.28.662.437 1.059.437h.003l34.845-.069c.829-.001 1.498-.674 1.497-1.503zm-34.742 52.321-.1-50.752 31.845-.063.1 50.752z" fill="#3a312a"/><path d="m45.365 173.674c-.001-.828-.673-1.497-1.5-1.497h-.003c-.829.001-1.499.674-1.497 1.503l.106 53.752c.001.828.673 1.497 1.5 1.497h.003c.829-.001 1.499-.674 1.497-1.503z" fill="#3a312a"/><path d="m61.36 126.06c-.767-.147-1.567-.228-2.383-.226l-8.17.016-.01-4.979c-2.256 1.563-4.579 2.482-6.846 2.487-2.234.004-4.594-.972-6.897-2.625l.01 5.144-8.162.016c-1.278.003-2.514.203-3.676.568-1.549.481-2.965 1.259-4.184 2.275-2.741 2.281-4.49 5.714-4.483 9.556l.07 35.442 44.824-.088z" fill="#fae6ca"/><path d="m62.859 126.057c-.001-.718-.512-1.335-1.218-1.47-.884-.169-1.782-.274-2.668-.253l-6.67.013-.007-3.479c-.001-.558-.311-1.068-.805-1.327-.494-.257-1.091-.221-1.549.097-2.122 1.469-4.139 2.216-5.995 2.22-1.807.042-3.878-.807-6.021-2.343-.458-.329-1.061-.372-1.56-.115-.5.258-.815.774-.813 1.337l.007 3.644-6.662.013c-1.399.002-2.786.217-4.118.636-1.729.537-3.31 1.396-4.698 2.555-3.201 2.664-5.031 6.568-5.023 10.712l.07 35.441c.001.398.16.779.441 1.06.281.28.662.437 1.059.437h.003l44.824-.088c.398-.001.779-.16 1.06-.441.28-.282.438-.664.437-1.062zm-44.732 46.174-.067-33.941c-.007-3.248 1.43-6.31 3.943-8.401 1.084-.904 2.318-1.575 3.672-1.996 1.047-.33 2.134-.498 3.229-.5l8.162-.016c.398-.001.779-.16 1.06-.441.281-.282.438-.664.437-1.062l-.005-2.453c1.85.954 3.65 1.436 5.377 1.436h.018c1.735-.003 3.526-.459 5.349-1.359l.004 2.354c.001.398.16.779.441 1.06.281.28.662.437 1.059.437h.003l8.17-.016c.293-.003.587.011.882.035l.089 44.78z" fill="#3a312a"/><path d="m43.96 133.827h.026v.032h-.026z" fill="#87796f" transform="matrix(.557 -.831 .831 .557 -91.696 95.875)"/><path d="m45.019 132.749c-.318-.311-.764-.454-1.207-.409-.442.044-.851.294-1.1.662-.225.331-.296.746-.22 1.139.077.393.32.747.653.969.254.169.543.252.832.252.387 0 .771-.149 1.061-.439l.017-.017c.283-.283.429-.68.427-1.08-.003-.401-.177-.797-.463-1.077z" fill="#3a312a"/><path d="m43.96 133.827h.026v.032h-.026z" fill="#d6df58" transform="matrix(.557 -.831 .831 .557 -91.696 95.875)"/><path d="m45.019 132.749c-.318-.311-.764-.454-1.207-.409-.442.044-.851.294-1.1.662-.225.331-.296.746-.22 1.139.077.393.32.747.653.969.254.169.543.252.832.252.387 0 .771-.149 1.061-.439l.017-.017c.283-.283.429-.68.427-1.08-.003-.401-.177-.797-.463-1.077z" fill="#3a312a"/><path d="m43.96 133.827h.026v.032h-.026z" fill="#d6df58" transform="matrix(.557 -.831 .831 .557 -91.696 95.875)"/><path d="m45.044 132.773-.025-.024c-.318-.311-.764-.454-1.207-.409-.442.044-.851.294-1.1.662-.225.331-.296.746-.22 1.139.077.393.32.747.653.969.249.166.534.246.82.246.398 0 .795-.155 1.089-.45.283-.283.441-.667.44-1.068-.002-.401-.164-.784-.45-1.065z" fill="#3a312a"/><path d="m26.608 173.71-9.976.02.01 4.988c.005 2.755 2.243 4.984 4.998 4.979 2.755-.006 4.984-2.243 4.978-4.998z" fill="#fae6ca"/><path d="m28.108 173.707c-.001-.398-.16-.779-.441-1.06-.281-.28-.662-.437-1.059-.437h-.003l-9.977.02c-.398.001-.779.16-1.06.441-.281.282-.438.664-.437 1.062l.01 4.988c.003 1.733.682 3.361 1.909 4.584 1.225 1.22 2.851 1.892 4.579 1.892h.013c3.577-.007 6.482-2.923 6.475-6.501zm-6.471 8.489c-.954.032-1.808-.359-2.469-1.017-.66-.657-1.024-1.533-1.026-2.464l-.007-3.488 6.977-.014.007 3.488c.003 1.924-1.559 3.491-3.482 3.495z" fill="#3a312a"/><path d="m97.958 135.766-.019-9.901-41.13-.018.025.016-8.469 11.286-4.384-3.289-4.388 3.306-8.514-11.253.025-.017-2.201.004c-1.278.002-2.514.203-3.676.56-1.549.489-2.965 1.267-4.184 2.275-2.741 2.281-4.49 5.714-4.483 9.556l.07 35.442 44.824-.088-.075-37.808z" fill="#87796f"/><path d="m99.438 125.861c-.001-.827-.672-1.497-1.499-1.497l-41.13-.018c-.558 0-1.051.314-1.307.792l-7.437 9.911-3.184-2.389c-.535-.401-1.27-.401-1.803.002l-3.192 2.405-7.429-9.819c-.247-.514-.77-.851-1.353-.851-.001 0-.002 0-.003 0l-2.201.004c-1.387.002-2.771.213-4.124.629-1.724.544-3.301 1.402-4.691 2.552-3.201 2.664-5.031 6.568-5.023 10.712l.07 35.441c.001.398.16.779.441 1.06.281.28.662.437 1.059.437h.003l44.824-.088c.398-.001.779-.16 1.06-.441.28-.282.438-.664.437-1.062l-.072-36.308 35.079-.069c.829-.001 1.499-.674 1.497-1.503zm-38.062 8.477c-.398.001-.779.16-1.06.441-.281.282-.438.664-.437 1.062l.072 36.308-41.824.083-.067-33.942c-.007-3.248 1.43-6.31 3.938-8.397 1.087-.899 2.326-1.573 3.668-1.997 1.059-.326 2.148-.492 3.238-.494l1.416-.003 8.075 10.673c.5.661 1.438.792 2.099.293l3.487-2.627 3.482 2.612c.661.498 1.603.363 2.1-.299l8.031-10.703 38.847.017.014 6.905z" fill="#3a312a"/><path d="m102.828 125.863-4.889.001.019 9.901 4.889-.01c2.729-.005 4.942-2.227 4.937-4.956-.006-2.728-2.228-4.942-4.956-4.936z" fill="#fae6ca"/><path d="m107.385 126.243c-1.217-1.213-2.832-1.88-4.545-1.88h-.013l-4.889.001c-.398 0-.78.159-1.062.44-.281.282-.439.664-.438 1.063l.02 9.901c.001.398.16.779.441 1.06.281.28.662.437 1.059.437h.003l4.889-.01c1.72-.003 3.337-.678 4.553-1.898 1.216-1.221 1.884-2.84 1.88-4.561-.003-1.72-.677-3.337-1.898-4.553zm-2.107 6.997c-.65.653-1.515 1.014-2.434 1.016l-3.389.007-.014-6.899 3.389-.001h.007c.917 0 1.78.357 2.431 1.006.653.65 1.014 1.515 1.016 2.434s-.356 1.784-1.006 2.437z" fill="#3a312a"/><path d="m28.042 140.618c-.001-.828-.673-1.497-1.5-1.497h-.002c-.829.001-1.499.674-1.497 1.503l.065 33.09c.001.828.673 1.497 1.5 1.497h.003c.829-.001 1.499-.674 1.497-1.503z" fill="#3a312a"/><path d="m46.492 142.643-5.086.01-3.112 20.441 5.708 6.462 5.674-6.484z" fill="#8ac5dc"/><path d="m51.158 162.841-3.185-20.429c-.114-.73-.743-1.269-1.482-1.269h-.003l-5.085.01c-.74.001-1.369.542-1.48 1.274l-3.112 20.441c-.067.439.065.886.359 1.219l5.708 6.462c.285.322.694.507 1.124.507h.003c.432-.001.841-.188 1.126-.512l5.674-6.485c.292-.333.422-.78.353-1.218zm-7.161 4.444-4.114-4.658 2.813-18.476 2.513-.005 2.878 18.465z" fill="#3a312a"/><path d="m39.674 133.85 1.736 8.803 5.075-.01 1.742-8.81z" fill="#8ac5dc"/><path d="m49.386 132.879c-.285-.346-.71-.546-1.158-.546h-.003l-8.554.017c-.448.001-.873.202-1.157.549-.284.346-.399.802-.312 1.241l1.736 8.803c.139.703.755 1.21 1.472 1.21h.003l5.075-.01c.715-.001 1.33-.507 1.469-1.209l1.743-8.811c.086-.44-.029-.896-.314-1.244zm-4.134 8.267-2.609.005-1.145-5.804 4.903-.01z" fill="#3a312a"/><path d="m34.776 122.821h5.513v14.113h-5.513z" fill="#d6df58" transform="matrix(.797 -.603 .603 .797 -70.767 48.957)"/><path d="m45.185 132.936-8.516-11.254c-.24-.317-.597-.526-.991-.581-.392-.053-.793.05-1.111.29l-4.396 3.327c-.661.5-.79 1.441-.291 2.102l8.516 11.254c.24.317.597.526.991.581.068.009.137.014.206.014.325 0 .643-.105.905-.304l4.396-3.327c.661-.5.791-1.441.291-2.102zm-5.301 2.131-6.706-8.862 2.004-1.517 6.706 8.862z" fill="#3a312a"/><path d="m43.338 127.096h14.113v5.513h-14.113z" fill="#d6df58" transform="matrix(.6 -.8 .8 .6 -83.711 92.209)"/><path d="m58.32 125.652c-.056-.394-.266-.75-.585-.988l-4.41-3.31c-.663-.497-1.602-.363-2.1.299l-8.472 11.288c-.239.318-.341.718-.285 1.112s.266.75.584.988l4.41 3.31c.27.203.586.3.899.3.456 0 .906-.207 1.201-.6l8.472-11.288c.24-.318.342-.718.286-1.111zm-10.256 9.399-2.01-1.509 6.671-8.888 2.01 1.509z" fill="#3a312a"/></svg>