<svg id="Layer_1" enable-background="new 0 0 256 256" height="512" viewBox="0 0 256 256" width="512" xmlns="http://www.w3.org/2000/svg"><path d="m27.724 28h159.793v36.477h-159.793z" fill="#f16c7a"/><path d="m187.517 26.5h-118.531c-.829 0-1.5.671-1.5 1.5s.671 1.5 1.5 1.5h117.031v33.477h-156.793v-33.477h26.988c.829 0 1.5-.671 1.5-1.5s-.671-1.5-1.5-1.5h-28.488c-.829 0-1.5.671-1.5 1.5v36.477c0 .829.671 1.5 1.5 1.5h159.792c.829 0 1.5-.671 1.5-1.5v-36.477c.001-.829-.671-1.5-1.499-1.5z" fill="#3a312a"/><path d="m27.724 78.637h130.805v36.477h-130.805z" fill="#d7e057"/><path d="m158.529 77.137h-130.805c-.829 0-1.5.671-1.5 1.5v36.477c0 .829.671 1.5 1.5 1.5h130.805c.829 0 1.5-.671 1.5-1.5v-36.477c0-.829-.672-1.5-1.5-1.5zm-1.5 36.476h-127.805v-33.476h127.805z" fill="#3a312a"/><path d="m163.074 129.273h-12.783-122.567v36.477h180v-36.477z" fill="#8ac6dd"/><path d="m207.724 127.773h-44.65c-.829 0-1.5.671-1.5 1.5s.671 1.5 1.5 1.5h43.15v33.477h-177v-33.477h121.067c.829 0 1.5-.671 1.5-1.5s-.671-1.5-1.5-1.5h-122.567c-.829 0-1.5.671-1.5 1.5v36.477c0 .829.671 1.5 1.5 1.5h180c.829 0 1.5-.671 1.5-1.5v-36.477c0-.828-.671-1.5-1.5-1.5z" fill="#3a312a"/><path d="m27.724 179.91h154.425v36.477h-154.425z" fill="#87796f"/><path d="m182.148 178.41h-154.424c-.829 0-1.5.671-1.5 1.5v36.477c0 .829.671 1.5 1.5 1.5h154.424c.829 0 1.5-.671 1.5-1.5v-36.477c0-.828-.671-1.5-1.5-1.5zm-1.5 36.477h-151.424v-33.477h151.424z" fill="#3a312a"/><path d="m226.818 26.22c-.974 11.564-13.025 13.39-13.025 13.39 10.347.487 12.925 14.059 12.925 14.059.221-9.677 13.321-14.202 13.321-14.202-9.812-.588-13.221-13.247-13.221-13.247z" fill="#d7e057"/><path d="m240.13 37.969c-8.605-.515-11.832-12.024-11.864-12.141-.19-.702-.846-1.162-1.583-1.102-.725.066-1.298.642-1.359 1.367-.86 10.215-11.313 11.964-11.754 12.033-.763.115-1.313.79-1.273 1.56s.657 1.384 1.428 1.421c9.028.425 11.499 12.718 11.523 12.842.137.711.759 1.217 1.472 1.217.042 0 .084-.002.126-.005.764-.064 1.357-.693 1.375-1.459.194-8.508 12.191-12.777 12.313-12.819.675-.235 1.092-.914.994-1.623-.101-.707-.684-1.248-1.398-1.291zm-13.566 10.346c-1.357-3.13-3.709-6.907-7.587-8.877 2.931-1.405 6.409-3.913 8.202-8.272 1.551 3.071 4.2 6.88 8.333 8.722-3.007 1.64-6.922 4.405-8.948 8.427z" fill="#3a312a"/><path d="m205.12 43.2c-.689 8.179-9.213 9.47-9.213 9.47 7.318.344 9.142 9.944 9.142 9.944.156-6.844 9.422-10.045 9.422-10.045-6.941-.414-9.351-9.369-9.351-9.369z" fill="#d7e057"/><path d="m214.561 51.072c-5.767-.345-7.973-8.186-7.994-8.265-.19-.702-.854-1.17-1.582-1.102-.726.065-1.299.642-1.36 1.368-.579 6.871-7.646 8.067-7.942 8.114-.763.115-1.314.79-1.273 1.561.04.77.657 1.384 1.428 1.421 6.035.284 7.723 8.644 7.739 8.726.135.713.759 1.22 1.472 1.22.042 0 .083-.001.125-.005.765-.063 1.358-.694 1.376-1.461.13-5.709 8.332-8.634 8.413-8.662.676-.234 1.094-.913.996-1.622-.099-.708-.683-1.25-1.398-1.293zm-9.584 6.795c-.924-1.885-2.34-3.947-4.447-5.28 1.856-1.041 3.697-2.63 4.871-4.916 1.057 1.873 2.655 3.954 4.941 5.224-1.85 1.101-3.99 2.74-5.365 4.972z" fill="#3a312a"/><path d="m205.12 16.543c-.689 8.179-9.213 9.471-9.213 9.471 7.318.344 9.142 9.944 9.142 9.944.156-6.845 9.422-10.045 9.422-10.045-6.941-.416-9.351-9.37-9.351-9.37z" fill="#d7e057"/><g fill="#3a312a"><path d="m214.561 24.415c-5.767-.345-7.973-8.185-7.994-8.265-.19-.702-.854-1.163-1.582-1.102-.726.065-1.299.642-1.36 1.368-.579 6.871-7.646 8.067-7.942 8.114-.763.115-1.314.79-1.273 1.56.04.77.657 1.384 1.428 1.421 6.035.284 7.723 8.644 7.739 8.726.135.713.759 1.22 1.472 1.22.042 0 .083-.001.125-.005.765-.064 1.358-.694 1.376-1.461.13-5.709 8.332-8.634 8.413-8.662.676-.234 1.094-.913.996-1.622-.099-.707-.683-1.249-1.398-1.292zm-9.584 6.795c-.924-1.885-2.34-3.947-4.447-5.28 1.856-1.041 3.697-2.63 4.871-4.916 1.057 1.873 2.655 3.954 4.941 5.224-1.85 1.1-3.99 2.74-5.365 4.972z"/><path d="m238.724 226.625h-209.5v-210.5c0-.829-.671-1.5-1.5-1.5s-1.5.671-1.5 1.5v212c0 .829.671 1.5 1.5 1.5h211c.829 0 1.5-.671 1.5-1.5s-.671-1.5-1.5-1.5z"/><path d="m27.724 226.625c-.829 0-1.5.671-1.5 1.5v11.75c0 .829.671 1.5 1.5 1.5s1.5-.671 1.5-1.5v-11.75c0-.829-.671-1.5-1.5-1.5z"/><path d="m61.194 226.625c-.829 0-1.5.671-1.5 1.5v11.75c0 .829.671 1.5 1.5 1.5s1.5-.671 1.5-1.5v-11.75c0-.829-.671-1.5-1.5-1.5z"/><path d="m94.654 226.625c-.829 0-1.5.671-1.5 1.5v11.75c0 .829.671 1.5 1.5 1.5s1.5-.671 1.5-1.5v-11.75c0-.829-.672-1.5-1.5-1.5z"/><path d="m128.124 226.625c-.829 0-1.5.671-1.5 1.5v11.75c0 .829.671 1.5 1.5 1.5s1.5-.671 1.5-1.5v-11.75c0-.829-.671-1.5-1.5-1.5z"/><path d="m161.584 226.625c-.829 0-1.5.671-1.5 1.5v11.75c0 .829.671 1.5 1.5 1.5s1.5-.671 1.5-1.5v-11.75c0-.829-.671-1.5-1.5-1.5z"/><path d="m195.054 226.625c-.829 0-1.5.671-1.5 1.5v11.75c0 .829.671 1.5 1.5 1.5s1.5-.671 1.5-1.5v-11.75c0-.829-.672-1.5-1.5-1.5z"/><path d="m228.514 226.625c-.829 0-1.5.671-1.5 1.5v11.75c0 .829.671 1.5 1.5 1.5s1.5-.671 1.5-1.5v-11.75c0-.829-.671-1.5-1.5-1.5z"/><path d="m27.724 226.625h-11.75c-.829 0-1.5.671-1.5 1.5s.671 1.5 1.5 1.5h11.75c.829 0 1.5-.671 1.5-1.5s-.671-1.5-1.5-1.5z"/><path d="m27.724 193.155h-11.75c-.829 0-1.5.671-1.5 1.5s.671 1.5 1.5 1.5h11.75c.829 0 1.5-.671 1.5-1.5s-.671-1.5-1.5-1.5z"/><path d="m27.724 159.695h-11.75c-.829 0-1.5.671-1.5 1.5s.671 1.5 1.5 1.5h11.75c.829 0 1.5-.671 1.5-1.5s-.671-1.5-1.5-1.5z"/><path d="m27.724 126.225h-11.75c-.829 0-1.5.671-1.5 1.5s.671 1.5 1.5 1.5h11.75c.829 0 1.5-.671 1.5-1.5 0-.828-.671-1.5-1.5-1.5z"/><path d="m27.724 92.765h-11.75c-.829 0-1.5.671-1.5 1.5s.671 1.5 1.5 1.5h11.75c.829 0 1.5-.671 1.5-1.5 0-.828-.671-1.5-1.5-1.5z"/><path d="m27.724 59.295h-11.75c-.829 0-1.5.671-1.5 1.5s.671 1.5 1.5 1.5h11.75c.829 0 1.5-.671 1.5-1.5s-.671-1.5-1.5-1.5z"/><path d="m27.724 25.835h-11.75c-.829 0-1.5.671-1.5 1.5s.671 1.5 1.5 1.5h11.75c.829 0 1.5-.671 1.5-1.5s-.671-1.5-1.5-1.5z"/></g><path d="m171.019 29.5h15v33.48h-15z" fill="#d34e5c"/><path d="m142.029 80.14h15v33.47h-15z" fill="#b9c239"/><path d="m191.229 130.77h15v33.48h-15z" fill="#6ca8bf"/><path d="m165.649 181.41h15v33.48h-15z" fill="#695b51"/></svg>