<svg height="488pt" viewBox="-27 0 487 488" width="488pt" xmlns="http://www.w3.org/2000/svg"><path d="m144.429688 488c-2.058594 0-3.800782-1.574219-3.984376-3.65625l-15.304687-177.984375-50.695313 21.730469c-20.617187 8.839844-33.945312 29.046875-33.945312 51.46875v104.441406c0 2.207031-1.792969 4-4 4s-4-1.792969-4-4v-104.441406c0-25.628906 15.222656-48.71875 38.792969-58.824219l55.78125-23.902344c1.179687-.503906 2.53125-.417969 3.632812.246094 1.097657.664063 1.816407 1.808594 1.929688 3.089844l15.785156 183.496093c.191406 2.199219-1.441406 4.144532-3.640625 4.328126-.121094.007812-.242188.007812-.351562.007812zm0 0" fill="#263238"/><path d="m260.5 448c-2.207031 0-4-1.792969-4-4v-24c0-2.207031 1.792969-4 4-4s4 1.792969 4 4v24c0 2.207031-1.792969 4-4 4zm0 0" fill="#263238"/><path d="m180.5 288c-41.945312 0-77.96875-27.792969-88.761719-68.007812-12.878906-.40625-23.238281-11.007813-23.238281-23.992188s10.359375-23.585938 23.238281-23.992188c10.792969-40.214843 46.816407-68.007812 88.761719-68.007812 41.953125 0 77.96875 27.792969 88.761719 68.007812 12.878906.398438 23.238281 11.007813 23.238281 23.992188s-10.359375 23.585938-23.238281 23.992188c-10.792969 40.214843-46.808594 68.007812-88.761719 68.007812zm-86.273438-76.152344c1.921876 0 4.066407 1.191406 4.488282 3.023438 8.808594 38.34375 42.441406 65.128906 81.785156 65.128906s72.976562-26.785156 81.792969-65.128906c.453125-1.984375 2.160156-3.328125 4.367187-3.078125 1.070313.144531 1.449219.207031 1.839844.207031 8.824219 0 16-7.175781 16-16s-7.175781-16-16-16c-.390625 0-.769531.0625-1.144531.121094-2.054688.230468-4.597657-.96875-5.070313-2.992188-8.808594-38.34375-42.441406-65.128906-81.785156-65.128906s-72.976562 26.785156-81.792969 65.128906c-.453125 1.992188-2.367187 3.328125-4.359375 3.078125-1.085937-.144531-1.464844-.207031-1.847656-.207031-8.824219 0-16 7.175781-16 16s7.175781 16 16 16c.382812 0 .761719-.0625 1.136719-.113281.191406-.03125.390625-.039063.589843-.039063zm0 0" fill="#263238"/><path d="m100.5 188h-4v-52h24v32c0 11.046875-8.953125 20-20 20zm0 0" fill="#ffd740"/><path d="m100.5 192h-4c-2.207031 0-4-1.792969-4-4v-52c0-2.207031 1.792969-4 4-4h24c2.207031 0 4 1.792969 4 4v32c0 13.230469-10.769531 24-24 24zm0-8h.078125zm0-44v44c8.824219 0 16-7.175781 16-16v-28zm0 0" fill="#263238"/><path d="m240.5 135.601562v32.398438c0 11.046875 8.953125 20 20 20h4v-63.480469c-6.3125 6.191407-14.703125 10.136719-24 11.082031zm0 0" fill="#ffd740"/><path d="m264.5 192h-4c-13.230469 0-24-10.769531-24-24v-32.398438c0-2.058593 1.550781-3.777343 3.601562-3.984374 8.230469-.832032 15.902344-4.359376 21.589844-9.953126 1.160156-1.128906 2.871094-1.449218 4.351563-.832031 1.488281.625 2.457031 2.078125 2.457031 3.6875v63.480469c0 2.207031-1.792969 4-4 4zm-20-52.9375v28.9375c0 8.824219 7.175781 16 16 16v-51.207031c-4.816406 3.078125-10.257812 5.222656-16 6.269531zm0 0" fill="#263238"/><path d="m180.5 239.984375c-11.273438 0-22.535156-4.289063-31.113281-12.863281-1.558594-1.5625-1.558594-4.097656 0-5.65625 1.5625-1.5625 4.097656-1.5625 5.65625 0 14.042969 14.039062 36.871093 14.039062 50.914062 0 1.558594-1.5625 4.09375-1.5625 5.65625 0 1.558594 1.558594 1.558594 4.09375 0 5.65625-8.578125 8.566406-19.839843 12.863281-31.113281 12.863281zm0 0" fill="#263238"/><path d="m236.5 136h-140c0-33.136719 26.863281-60 60-60h41.640625c17.367187 0 34.519531-3.769531 50.289063-11.046875l28.070312-12.953125v44c0 22.089844-17.910156 40-40 40zm0 0" fill="#ffd740"/><path d="m236.5 140h-140c-2.207031 0-4-1.792969-4-4 0-35.289062 28.710938-64 64-64h41.648438c16.664062 0 33.472656-3.6875 48.609374-10.679688l28.070313-12.953124c1.238281-.566407 2.679687-.472657 3.832031.265624 1.144532.734376 1.839844 2.007813 1.839844 3.367188v44c0 24.265625-19.742188 44-44 44zm-135.855469-8h135.855469c19.847656 0 36-16.152344 36-36v-37.753906l-22.390625 10.339844c-16.175781 7.460937-34.152344 11.414062-51.96875 11.414062h-41.640625c-29.527344 0-53.800781 22.984375-55.855469 52zm0 0" fill="#263238"/><path d="m200.5 460.503906-20 23.496094-20-23.496094 12-120.503906h16zm0 0" fill="#40c4ff"/><g fill="#263238"><path d="m180.5 488c-1.167969 0-2.289062-.511719-3.046875-1.40625l-20-23.503906c-.707031-.832032-1.042969-1.914063-.9375-2.992188l12-120.496094c.199219-2.050781 1.929687-3.609374 3.984375-3.609374h16c2.054688 0 3.777344 1.558593 3.984375 3.609374l12 120.496094c.113281 1.078125-.230469 2.160156-.9375 2.992188l-20 23.503906c-.757813.894531-1.878906 1.40625-3.046875 1.40625zm-15.847656-28.800781 15.847656 18.625 15.847656-18.625-11.472656-115.199219h-8.757812zm0 0"/><path d="m100.5 488c-2.207031 0-4-1.792969-4-4v-80c0-2.207031 1.792969-4 4-4s4 1.792969 4 4v80c0 2.207031-1.792969 4-4 4zm0 0"/><path d="m260.5 488c-2.207031 0-4-1.792969-4-4v-84c0-1.34375.671875-2.601562 1.800781-3.335938 1.121094-.742187 2.527344-.878906 3.785157-.335937l56.238281 24.105469c11.144531 4.773437 23.863281 3.644531 34-3.035156 10.128906-6.6875 16.175781-17.917969 16.175781-30.0625v-75.335938h-56v48c0 2.207031-1.792969 4-4 4s-4-1.792969-4-4v-52c0-2.207031 1.792969-4 4-4h64c2.207031 0 4 1.792969 4 4v79.335938c0 14.832031-7.390625 28.566406-19.785156 36.734374-12.390625 8.167969-27.917969 9.554688-41.550782 3.707032l-50.664062-21.714844v77.9375c0 2.207031-1.792969 4-4 4zm0 0"/><path d="m131.972656 344c-.5625 0-1.128906-.121094-1.65625-.351562-1.320312-.601563-2.207031-1.863282-2.335937-3.3125l-3.328125-39.496094c-.144532-1.71875.824218-3.335938 2.40625-4.007813l19.847656-8.503906c1.769531-.761719 3.832031-.144531 4.90625 1.457031l16 24c1.183594 1.773438.765625 4.167969-.953125 5.4375l-32.527344 24c-.679687.511719-1.519531.777344-2.359375.777344zm.902344-40.953125 2.488281 29.488281 23.695313-17.488281-12.039063-18.054687zm0 0"/><path d="m228.957031 344c-.839843 0-1.679687-.265625-2.378906-.785156l-32.453125-24c-1.714844-1.261719-2.136719-3.664063-.953125-5.429688l16-24c1.070313-1.601562 3.152344-2.21875 4.902344-1.457031l19.859375 8.503906c1.582031.679688 2.550781 2.304688 2.40625 4.015625l-3.398438 39.496094c-.128906 1.441406-1.015625 2.703125-2.335937 3.304688-.539063.230468-1.089844.351562-1.648438.351562zm-27.015625-28.953125 23.636719 17.480469 2.539063-29.488282-14.136719-6.054687zm0 0"/><path d="m188.5 344h-16c-6.617188 0-12-5.382812-12-12v-8c0-6.617188 5.382812-12 12-12h16c6.617188 0 12 5.382812 12 12v8c0 6.617188-5.382812 12-12 12zm-16-24c-2.207031 0-4 1.792969-4 4v8c0 2.207031 1.792969 4 4 4h16c2.207031 0 4-1.792969 4-4v-8c0-2.207031-1.792969-4-4-4zm0 0"/><path d="m194.546875 322.929688c-1.175781 0-2.304687-.523438-3.0625-1.433594-.472656-.558594-1.488281-1.496094-2.992187-1.496094h-16c-1.503907 0-2.519532.9375-2.992188 1.496094-.816406.96875-2.113281 1.480468-3.28125 1.425781-1.253906-.066406-2.40625-.730469-3.109375-1.777344l-17.953125-26.929687c-.425781-.65625-.65625-1.421875-.65625-2.214844v-14.078125c0-1.320313.65625-2.5625 1.742188-3.304687 1.089843-.753907 2.496093-.914063 3.714843-.417969 19.671875 7.703125 41.414063 7.703125 61.085938 0 1.234375-.488281 2.625-.328125 3.714843.417969 1.085938.742187 1.742188 1.984374 1.742188 3.304687v14.078125c0 .792969-.230469 1.558594-.671875 2.214844l-17.953125 26.929687c-.695312 1.046875-1.847656 1.703125-3.109375 1.777344-.066406 0-.136719.007813-.21875.007813zm-22.046875-10.929688h16c1.769531 0 3.496094.40625 5.070312 1.175781l14.929688-22.382812v-7.199219c-18.175781 5.855469-37.824219 5.855469-56 0v7.199219l14.929688 22.390625c1.574218-.777344 3.300781-1.183594 5.070312-1.183594zm0 0"/><path d="m88.5 284h-60c-2.207031 0-4-1.792969-4-4s1.792969-4 4-4h60c2.207031 0 4 1.792969 4 4s-1.792969 4-4 4zm0 0"/><path d="m12.5 284h-8c-2.207031 0-4-1.792969-4-4s1.792969-4 4-4h8c2.207031 0 4 1.792969 4 4s-1.792969 4-4 4zm0 0"/><path d="m404.5 464h-60c-2.207031 0-4-1.792969-4-4s1.792969-4 4-4h60c2.207031 0 4 1.792969 4 4s-1.792969 4-4 4zm0 0"/><path d="m428.5 464h-8c-2.207031 0-4-1.792969-4-4s1.792969-4 4-4h8c2.207031 0 4 1.792969 4 4s-1.792969 4-4 4zm0 0"/><path d="m312.5 266h-16c-6.617188 0-12-5.382812-12-12v-4c0-6.617188 5.382812-12 12-12h16c6.617188 0 12 5.382812 12 12v4c0 6.617188-5.382812 12-12 12zm-16-20c-2.199219 0-4 1.792969-4 4v4c0 2.207031 1.800781 4 4 4h16c2.199219 0 4-1.792969 4-4v-4c0-2.207031-1.800781-4-4-4zm0 0"/><path d="m372.5 256h-4c-6.617188 0-12-5.382812-12-12v-24c0-6.617188 5.382812-12 12-12h4c6.617188 0 12 5.382812 12 12v24c0 6.617188-5.382812 12-12 12zm-4-40c-2.199219 0-4 1.792969-4 4v24c0 2.207031 1.800781 4 4 4h4c2.199219 0 4-1.792969 4-4v-24c0-2.207031-1.800781-4-4-4zm0 0"/><path d="m352.5 256h-4c-6.617188 0-12-5.382812-12-12v-24c0-6.617188 5.382812-12 12-12h4c6.617188 0 12 5.382812 12 12v24c0 6.617188-5.382812 12-12 12zm-4-40c-2.199219 0-4 1.792969-4 4v24c0 2.207031 1.800781 4 4 4h4c2.199219 0 4-1.792969 4-4v-24c0-2.207031-1.800781-4-4-4zm0 0"/><path d="m332.5 256h-4c-6.617188 0-12-5.382812-12-12v-24c0-6.617188 5.382812-12 12-12h4c6.617188 0 12 5.382812 12 12v24c0 6.617188-5.382812 12-12 12zm-4-40c-2.199219 0-4 1.792969-4 4v24c0 2.207031 1.800781 4 4 4h4c2.199219 0 4-1.792969 4-4v-24c0-2.207031-1.800781-4-4-4zm0 0"/><path d="m360.5 296c-2.207031 0-4-1.792969-4-4s1.792969-4 4-4c8.824219 0 16-7.175781 16-16v-20c0-2.207031 1.792969-4 4-4s4 1.792969 4 4v20c0 13.230469-10.769531 24-24 24zm0 0"/><path d="m320.5 296c-13.230469 0-24-10.769531-24-24v-10c0-2.207031 1.792969-4 4-4s4 1.792969 4 4v10c0 8.824219 7.175781 16 16 16 2.207031 0 4 1.792969 4 4s-1.792969 4-4 4zm0 0"/><path d="m320.5 256c-2.207031 0-4-1.792969-4-4v-72c0-2.207031-1.800781-4-4-4h-4c-2.199219 0-4 1.792969-4 4v62c0 2.207031-1.792969 4-4 4s-4-1.792969-4-4v-62c0-6.617188 5.382812-12 12-12h4c6.617188 0 12 5.382812 12 12v72c0 2.207031-1.792969 4-4 4zm0 0"/><path d="m216.5625 488c-.109375 0-.230469 0-.34375-.015625-2.199219-.183594-3.832031-2.128906-3.640625-4.328125l15.792969-183.496094c.113281-1.28125.832031-2.425781 1.929687-3.089844 1.09375-.664062 2.445313-.75 3.632813-.246093l76.167968 32.640625c2.03125.871094 2.964844 3.222656 2.101563 5.246094-.878906 2.042968-3.246094 2.960937-5.253906 2.105468l-71.082031-30.464844-15.3125 177.984376c-.191407 2.089843-1.933594 3.664062-3.992188 3.664062zm0 0"/></g><path d="m409.1875 84c0-24.921875-22.785156-44.519531-48.664062-39.089844-15.261719 3.203125-27.496094 15.664063-30.527344 30.960938-2.6875 13.570312 1.527344 26.105468 9.710937 34.976562 5.800781 6.289063 9.480469 14.222656 9.480469 22.785156v2.367188h40v-2.359375c0-8.601563 3.761719-16.542969 9.570312-22.886719 6.460938-7.066406 10.429688-16.417968 10.429688-26.753906zm0 0" fill="#ffd740"/><path d="m389.1875 140h-40c-2.207031 0-4-1.792969-4-4v-2.375c0-7.050781-2.992188-14.175781-8.421875-20.074219-9.585937-10.382812-13.488281-24.40625-10.691406-38.460937 3.347656-16.875 16.859375-30.578125 33.632812-34.089844 13.289063-2.808594 26.847657.433594 37.191407 8.832031 10.34375 8.398438 16.28125 20.855469 16.28125 34.167969 0 10.910156-4.078126 21.367188-11.488282 29.449219-3.878906 4.246093-8.511718 11.191406-8.511718 20.183593v2.367188c.007812 2.207031-1.785157 4-3.992188 4zm-36.039062-8h32.078124c.433594-8.480469 4.152344-16.921875 10.578126-23.953125 6.054687-6.597656 9.382812-15.144531 9.382812-24.046875 0-10.894531-4.855469-21.089844-13.320312-27.96875-8.464844-6.871094-19.589844-9.511719-30.511719-7.207031-13.679688 2.863281-24.695313 14.046875-27.429688 27.824219-2.289062 11.519531.886719 22.992187 8.726563 31.480468 6.382812 6.933594 10.070312 15.359375 10.496094 23.871094zm0 0" fill="#263238"/><path d="m369.1875 180c-13.230469 0-24-10.769531-24-24v-20c0-2.207031 1.792969-4 4-4h40c2.207031 0 4 1.792969 4 4v20c0 13.230469-10.765625 24-24 24zm-16-40v16c0 8.824219 7.175781 16 16 16s16-7.175781 16-16v-16zm0 0" fill="#263238"/><path d="m389.1875 160h-40c-2.207031 0-4-1.792969-4-4s1.792969-4 4-4h40c2.207031 0 4 1.792969 4 4s-1.792969 4-4 4zm0 0" fill="#263238"/><path d="m369.1875 24c-2.207031 0-4-1.792969-4-4v-16c0-2.207031 1.792969-4 4-4s4 1.792969 4 4v16c0 2.207031-1.792969 4-4 4zm0 0" fill="#263238"/><path d="m329.1875 37.65625c-1.023438 0-2.046875-.390625-2.832031-1.167969l-11.3125-11.3125c-1.558594-1.558593-1.558594-4.097656 0-5.65625 1.5625-1.558593 4.097656-1.558593 5.65625 0l11.3125 11.3125c1.558593 1.558594 1.558593 4.097657 0 5.65625-.777344.777344-1.800781 1.167969-2.824219 1.167969zm0 0" fill="#263238"/><path d="m409.1875 37.65625c-1.023438 0-2.046875-.390625-2.832031-1.167969-1.558594-1.558593-1.558594-4.097656 0-5.65625l11.3125-11.3125c1.558593-1.558593 4.097656-1.558593 5.65625 0 1.558593 1.558594 1.558593 4.097657 0 5.65625l-11.3125 11.3125c-.777344.777344-1.800781 1.167969-2.824219 1.167969zm0 0" fill="#263238"/><path d="m369.1875 140c-2.207031 0-4-1.792969-4-4v-40c0-2.207031 1.792969-4 4-4s4 1.792969 4 4v40c0 2.207031-1.792969 4-4 4zm0 0" fill="#263238"/></svg>