<svg id="Layer_1" enable-background="new 0 0 256 256" height="512" viewBox="0 0 256 256" width="512" xmlns="http://www.w3.org/2000/svg"><path d="m51.291 26.209s3.408 12.659 13.222 13.246c0 0-13.1 4.525-13.321 14.202 0 0-2.578-13.572-12.925-14.059-.001 0 12.05-1.825 13.024-13.389z" fill="#d6df58"/><path d="m51.19 55.157c-.713 0-1.335-.506-1.472-1.217-.024-.124-2.495-12.417-11.522-12.842-.771-.037-1.388-.651-1.428-1.421-.04-.771.511-1.445 1.273-1.561.441-.069 10.894-1.818 11.754-12.033.061-.725.634-1.301 1.359-1.367.722-.066 1.393.399 1.583 1.102.032.116 3.259 11.626 11.864 12.14.715.042 1.299.584 1.397 1.292s-.319 1.388-.994 1.623c-.121.042-12.118 4.311-12.313 12.819-.018.767-.61 1.396-1.375 1.46-.042.003-.084.005-.126.005zm-7.741-15.73c3.878 1.969 6.23 5.746 7.587 8.876 2.026-4.021 5.942-6.787 8.949-8.427-4.134-1.842-6.783-5.651-8.334-8.722-1.793 4.36-5.271 6.868-8.202 8.273z" fill="#3a312a"/><path d="m29.592 43.189s2.411 8.954 9.352 9.369c0 0-9.266 3.201-9.422 10.045 0 0-1.824-9.6-9.142-9.944 0 .001 8.523-1.291 9.212-9.47z" fill="#d6df58"/><path d="m29.52 64.104c-.713 0-1.337-.507-1.472-1.22-.016-.082-1.704-8.441-7.739-8.726-.77-.037-1.387-.651-1.427-1.421-.039-.771.511-1.445 1.274-1.561.296-.047 7.364-1.243 7.942-8.113.061-.726.635-1.303 1.36-1.368.727-.065 1.392.4 1.582 1.102.021.079 2.228 7.919 7.994 8.264.715.043 1.299.584 1.396 1.293.098.709-.319 1.388-.996 1.622-.081.028-8.282 2.953-8.413 8.662-.018.767-.611 1.397-1.376 1.461-.042.004-.083.005-.125.005zm-4.519-11.527c2.107 1.333 3.523 3.394 4.447 5.28 1.376-2.232 3.515-3.872 5.365-4.973-2.287-1.269-3.884-3.35-4.941-5.224-1.173 2.287-3.015 3.875-4.871 4.917z" fill="#3a312a"/><path d="m29.592 16.532s2.411 8.954 9.352 9.37c0 0-9.266 3.201-9.422 10.045 0 0-1.824-9.6-9.142-9.944 0 0 8.523-1.292 9.212-9.471z" fill="#d6df58"/><path d="m29.52 37.447c-.713 0-1.337-.507-1.472-1.22-.016-.082-1.704-8.442-7.739-8.726-.77-.037-1.388-.651-1.428-1.421s.511-1.445 1.274-1.561c.296-.047 7.364-1.243 7.942-8.114.061-.726.635-1.303 1.36-1.368.727-.066 1.392.4 1.582 1.102.021.079 2.228 7.92 7.994 8.265.714.043 1.299.585 1.396 1.294.098.709-.32 1.388-.996 1.622-.081.028-8.282 2.952-8.413 8.662-.018.767-.611 1.397-1.376 1.461-.041.002-.082.004-.124.004zm-4.519-11.528c2.107 1.333 3.523 3.395 4.447 5.28 1.376-2.232 3.515-3.872 5.365-4.972-2.287-1.27-3.884-3.35-4.941-5.224-1.173 2.286-3.015 3.875-4.871 4.916z" fill="#3a312a"/><path d="m148.71 27.452c26.954 2.144 50.837 18.003 63.339 41.671l-10.096-3.544c-2.87-1.007-6.012.503-7.019 3.372-.212.603-.312 1.218-.312 1.823 0 2.272 1.417 4.399 3.683 5.195l21.965 7.709c1.379.484 2.892.4 4.208-.232 1.316-.633 2.327-1.762 2.811-3.14l7.709-21.966c1.008-2.868-.502-6.011-3.371-7.018-2.87-1.007-6.012.503-7.019 3.372l-3.084 8.787c-15.429-28.771-45.663-47.298-79.077-47.298-38.242 0-72.322 24.268-84.806 60.386-.206.596-.303 1.202-.303 1.798 0 2.282 1.43 4.417 3.709 5.204 2.873.994 6.008-.531 7.002-3.405 10.236-29.619 37.033-50.147 67.89-52.698z" fill="#8ac6dd"/><path d="m222.099 85.493c-.782 0-1.566-.132-2.326-.399l-21.964-7.709c-2.803-.984-4.686-3.641-4.686-6.61 0-.791.133-1.573.396-2.321 1.279-3.645 5.288-5.566 8.93-4.29l6.35 2.229c-12.793-21.54-35.023-35.442-60.208-37.445-.826-.066-1.442-.788-1.376-1.614.066-.825.788-1.445 1.614-1.376 27.527 2.189 51.657 18.064 64.546 42.465.289.546.213 1.212-.19 1.68-.402.467-1.05.642-1.633.437l-10.096-3.544c-2.085-.732-4.374.369-5.106 2.453-.151.429-.227.875-.227 1.327 0 1.698 1.077 3.217 2.68 3.779l21.965 7.709c1.011.355 2.098.294 3.061-.169.965-.464 1.691-1.275 2.046-2.285l7.709-21.965c.354-1.01.294-2.097-.168-3.061-.463-.965-1.274-1.691-2.284-2.046-2.083-.729-4.376.369-5.107 2.454l-3.084 8.786c-.197.561-.707.953-1.3.999-.587.047-1.157-.262-1.438-.787-15.385-28.687-45.179-46.507-77.755-46.507-37.603 0-71.114 23.861-83.389 59.376-.146.422-.22.862-.22 1.308 0 1.707 1.085 3.229 2.698 3.786 1.012.35 2.098.285 3.06-.183s1.685-1.283 2.035-2.294c10.37-30.006 37.526-51.086 69.184-53.704.836-.07 1.55.546 1.619 1.372.068.826-.546 1.55-1.372 1.619-30.473 2.519-56.614 22.81-66.596 51.693-.611 1.769-1.875 3.193-3.558 4.012-1.683.818-3.583.933-5.352.321-2.822-.975-4.718-3.636-4.718-6.621 0-.78.129-1.55.385-2.289 12.692-36.722 47.343-61.396 86.224-61.396 32.563 0 62.438 17.221 78.762 45.166l1.983-5.651c1.278-3.644 5.286-5.569 8.931-4.291 3.646 1.28 5.57 5.287 4.29 8.931l-7.709 21.965c-.62 1.766-1.891 3.184-3.577 3.995-.961.462-1.993.695-3.029.695z" fill="#3a312a"/><path d="m113.26 228.41c-26.676-2.355-50.264-18.143-62.661-41.612l10.096 3.544c2.87 1.007 6.012-.503 7.019-3.372.212-.603.312-1.218.312-1.823 0-2.273-1.417-4.399-3.683-5.195l-21.965-7.709c-1.379-.484-2.892-.4-4.208.232s-2.327 1.762-2.811 3.14l-7.709 21.966c-1.008 2.868.502 6.011 3.371 7.018 2.87 1.007 6.012-.503 7.019-3.372l3.084-8.787c15.43 28.771 45.663 47.299 79.077 47.299 38.241 0 72.322-24.268 84.806-60.386.206-.596.303-1.202.303-1.798 0-2.283-1.43-4.417-3.709-5.204-2.873-.994-6.008.531-7.001 3.405-10.309 29.827-37.411 50.434-68.542 52.747z" fill="#8ac6dd"/><path d="m120.201 241.239c-32.563 0-62.438-17.221-78.762-45.167l-1.983 5.651c-1.278 3.644-5.284 5.569-8.931 4.292-3.646-1.281-5.57-5.287-4.291-8.931l7.709-21.965c.621-1.766 1.891-3.185 3.577-3.996 1.686-.809 3.588-.916 5.354-.295l21.965 7.709c2.803.984 4.687 3.64 4.687 6.61 0 .792-.133 1.572-.396 2.321-.619 1.765-1.89 3.184-3.576 3.995-1.687.81-3.589.915-5.354.295l-6.349-2.229c12.664 21.311 34.644 35.189 59.542 37.387.825.073 1.435.801 1.362 1.626-.073.826-.8 1.437-1.626 1.362-27.228-2.404-51.099-18.256-63.855-42.405-.288-.546-.213-1.212.19-1.68.402-.467 1.051-.642 1.633-.436l10.096 3.544c1.01.356 2.097.294 3.062-.169.964-.463 1.691-1.275 2.045-2.285.151-.429.227-.875.227-1.327 0-1.698-1.077-3.216-2.68-3.779l-21.965-7.709c-1.009-.355-2.097-.294-3.062.168-.964.463-1.69 1.275-2.045 2.285l-7.708 21.965c-.732 2.084.369 4.375 2.453 5.107 2.085.73 4.376-.37 5.106-2.454l3.084-8.786c.197-.561.707-.953 1.3-.999.589-.038 1.157.263 1.438.787 15.385 28.687 45.179 46.507 77.755 46.507 37.602 0 71.113-23.861 83.388-59.376.146-.423.221-.863.221-1.309 0-1.707-1.085-3.229-2.699-3.786-1.011-.35-2.097-.285-3.059.184-.962.468-1.685 1.283-2.034 2.294-10.465 30.278-37.882 51.377-69.849 53.753-.836.054-1.546-.56-1.607-1.385-.061-.826.559-1.546 1.385-1.607 30.771-2.287 57.162-22.596 67.236-51.741.611-1.768 1.874-3.193 3.557-4.012 1.684-.819 3.582-.934 5.352-.321 2.822.975 4.719 3.635 4.719 6.621 0 .781-.13 1.551-.386 2.29-12.695 36.723-47.346 61.396-86.226 61.396z" fill="#3a312a"/><path d="m193.462 114.631h-2.701c-1.583-6.921-4.343-13.394-8.06-19.196l1.987-1.987c2.29-2.29 2.29-6.003 0-8.293l-10.558-10.558c-2.29-2.29-6.003-2.29-8.293 0l-2.062 2.062c-5.79-3.647-12.235-6.347-19.121-7.882v-2.954c0-3.238-2.625-5.864-5.864-5.864h-14.931c-3.239 0-5.864 2.626-5.864 5.864v2.954c-3.649.983-13.331 4.235-19.121 7.882l-2.062-2.062c-2.29-2.29-6.003-2.29-8.293 0l-10.558 10.558c-2.29 2.29-2.29 6.003 0 8.293l1.988 1.987c-3.717 5.802-6.477 12.274-8.06 19.196h-2.701c-3.239 0-5.864 2.625-5.864 5.864v14.931c0 3.239 2.625 5.864 5.864 5.864h2.561c1.523 7.007 4.249 13.564 7.953 19.443l-1.739 1.739c-2.29 2.29-2.29 6.003 0 8.293l10.558 10.558c2.29 2.29 6.003 2.29 8.293 0l1.664-1.665c5.891 3.774 12.476 6.56 19.518 8.131v2.308c0 3.238 2.625 5.864 5.864 5.864h14.931c3.238 0 5.864-2.625 5.864-5.864v-2.308c7.043-1.571 13.627-4.356 19.518-8.131l1.665 1.665c2.29 2.29 6.003 2.29 8.293 0l10.558-10.558c2.29-2.29 2.29-6.003 0-8.293l-1.739-1.739c3.704-5.88 6.43-12.437 7.953-19.443h2.561c3.238 0 5.864-2.625 5.864-5.864v-14.931c-.002-3.239-2.628-5.864-5.866-5.864zm-62.138 43.816c-16.837 0-30.486-13.649-30.486-30.486s13.649-30.486 30.486-30.486 30.486 13.649 30.486 30.486-13.649 30.486-30.486 30.486z" fill="#ef6d7a"/><path d="m138.79 197.462h-14.931c-4.061 0-7.364-3.303-7.364-7.364v-1.118c-6.297-1.532-12.275-4.022-17.803-7.415l-.819.819c-2.871 2.871-7.543 2.871-10.414 0l-10.559-10.557c-2.872-2.871-2.872-7.543 0-10.414l.9-.901c-3.329-5.514-5.763-11.465-7.25-17.721h-1.364c-4.06 0-7.364-3.304-7.364-7.364v-14.931c0-4.061 3.303-7.364 7.364-7.364h1.518c1.538-6.177 4.002-12.046 7.338-17.48l-1.142-1.143c-2.872-2.872-2.872-7.544 0-10.415l10.558-10.558c2.871-2.871 7.543-2.871 10.414 0l1.231 1.231c5.393-3.132 13.282-5.913 17.391-7.125v-1.82c0-4.06 3.304-7.364 7.364-7.364h14.931c4.061 0 7.364 3.304 7.364 7.364v1.763c6.137 1.494 11.979 3.902 17.399 7.173l1.224-1.223c2.871-2.871 7.543-2.871 10.414 0l10.558 10.558c2.872 2.871 2.872 7.543 0 10.414l-1.143 1.143c3.336 5.434 5.8 11.303 7.338 17.48h1.518c4.061 0 7.364 3.303 7.364 7.364v14.931c0 4.061-3.304 7.364-7.364 7.364h-1.364c-1.487 6.256-3.921 12.207-7.25 17.721l.9.901c1.391 1.391 2.157 3.24 2.157 5.207s-.766 3.816-2.157 5.207l-10.558 10.558c-1.391 1.391-3.24 2.157-5.207 2.157s-3.816-.766-5.207-2.157l-.819-.819c-5.527 3.393-11.505 5.883-17.803 7.415v1.118c0 4.062-3.303 7.365-7.363 7.365zm-40.313-19.302c.279 0 .56.078.809.237 5.853 3.75 12.257 6.417 19.036 7.93.686.153 1.173.761 1.173 1.464v2.309c0 2.406 1.958 4.364 4.364 4.364h14.931c2.406 0 4.364-1.958 4.364-4.364v-2.309c0-.703.488-1.311 1.173-1.464 6.779-1.512 13.184-4.18 19.036-7.93.593-.38 1.371-.296 1.87.203l1.665 1.665c1.702 1.701 4.47 1.701 6.172 0l10.558-10.558c1.701-1.702 1.701-4.47 0-6.172l-1.739-1.739c-.496-.495-.582-1.268-.208-1.86 3.682-5.845 6.292-12.225 7.756-18.962.15-.69.76-1.182 1.466-1.182h2.561c2.406 0 4.364-1.958 4.364-4.364v-14.931c0-2.406-1.958-4.364-4.364-4.364h-2.701c-.7 0-1.306-.483-1.462-1.166-1.523-6.659-4.169-12.958-7.861-18.721-.38-.593-.296-1.372.203-1.87l1.988-1.987c1.701-1.702 1.701-4.47 0-6.172l-10.558-10.558c-1.702-1.701-4.47-1.701-6.172 0l-2.062 2.062c-.495.496-1.268.582-1.86.208-5.754-3.624-12.028-6.211-18.648-7.688-.686-.153-1.173-.761-1.173-1.464v-2.954c0-2.406-1.958-4.364-4.364-4.364h-14.931c-2.406 0-4.364 1.958-4.364 4.364v2.954c0 .678-.455 1.272-1.11 1.448-3.694.995-13.129 4.188-18.711 7.703-.593.374-1.364.287-1.86-.208l-2.062-2.062c-1.702-1.701-4.47-1.701-6.172 0l-10.563 10.558c-1.702 1.702-1.702 4.47 0 6.172l1.988 1.987c.499.499.583 1.277.203 1.87-3.693 5.763-6.338 12.062-7.861 18.721-.156.682-.763 1.166-1.462 1.166h-2.702c-2.406 0-4.364 1.958-4.364 4.364v14.931c0 2.406 1.957 4.364 4.364 4.364h2.561c.705 0 1.316.492 1.466 1.182 1.464 6.737 4.074 13.117 7.756 18.962.374.592.287 1.365-.208 1.86l-1.739 1.739c-1.702 1.702-1.702 4.47 0 6.172l10.558 10.558c1.702 1.701 4.47 1.701 6.172 0l1.664-1.665c.288-.289.672-.439 1.06-.439zm32.847-18.213c-17.637 0-31.986-14.349-31.986-31.986s14.349-31.986 31.986-31.986 31.986 14.349 31.986 31.986-14.349 31.986-31.986 31.986zm0-60.972c-15.983 0-28.986 13.003-28.986 28.986s13.003 28.986 28.986 28.986 28.986-13.003 28.986-28.986-13.003-28.986-28.986-28.986z" fill="#3a312a"/><g fill="#d34e5c"><path d="m181.847 114.95h7.447c-1.522-6.646-4.163-12.935-7.849-18.692-.384-.599-.309-1.38.194-1.883l1.865-1.865c.717-.717 1.238-1.633 1.364-2.638.173-1.373-.285-2.698-1.243-3.655l-10.435-10.438c-.717-.717-1.633-1.238-2.638-1.364-1.373-.173-2.697.285-3.655 1.243l-2.062 2.062c-.5.5-1.275.577-1.874.2-5.654-3.56-11.813-6.112-18.307-7.599v7.223c0 1.286.816 2.443 2.04 2.838 15.347 4.954 27.448 17.122 32.309 32.509.39 1.233 1.551 2.059 2.844 2.059z"/><path d="m181.887 161.795c-.5-.5-.577-1.275-.2-1.873 3.543-5.628 6.08-11.753 7.57-18.211h-7.681c-1.277 0-2.427.805-2.83 2.017-5.002 15.051-16.943 26.931-32.05 31.81-1.225.396-2.042 1.551-2.042 2.838v7.869c6.652-1.523 12.941-4.156 18.696-7.841.599-.384 1.38-.309 1.883.194l1.545 1.544c.717.716 1.633 1.237 2.639 1.363 1.373.172 2.696-.286 3.652-1.243l10.437-10.436c.717-.717 1.238-1.634 1.364-2.64.172-1.373-.286-2.696-1.243-3.654z"/></g></svg>