<?xml version="1.0" encoding="utf-8"?>
<!-- Generator: Adobe Illustrator 22.0.1, SVG Export Plug-In . SVG Version: 6.00 Build 0)  -->
<svg xmlns="http://www.w3.org/2000/svg" xmlns:xlink="http://www.w3.org/1999/xlink" version="1.1" id="Layer_1" x="0px" y="0px" viewBox="0 0 256 256" style="enable-background:new 0 0 256 256;" xml:space="preserve" width="512" height="512">
<style type="text/css">
	.st0{fill:#3A312A;}
	.st1{fill:#D7E057;}
	.st2{fill:#F16C7A;}
	.st3{fill:#FCE8CB;}
	.st4{fill:#87796F;}
	.st5{fill:#8AC6DD;}
	.st6{fill:#CE4E61;}
	.st7{fill:#6CA8BF;}
	.st8{fill:#B9C239;}
	.st9{fill:#DECAAD;}
	.st10{fill:#695B51;}
	.st11{fill-rule:evenodd;clip-rule:evenodd;fill:#FCE8CB;}
	.st12{fill:#F5978A;}
	.st13{fill:#68A8BC;}
	.st14{fill:#B9BC39;}
	.st15{fill:#6B5B51;}
	.st16{fill:#D34E5C;}
	.st17{fill-rule:evenodd;clip-rule:evenodd;fill:#87796F;}
	.st18{fill-rule:evenodd;clip-rule:evenodd;fill:#F16C7A;}
</style>
<g>
	<g>
		<g>
			<path class="st5" d="M213.837,95.67c0.996-4.118,1.537-8.414,1.537-12.838c0-30.056-24.366-54.422-54.422-54.422     c-18.105,0-34.135,8.848-44.028,22.448c-6.712-3.928-14.517-6.189-22.855-6.189c-25.033,0-45.326,20.293-45.326,45.326     c0,0.651,0.022,1.298,0.049,1.943c-19.177,7.153-32.836,25.627-32.836,47.297c0,26.68,20.706,48.51,46.922,50.332v0.061h0.807     c0.908,0.049,1.821,0.077,2.741,0.077c0.92,0,1.833-0.028,2.741-0.077h116.458c0.908,0.049,1.821,0.077,2.741,0.077     c0.92,0,1.833-0.028,2.741-0.077h0.807v-0.061c26.216-1.823,46.922-23.653,46.922-50.332     C238.835,120.656,228.788,104.431,213.837,95.67z"/>
		</g>
	</g>
	<g>
		<g>
			<path class="st0" d="M215.544,94.946c0.883-3.989,1.33-8.058,1.33-12.113c0-30.836-25.087-55.922-55.922-55.922     c-17.376,0-33.887,8.196-44.44,21.992c-6.863-3.754-14.593-5.732-22.443-5.732c-25.82,0-46.826,21.006-46.826,46.826     c0,0.31,0.005,0.619,0.012,0.927c-19.664,7.811-32.8,27.088-32.8,48.312c0,27.038,21.002,49.709,47.895,51.798     c0.164,0.062,0.342,0.096,0.527,0.096l0.727-0.002c1.984,0.105,3.739,0.104,5.562,0.002l116.378-0.002     c0.992,0.053,1.915,0.079,2.821,0.079c0.907,0,1.83-0.026,2.741-0.077h0.807c0.176,0,0.346-0.033,0.503-0.094     c26.905-2.077,47.919-24.754,47.919-51.8C240.335,121.237,230.864,104.371,215.544,94.946z M191.809,188.072     c-0.107,0.007-0.212,0.027-0.312,0.058l-0.472,0.001c-1.875,0.102-3.363,0.104-5.401-0.002l-116.539,0.002     c-1.876,0.102-3.364,0.104-5.401-0.002H63.3c-0.102-0.03-0.208-0.049-0.319-0.057c-25.529-1.775-45.526-23.228-45.526-48.837     c0-20.341,12.804-38.783,31.861-45.891c0.608-0.227,1.002-0.82,0.974-1.469c-0.026-0.624-0.047-1.25-0.047-1.879     c0-24.166,19.66-43.826,43.826-43.826c7.768,0,15.409,2.069,22.097,5.983c0.665,0.39,1.518,0.211,1.971-0.412     c9.945-13.669,25.95-21.831,42.815-21.831c29.182,0,52.922,23.741,52.922,52.922c0,4.183-0.503,8.384-1.495,12.485     c-0.156,0.643,0.129,1.312,0.7,1.646c14.962,8.768,24.256,24.965,24.256,42.271C237.335,164.845,217.337,186.297,191.809,188.072     z"/>
		</g>
	</g>
	<g>
		<g>
			<path class="st1" d="M46.799,26.006c-0.974,11.564-13.024,13.39-13.024,13.39C44.121,39.883,46.7,53.455,46.7,53.455     c0.221-9.677,13.321-14.202,13.321-14.202C50.208,38.666,46.799,26.006,46.799,26.006z"/>
		</g>
	</g>
	<g>
		<g>
			<path class="st0" d="M60.11,37.755c-8.604-0.514-11.832-12.024-11.863-12.14c-0.191-0.703-0.86-1.168-1.583-1.102     c-0.725,0.066-1.298,0.642-1.359,1.367c-0.86,10.215-11.313,11.963-11.754,12.032c-0.763,0.115-1.313,0.79-1.273,1.561     c0.04,0.77,0.657,1.384,1.427,1.421c9.028,0.425,11.499,12.718,11.523,12.842c0.137,0.711,0.759,1.217,1.472,1.217     c0.042,0,0.084-0.001,0.126-0.005c0.764-0.064,1.357-0.693,1.375-1.459c0.195-8.508,12.192-12.777,12.313-12.819     c0.675-0.235,1.092-0.915,0.994-1.623C61.408,38.339,60.824,37.798,60.11,37.755z M46.544,48.101     c-1.356-3.13-3.709-6.907-7.586-8.876c2.931-1.405,6.409-3.913,8.202-8.273c1.551,3.071,4.199,6.88,8.334,8.722     C52.486,41.314,48.571,44.08,46.544,48.101z"/>
		</g>
	</g>
	<g>
		<g>
			<path class="st1" d="M25.1,42.987c-0.689,8.179-9.212,9.471-9.212,9.471c7.318,0.344,9.142,9.944,9.142,9.944     c0.156-6.845,9.422-10.046,9.422-10.046C27.511,51.941,25.1,42.987,25.1,42.987z"/>
		</g>
	</g>
	<g>
		<g>
			<path class="st0" d="M34.542,50.858c-5.766-0.345-7.972-8.185-7.994-8.264c-0.191-0.702-0.855-1.171-1.582-1.102     c-0.726,0.065-1.299,0.643-1.36,1.368c-0.579,6.871-7.646,8.067-7.942,8.114c-0.763,0.115-1.313,0.79-1.273,1.561     c0.04,0.77,0.657,1.384,1.428,1.421c6.035,0.284,7.724,8.644,7.739,8.726c0.135,0.713,0.759,1.22,1.473,1.22     c0.041,0,0.083-0.001,0.125-0.005c0.765-0.063,1.358-0.694,1.376-1.461c0.13-5.709,8.332-8.634,8.412-8.662     c0.677-0.234,1.094-0.913,0.996-1.622C35.841,51.443,35.256,50.901,34.542,50.858z M24.958,57.654     c-0.924-1.885-2.34-3.947-4.447-5.28c1.855-1.041,3.697-2.63,4.871-4.917c1.057,1.874,2.654,3.955,4.941,5.224     C28.472,53.782,26.333,55.421,24.958,57.654z"/>
		</g>
	</g>
	<g>
		<g>
			<path class="st1" d="M25.1,16.329c-0.689,8.179-9.212,9.47-9.212,9.47c7.318,0.344,9.142,9.944,9.142,9.944     c0.156-6.844,9.422-10.045,9.422-10.045C27.511,25.283,25.1,16.329,25.1,16.329z"/>
		</g>
	</g>
	<g>
		<g>
			<path class="st0" d="M34.542,24.201c-5.744-0.344-7.956-8.126-7.994-8.263c-0.19-0.704-0.858-1.166-1.583-1.103     c-0.726,0.065-1.299,0.643-1.36,1.368c-0.579,6.87-7.646,8.066-7.942,8.113c-0.763,0.115-1.313,0.79-1.273,1.561     c0.04,0.77,0.657,1.384,1.428,1.421c6.035,0.284,7.724,8.644,7.739,8.726c0.135,0.713,0.759,1.22,1.472,1.22     c0.042,0,0.083-0.001,0.125-0.005c0.765-0.063,1.358-0.694,1.376-1.461c0.13-5.709,8.331-8.634,8.412-8.662     c0.676-0.234,1.094-0.913,0.996-1.622C35.841,24.786,35.256,24.244,34.542,24.201z M24.958,30.996     c-0.924-1.885-2.34-3.947-4.447-5.28c1.855-1.041,3.697-2.629,4.871-4.916c1.057,1.874,2.654,3.955,4.941,5.224     C28.472,27.125,26.333,28.764,24.958,30.996z"/>
		</g>
	</g>
	<g>
		<g>
			<rect x="121.895" y="78.62" class="st4" width="10" height="156"/>
		</g>
	</g>
	<g>
		<g>
			<path class="st0" d="M131.895,77.121h-10c-0.829,0-1.5,0.671-1.5,1.5v156c0,0.828,0.671,1.5,1.5,1.5h10     c0.829,0,1.5-0.672,1.5-1.5v-156C133.395,77.792,132.724,77.121,131.895,77.121z M130.395,233.12h-7v-153h7V233.12z"/>
		</g>
	</g>
	<g>
		<g>
			<path class="st4" d="M200.395,229.62h-146c-2.761,0-5,2.239-5,5s2.239,5,5,5h146c2.761,0,5-2.239,5-5     S203.156,229.62,200.395,229.62z"/>
		</g>
	</g>
	<g>
		<g>
			<path class="st0" d="M200.395,228.12h-25.941c-0.829,0-1.5,0.672-1.5,1.5s0.671,1.5,1.5,1.5h25.941c1.93,0,3.5,1.57,3.5,3.5     s-1.57,3.5-3.5,3.5h-146c-1.93,0-3.5-1.57-3.5-3.5s1.57-3.5,3.5-3.5h104.941c0.829,0,1.5-0.672,1.5-1.5s-0.671-1.5-1.5-1.5     H54.395c-3.584,0-6.5,2.916-6.5,6.5s2.916,6.5,6.5,6.5h146c3.584,0,6.5-2.916,6.5-6.5S203.979,228.12,200.395,228.12z"/>
		</g>
	</g>
	<g>
		<g>
			<path class="st1" d="M185.582,178.37H68.207c-4.66,0-8.438,3.778-8.438,8.438v22.625c0,4.66,3.778,8.438,8.438,8.438h117.375     c4.66,0,8.438-3.778,8.438-8.438v-22.625C194.02,182.148,190.242,178.37,185.582,178.37z"/>
		</g>
	</g>
	<g>
		<g>
			<path class="st0" d="M185.583,176.87H68.208c-5.479,0-9.938,4.458-9.938,9.938v22.625c0,5.479,4.458,9.938,9.938,9.938h117.375     c5.479,0,9.938-4.458,9.938-9.938v-22.625C195.52,181.328,191.062,176.87,185.583,176.87z M192.52,209.433     c0,3.825-3.112,6.938-6.938,6.938H68.208c-3.825,0-6.938-3.112-6.938-6.938v-22.625c0-3.825,3.112-6.938,6.938-6.938h117.375     c3.825,0,6.938,3.112,6.938,6.938V209.433z"/>
		</g>
	</g>
	<g>
		<g>
			<path class="st2" d="M172.395,189.62h-60c-4.418,0-8,3.582-8,8s3.582,8,8,8h60c4.418,0,8-3.582,8-8     S176.813,189.62,172.395,189.62z"/>
		</g>
	</g>
	<g>
		<g>
			<path class="st0" d="M172.395,188.12h-60c-5.238,0-9.5,4.262-9.5,9.5s4.262,9.5,9.5,9.5h60c5.238,0,9.5-4.262,9.5-9.5     S177.633,188.12,172.395,188.12z M172.395,204.12h-60c-3.584,0-6.5-2.916-6.5-6.5s2.916-6.5,6.5-6.5h60     c3.584,0,6.5,2.916,6.5,6.5S175.979,204.12,172.395,204.12z"/>
		</g>
	</g>
	<g>
		<g>
			<circle class="st4" cx="82.395" cy="198.12" r="9"/>
		</g>
	</g>
	<g>
		<g>
			<path class="st0" d="M82.395,187.62c-5.789,0-10.5,4.71-10.5,10.5s4.711,10.5,10.5,10.5c5.79,0,10.5-4.71,10.5-10.5     S88.185,187.62,82.395,187.62z M82.395,205.62c-4.136,0-7.5-3.364-7.5-7.5s3.364-7.5,7.5-7.5c4.136,0,7.5,3.364,7.5,7.5     S86.531,205.62,82.395,205.62z"/>
		</g>
	</g>
	<g>
		<g>
			<path class="st1" d="M185.582,128.37H68.207c-4.66,0-8.438,3.778-8.438,8.438v22.625c0,4.66,3.778,8.438,8.438,8.438h117.375     c4.66,0,8.438-3.778,8.438-8.438v-22.625C194.02,132.148,190.242,128.37,185.582,128.37z"/>
		</g>
	</g>
	<g>
		<g>
			<path class="st0" d="M185.583,126.871H68.208c-5.479,0-9.938,4.458-9.938,9.937v22.625c0,5.479,4.458,9.938,9.938,9.938h117.375     c5.479,0,9.938-4.458,9.938-9.938v-22.625C195.52,131.328,191.062,126.871,185.583,126.871z M192.52,159.433     c0,3.825-3.112,6.938-6.938,6.938H68.208c-3.825,0-6.938-3.112-6.938-6.938v-22.625c0-3.825,3.112-6.938,6.938-6.938h117.375     c3.825,0,6.938,3.112,6.938,6.938V159.433z"/>
		</g>
	</g>
	<g>
		<g>
			<path class="st2" d="M172.395,139.62h-60c-4.418,0-8,3.582-8,8s3.582,8,8,8h60c4.418,0,8-3.582,8-8     S176.813,139.62,172.395,139.62z"/>
		</g>
	</g>
	<g>
		<g>
			<path class="st0" d="M172.395,138.12h-60c-5.238,0-9.5,4.262-9.5,9.5s4.262,9.5,9.5,9.5h60c5.238,0,9.5-4.262,9.5-9.5     S177.633,138.12,172.395,138.12z M172.395,154.12h-60c-3.584,0-6.5-2.916-6.5-6.5s2.916-6.5,6.5-6.5h60     c3.584,0,6.5,2.916,6.5,6.5S175.979,154.12,172.395,154.12z"/>
		</g>
	</g>
	<g>
		<g>
			<circle class="st4" cx="82.395" cy="148.12" r="9"/>
		</g>
	</g>
	<g>
		<g>
			<path class="st0" d="M82.395,137.62c-5.789,0-10.5,4.71-10.5,10.5s4.711,10.5,10.5,10.5c5.79,0,10.5-4.71,10.5-10.5     S88.185,137.62,82.395,137.62z M82.395,155.62c-4.136,0-7.5-3.364-7.5-7.5s3.364-7.5,7.5-7.5c4.136,0,7.5,3.364,7.5,7.5     S86.531,155.62,82.395,155.62z"/>
		</g>
	</g>
	<g>
		<g>
			<path class="st1" d="M185.582,78.37H68.207c-4.66,0-8.438,3.778-8.438,8.438v22.625c0,4.66,3.778,8.438,8.438,8.438h117.375     c4.66,0,8.438-3.778,8.438-8.438V86.808C194.02,82.148,190.242,78.37,185.582,78.37z"/>
		</g>
	</g>
	<g>
		<g>
			<path class="st0" d="M185.583,76.871h-80.128c-0.829,0-1.5,0.671-1.5,1.5s0.671,1.5,1.5,1.5h80.128     c3.825,0,6.938,3.112,6.938,6.938v22.625c0,3.825-3.112,6.938-6.938,6.938H68.208c-3.825,0-6.938-3.112-6.938-6.938V86.808     c0-3.825,3.112-6.938,6.938-6.938h22.128c0.829,0,1.5-0.671,1.5-1.5s-0.671-1.5-1.5-1.5H68.208c-5.479,0-9.938,4.458-9.938,9.938     v22.625c0,5.479,4.458,9.938,9.938,9.938h117.375c5.479,0,9.938-4.458,9.938-9.938V86.808     C195.52,81.329,191.062,76.871,185.583,76.871z"/>
		</g>
	</g>
	<g>
		<g>
			<path class="st2" d="M172.395,89.62h-60c-4.418,0-8,3.582-8,8s3.582,8,8,8h60c4.418,0,8-3.582,8-8S176.813,89.62,172.395,89.62z"/>
		</g>
	</g>
	<g>
		<g>
			<path class="st0" d="M172.395,88.121h-60c-5.238,0-9.5,4.262-9.5,9.5s4.262,9.5,9.5,9.5h60c5.238,0,9.5-4.262,9.5-9.5     S177.633,88.121,172.395,88.121z M172.395,104.121h-60c-3.584,0-6.5-2.916-6.5-6.5s2.916-6.5,6.5-6.5h60     c3.584,0,6.5,2.916,6.5,6.5S175.979,104.121,172.395,104.121z"/>
		</g>
	</g>
	<g>
		<g>
			<circle class="st4" cx="82.395" cy="98.12" r="9"/>
		</g>
	</g>
	<g>
		<g>
			<path class="st0" d="M82.395,87.621c-5.789,0-10.5,4.71-10.5,10.5s4.711,10.5,10.5,10.5c5.79,0,10.5-4.71,10.5-10.5     S88.185,87.621,82.395,87.621z M82.395,105.621c-4.136,0-7.5-3.364-7.5-7.5s3.364-7.5,7.5-7.5c4.136,0,7.5,3.364,7.5,7.5     S86.531,105.621,82.395,105.621z"/>
		</g>
	</g>
	<g>
		<g>
			<path class="st7" d="M213.075,96.96c-0.57-0.33-0.85-1-0.7-1.64c1-4.1,1.5-8.3,1.5-12.49c0-29.18-23.74-52.92-52.92-52.92     c-2.51,0-5,0.18-7.46,0.54c25.62,3.67,45.38,25.76,45.38,52.38c0,4.19-0.5,8.39-1.5,12.49c-0.15,0.64,0.13,1.31,0.7,1.64     c14.97,8.77,24.26,24.97,24.26,42.28c0,19.14-11.18,35.95-27.49,43.97c0.43,1.12,0.67,2.33,0.67,3.6v0.85     c23.73-3.49,41.82-24.07,41.82-48.42C237.335,121.93,228.045,105.73,213.075,96.96z"/>
		</g>
	</g>
</g>
</svg>
