<svg height="499pt" viewBox="0 -17 499 499" width="499pt" xmlns="http://www.w3.org/2000/svg"><path d="m122.109375 457.882812h-75.945313v-100.667968c0-11.042969 8.957032-20 20-20h35.945313c11.046875 0 20 8.957031 20 20zm0 0" fill="#ff4a73"/><path d="m232.351562 457.882812h-75.945312v-160.667968c0-11.042969 8.957031-20 20-20h35.945312c11.046876 0 20 8.957031 20 20zm0 0" fill="#44c7b6"/><path d="m342.59375 457.882812h-75.945312v-220.667968c0-11.046875 8.953124-20 20-20h35.945312c11.042969 0 20 8.953125 20 20zm0 0" fill="#f9d335"/><path d="m452.835938 457.882812h-75.945313v-280.667968c0-11.046875 8.953125-20 20-20h35.945313c11.042968 0 20 8.953125 20 20zm0 0" fill="#3193f3"/><path d="m96.160156 337.222656c-11.039062 0-20 8.9375-20 20v100.660156h-30v-100.660156c0-11.0625 8.960938-20 20-20zm0 0" fill="#f973a3"/><path d="m206.398438 277.222656c-11.039063 0-20 8.9375-20 20v160.660156h-30v-160.660156c0-11.0625 8.960937-20 20-20zm0 0" fill="#4bdbc3"/><path d="m316.640625 217.222656c-11.039063 0-20 8.9375-20 20v220.660156h-30v-220.660156c0-11.0625 8.960937-20 20-20zm0 0" fill="#f9e27d"/><path d="m426.878906 157.222656c-11.039062 0-20 8.9375-20 20v280.660156h-30v-280.660156c0-11.0625 8.960938-20 20-20zm0 0" fill="#35b1fc"/><g fill="#5f266d"><path d="m491 449.871094h-30.164062v-272.65625c0-15.441406-12.5625-28-28-28h-35.945313c-15.441406 0-28 12.558594-28 28v272.65625h-18.296875v-212.65625c0-15.441406-12.558594-28-28-28h-35.945312c-15.4375 0-28 12.558594-28 28v212.65625h-18.292969v-152.65625c0-15.441406-12.5625-28-28-28h-35.949219c-15.4375 0-28 12.558594-28 28v152.65625h-18.292969v-92.65625c0-15.441406-12.5625-28-28-28h-35.949219c-15.4375 0-28 12.558594-28 28v92.65625h-30.164062c-4.417969 0-8 3.582031-8 8 0 4.417968 3.582031 8 8 8h483c4.417969 0 8-3.582032 8-8 0-4.417969-3.582031-8-8-8zm-376.890625 0h-59.945313v-92.65625c0-6.617188 5.382813-12 12-12h35.945313c6.617187 0 12 5.382812 12 12zm110.242187 0h-59.945312v-152.65625c0-6.617188 5.382812-12 12-12h35.945312c6.617188 0 12 5.382812 12 12zm110.242188 0h-59.945312v-212.65625c0-6.617188 5.382812-12 12-12h35.945312c6.617188 0 12 5.382812 12 12zm110.242188 0h-59.945313v-272.65625c0-6.617188 5.382813-12 12-12h35.945313c6.617187 0 12 5.382812 12 12zm0 0"/><path d="m264.757812 51.625 64.085938-5.535156-226.007812 226.472656c-3.121094 3.128906-3.117188 8.195312.011718 11.316406 3.121094 3.113282 8.1875 3.121094 11.3125-.011718l225.957032-226.425782-5.53125 64.015625c-.910157 10.53125 15.019531 12.039063 15.941406 1.375l7.425781-85.914062c.429687-5.011719-3.882813-9.058594-8.660156-8.660157l-85.914063 7.425782c-10.511718.910156-9.191406 16.828125 1.378906 15.941406zm0 0"/><path d="m80.375 106.941406h33.503906c11.953125 0 21.675782 9.722656 21.675782 21.675782 0 11.949218-9.722657 21.675781-21.675782 21.675781h-44.671875c-5.792969 0-10.503906-4.714844-10.503906-10.507813 0-4.417968-3.582031-8-8-8-15.832031 0-7.339844 34.507813 18.503906 34.507813h19.921875v23.589843c0 4.417969 3.582032 8 8 8 4.417969 0 8-3.582031 8-8v-23.589843h8.75c20.773438 0 37.675782-16.902344 37.675782-37.675781 0-20.773438-16.898438-37.675782-37.675782-37.675782h-33.503906c-11.949219 0-21.671875-9.722656-21.671875-21.671875 0-11.953125 9.722656-21.675781 21.671875-21.675781h44.671875c5.796875 0 10.507813 4.710938 10.507813 10.507812 0 4.417969 3.582031 8 8 8 15.832031 0 7.339843-34.507812-18.507813-34.507812h-19.917969v-23.59375c0-4.417969-3.582031-8-8-8-4.417968 0-8 3.582031-8 8v23.589844h-8.753906c-20.773438 0-37.671875 16.902344-37.671875 37.675781s16.898437 37.675781 37.671875 37.675781zm0 0"/></g></svg>