<svg height="512pt" viewBox="-63 0 512 512.08284" width="512pt" xmlns="http://www.w3.org/2000/svg"><path d="m13.441406 368.683594 84.199219-48.601563c3.601563-2 8.199219-.800781 10.199219 2.800781l71.800781 124.398438c2 3.601562.800781 8.203125-2.800781 10.203125l-84 48.597656c-3.597656 2-8.199219.800781-10.199219-2.800781l-72-124.398438c-2-3.601562-.800781-8.199218 2.800781-10.199218zm0 0" fill="#60bae2"/><path d="m128.441406 313.28125-19.601562 11.203125 68.601562 118.796875 19.601563-11.199219c2.398437-1.398437 3.199219-4.398437 1.796875-6.597656l-63.796875-110.402344c-1.402344-2.398437-4.402344-3.199219-6.601563-1.800781zm0 0" fill="#e9e9ea"/><path d="m318.839844 233.683594c-4.398438-7.601563-14-10.199219-21.597656-5.800782l-26.199219 15.199219-49 28.402344-10-17.402344c-5.203125 1.199219-10.601563 2-16.203125 2.199219-3.597656 3-6.597656 6.800781-8.199219 11.402344-10.800781 22.199218.800781 24-49.398437 53l57.800781 100c29.597656-16.199219 37.398437-24 55.597656-27.800782 8.800781-2.199218 19-2.601562 32.199219-10.199218l77-44.402344c7.601562-4.398438 10.402344-14 6-21.597656-4.398438-7.601563-14-10.402344-21.597656-6 0 0-.199219.199218-.199219.199218 7.597656-4.398437 10-14.199218 5.597656-21.800781-4.398437-7.398437-14-10-21.597656-5.800781 7.597656-4.398438 10-14.199219 5.597656-21.796875-4.398437-7.402344-14-10-21.398437-5.800781 7.199218-4.800782 9.800781-14.402344 5.597656-22zm0 0" fill="#f9d0b4"/><path d="m271.042969 212.683594c-3 4.597656-6.402344 8.800781-10 12.800781l10 17.398437 20.796875-12-7.199219-12.601562c-3-4.597656-8.398437-7-13.597656-5.597656zm0 0" fill="#f9d0b4"/><path d="m58.640625 123.082031 49 85c21 36.402344 63.199219 54.800781 104 45.601563l10 17.398437 49-28.398437-10-17.402344c28.601563-30.796875 34-76.796875 12.800781-113.199219l-48.800781-85zm0 0" fill="#ffae2c"/><path d="m214.839844 144.082031c0 18.445313-14.953125 33.402344-33.398438 33.402344-18.445312 0-33.398437-14.957031-33.398437-33.402344 0-18.445312 14.953125-33.398437 33.398437-33.398437 18.445313 0 33.398438 14.953125 33.398438 33.398437zm0 0" fill="#fcd770"/><path d="m212.839844 7.882812-165 95.398438c-5.398438 3.203125-7.199219 10-4.199219 15.402344 3.199219 5.398437 10 7.199218 15.402344 4.199218l165.199219-95.398437c5.398437-3.203125 7.199218-10 4.199218-15.402344-3.199218-5.398437-10.199218-7.199219-15.601562-4.199219zm0 0" fill="#fcd770"/><path d="m133.242188 237.082031c-7.402344 1-15 .601563-22.199219-1.199219-20-4.800781-37.203125-17.601562-47.402344-35.601562l-24.199219-41.796875 29.601563-17.203125-10.402344-18.199219-33 19c-8.398437 4.800781-11.199219 15.402344-6.398437 23.800781l26 45c13.199218 23 35.199218 39.398438 61 45.601563 19.398437 4.398437 36.800781 2.398437 52-6.203125-9-3-17.402344-7.597656-25-13.199219zm0 0" fill="#ffae2c"/><path d="m257.242188 8.28125-32.601563 18.800781 10.601563 18.402344 29.199218-17 24.199219 42c10.402344 17.796875 13 39 7 58.796875-2 7-5.398437 13.601562-9.800781 19.402344 1.203125 9.597656.800781 19.199218-.796875 28.597656 14.796875-9 25.199219-23 31-41.796875 7.597656-25.402344 4.398437-52.800781-9-75.601563l-26-45c-5-8.398437-15.601563-11.398437-23.800781-6.601562zm0 0" fill="#ffae2c"/><path d="m286.242188 380.683594 47.199218-27.199219c5.398438-3.203125 12.199219-1.203125 15.398438 4.199219 3.203125 5.398437 1.203125 12.199218-4.199219 15.398437l-47.199219 27c-5.398437 3.199219-12.199218 1.199219-15.398437-4.199219-3-5.199218-1.203125-12.199218 4.199219-15.199218zm0 0" fill="#c1814c"/><path d="m363.640625 361.882812-85.199219 49.199219c-5.398437 3.199219-7.199218 10-4.199218 15.402344 3.199218 5.398437 10 7.199219 15.398437 4.199219l85.199219-49.199219c5.402344-3.203125 7.203125-10 4.203125-15.402344-3-5.398437-10-7.398437-15.402344-4.199219zm0 0" fill="#b26e3b"/><path d="m364.242188 17.882812c-8.800782-1.800781-15.800782-8.601562-17.601563-17.601562 0-.1992188-.199219-.398438-.398437-.1992188-.199219 0-.199219.1992188-.199219.1992188-1.800781 8.800781-8.601563 15.800781-17.601563 17.601562-.199218 0-.398437.199219-.199218.398438 0 .203125.199218.203125.199218.203125 8.800782 1.796875 15.800782 8.597656 17.601563 17.597656 0 .199219.199219.402344.398437.199219.199219 0 .199219-.199219.199219-.199219 1.800781-8.800781 8.601563-15.800781 17.601563-17.597656.199218 0 .398437-.203125.199218-.402344 0 0-.199218 0-.199218-.199219zm0 0" fill="#fcd770"/><path d="m50.839844 287.683594h-17.398438c-2.800781-.199219-4.800781-2.402344-4.800781-5.199219.199219-2.601563 2.199219-4.601563 4.800781-4.800781h17.398438c2.800781.199218 4.800781 2.398437 4.800781 5.199218-.199219 2.601563-2.199219 4.800782-4.800781 4.800782zm0 0" fill="#60bae2"/><path d="m42.042969 296.484375c-2.800781 0-5-2.203125-5-5v-17.402344c.199219-2.800781 2.398437-4.800781 5.199219-4.800781 2.597656.203125 4.597656 2.203125 4.800781 4.800781v17.402344c0 2.597656-2.203125 5-5 5zm0 0" fill="#60bae2"/><path d="m4.640625 312.882812c1.402344 0 2.601563.601563 3.601563 1.398438.199218.203125.398437.402344.597656.800781.203125.199219.402344.601563.402344.800781.199218.398438.199218.601563.199218 1 0 .398438.199219.601563 0 1v1c0 .398438-.199218.601563-.199218 1-.199219.398438-.199219.601563-.402344.800782-.199219.199218-.398438.597656-.597656.800781-1.402344 1.398437-3.601563 1.796875-5.402344 1-.199219-.203125-.597656-.203125-.796875-.402344-.203125-.199219-.601563-.398437-.800781-.597656-.199219-.203125-.402344-.402344-.601563-.800781-.199219-.199219-.398437-.601563-.398437-.800782-.1992192-.199218-.1992192-.601562-.1992192-1 0-.398437 0-.601562 0-1 0-.398437 0-.601562 0-1 0-.398437.1992192-.601562.1992192-1 .199218-.398437.199218-.601562.398437-.800781s.402344-.597656.601563-.800781c.199218-.199219.398437-.398438.800781-.597656.199219-.199219.597656-.402344.796875-.402344.402344-.199219.601562-.199219 1-.199219.203125 0 .402344-.199219.800781-.199219zm0 0" fill="#f75c64"/><path d="m229.839844 451.484375c1.402344 0 2.601562.597656 3.601562 1.398437.199219.199219.398438.398438.601563.800782.199219.199218.398437.597656.398437.800781.199219.398437.199219.597656.199219 1 0 .398437.199219.597656.199219 1 0 .398437 0 .597656-.199219 1 0 .398437-.199219.597656-.199219 1-.199218.398437-.199218.597656-.398437.796875-.203125.203125-.402344.601562-.601563.800781-1.398437 1.402344-3.601562 1.800781-5.398437 1-.203125-.199219-.601563-.199219-.800781-.398437-.199219-.199219-.601563-.402344-.800782-.601563-.199218-.199219-.398437-.398437-.601562-.800781-.199219-.199219-.398438-.597656-.398438-.796875-.199218-.203125-.199218-.601563-.199218-1 0-.402344 0-.601563-.199219-1 0-.402344 0-.601563.199219-1 0-.402344.199218-.601563.199218-1 .199219-.402344.199219-.601563.398438-.800781.203125-.199219.402344-.601563.601562-.800782.199219-.199218.398438-.398437.800782-.601562.199218-.199219.597656-.398438.800781-.398438.398437-.199218.597656-.199218 1-.199218 0-.199219.398437-.199219.796875-.199219zm0 0" fill="#231f20"/><path d="m371.640625 71.082031c1.402344 0 2.601563.601563 3.601563 1.402344.199218.199219.398437.398437.597656.796875.203125.203125.402344.601562.402344.800781.199218.402344.199218.601563.199218 1 0 .402344.199219.601563.199219 1 0 .402344 0 .601563-.199219 1 0 .402344-.199218.601563-.199218 1-.199219.402344-.199219.601563-.402344.800781-.199219.199219-.398438.601563-.597656.800782-1.402344 1.398437-3.601563 1.800781-5.402344 1-.199219-.199219-.597656-.199219-.796875-.402344-.203125-.199219-.601563-.398438-.800781-.597656-.199219-.199219-.402344-.402344-.601563-.800782-.199219-.199218-.398437-.601562-.398437-.800781-.199219-.199219-.199219-.597656-.199219-1 0-.398437 0-.597656-.203125-1 0-.398437 0-.597656.203125-1 0-.398437.199219-.597656.199219-1 .199218-.398437.199218-.597656.398437-.800781.199219-.199219.402344-.597656.601563-.796875.199218-.203125.398437-.402344.800781-.601563.199219-.199218.597656-.398437.796875-.398437.402344-.203125.601562-.203125 1-.203125 0-.199219.402344-.199219.800781-.199219zm0 0" fill="#6dcc6d"/><g fill="#231f20"><path d="m89.042969 512.082031c-4.402344 0-8.601563-2.398437-10.800781-6.199219l-71.800782-124.398437c-3.398437-6-1.398437-13.601563 4.601563-17l84.199219-48.601563c6-3.398437 13.597656-1.398437 17 4.601563l71.800781 124.398437c3.398437 6 1.398437 13.601563-4.601563 17l-84.199218 48.601563c-1.800782 1-4 1.597656-6.199219 1.597656zm12.199219-188c-.402344 0-.800782.199219-1.199219.402344l-84.203125 48.597656c-1.199219.601563-1.597656 2.199219-1 3.402344l71.800781 124.398437c.601563 1.199219 2.199219 1.601563 3.402344 1l84.199219-48.601562c1.199218-.597656 1.597656-2.199219 1-3.398438l-71.800782-124.398437c-.398437-1-1.199218-1.402344-2.199218-1.402344zm0 0"/><path d="m177.441406 448.484375c-1.800781 0-3.398437-1-4.398437-2.402344l-68.601563-118.800781c-1.398437-2.398438-.601562-5.398438 1.800782-6.796875l19.597656-11.203125c4.800781-2.796875 10.800781-1.199219 13.601562 3.601562l63.800782 110.398438c2.800781 4.800781 1.199218 10.800781-3.601563 13.601562l-19.597656 11.199219c-.800781 0-1.601563.402344-2.601563.402344zm-61.800781-122.203125 63.601563 110.203125 15.199218-8.800781-63.800781-110.199219zm0 0"/><path d="m252.042969 295.484375c-2.800781 0-5-2.203125-5-5 0-1.800781 1-3.402344 2.398437-4.402344l61-35.199219c2.398438-1.398437 5.398438-.601562 6.800782 1.800782 1.398437 2.398437.597656 5.398437-1.800782 6.800781l-61 35.199219c-.800781.597656-1.601562.800781-2.398437.800781zm0 0"/><path d="m267.839844 322.882812c-2.796875 0-5-2.199218-5-5 0-1.800781 1-3.398437 2.402344-4.398437l61-35.203125c2.398437-1.398438 5.398437-.597656 6.800781 1.800781 1.398437 2.402344.597656 5.402344-1.800781 6.800781l-61 35.199219c-.601563.601563-1.601563.800781-2.402344.800781zm0 0"/><path d="m283.640625 350.484375c-2.800781 0-5-2.203125-5-5 0-1.800781 1-3.402344 2.402344-4.402344l61-35.199219c2.398437-1.398437 5.398437-.601562 6.796875 1.800782 1.402344 2.398437.601562 5.398437-1.796875 6.800781l-61 35.199219c-.601563.597656-1.402344.800781-2.402344.800781zm0 0"/><path d="m291.839844 406.683594c-9 0-16.199219-7.199219-16.398438-16.199219 0-5.800781 3-11.203125 8.199219-14.203125l47.199219-27.199219c7.800781-4.398437 17.800781-1.800781 22.203125 6 4.398437 7.800781 1.796875 17.800781-6 22.199219l-47.203125 27.203125c-2.398438 1.398437-5.199219 2.199219-8 2.199219zm47.203125-49.800782c-1 0-2.203125.199219-3.203125.800782l-47.199219 27.199218c-3 1.800782-4 5.601563-2.199219 8.601563 1.800782 3 5.601563 4 8.601563 2.199219l47.199219-27.199219c3-1.800781 4-5.601563 2.199218-8.601563-.800781-1.398437-2.199218-2.398437-3.800781-3-.398437 0-1 0-1.597656 0zm0 0"/><path d="m284.242188 437.082031c-9 0-16.199219-7.199219-16.402344-16.199219 0-5.800781 3-11.199218 8.203125-14.199218l85.199219-49.199219c7.800781-4.402344 17.800781-1.800781 22.199218 6 4.398438 7.796875 1.800782 17.796875-6 22.199219l-85.199218 49.199218c-2.402344 1.601563-5.199219 2.199219-8 2.199219zm85.199218-71.800781c-1 0-2.199218.203125-3.199218.800781l-85.199219 49.199219c-3 1.800781-4 5.601562-2.203125 8.601562 1.800781 3 5.601562 4 8.601562 2.199219l85.199219-49.199219c3-1.800781 4-5.601562 2.199219-8.601562-1.199219-1.796875-3.199219-3-5.398438-3zm-5.800781-3.398438"/><path d="m53.441406 129.28125c-9 0-16.199218-7.199219-16.398437-16.199219 0-5.800781 3-11.199219 8.199219-14.199219l165.199218-95.398437c7.800782-4.402344 17.800782-1.800781 22.199219 6 2.199219 3.796875 2.800781 8.199219 1.601563 12.398437-1.199219 4.199219-3.800782 7.800782-7.601563 9.800782l-165.199219 95.398437c-2.398437 1.402344-5.199218 2.199219-8 2.199219zm162-117-165.199218 95.203125c-3 1.796875-4 5.597656-2.199219 8.597656 1.796875 3 5.597656 4 8.597656 2.199219l165.199219-95.398438c3-1.800781 4-5.601562 2.203125-8.601562-1.800781-3-5.601563-3.796875-8.601563-2zm0 0"/><path d="m195.839844 425.28125c-1.796875 0-3.398438-1-4.398438-2.398438l-57.800781-100c-1.398437-2.398437-.597656-5.398437 1.800781-6.800781 37-21.398437 38.601563-26.800781 42.199219-37.597656 1.402344-4.601563 3.199219-9 5.199219-13.203125v-.199219l.203125-.199219c2-5 5.199219-9.398437 9.398437-12.601562.800782-.597656 1.800782-1 2.800782-1 5.199218-.199219 10.199218-1 15.199218-2 2.199219-.398438 4.398438.402344 5.398438 2.402344l7.601562 13.199218 70.800782-41c10-5.800781 22.800781-2.398437 28.398437 7.601563 2.800781 4.796875 3.601563 10.398437 2 15.796875-.199219.601562-.398437 1-.398437 1.601562 11.398437 2 18.800781 13 16.800781 24.199219-.203125 1-.402344 2.199219-.800781 3.199219 11.398437 2 18.800781 13 16.800781 24.203125-.203125.597656-.203125 1-.402344 1.597656-.199219.601563-.398437 1-.398437 1.601563 11.398437 2 18.800781 13 16.800781 24.398437-1.203125 6-4.800781 11.199219-10 14.199219l-77 44.402344c-8.402344 4.597656-17.402344 7.800781-26.800781 9.398437-2.402344.402344-4.402344.800781-6.601563 1.402344h-.199219c-11.601562 2.398437-18.800781 6.796875-31.800781 14.398437-5.800781 3.398438-13.199219 7.800782-22.398437 13-.800782.199219-1.601563.398438-2.402344.398438zm-51-103.199219 52.800781 91.402344c7-4 12.800781-7.402344 17.800781-10.402344 13.398438-8 21.398438-12.800781 34.601563-15.597656 2.199219-.601563 4.597656-1 7-1.601563 8.398437-1.199218 16.398437-4 23.796875-8.199218l77-44.402344c5.203125-3 7-9.597656 4.203125-14.796875-2.800781-5.203125-9.601563-7-14.800781-4.203125 0 0-.199219 0-.199219.203125-2.402344 1.398437-5.402344.597656-6.800781-1.800781-1.402344-2.402344-.601563-5.402344 1.800781-6.800782 5.199219-3 6.796875-9.800781 3.796875-14.800781s-9.398438-6.800781-14.597656-4c-2.402344 1.402344-5.402344.601563-6.800782-1.800781-1.398437-2.398438-.601562-5.398438 1.800782-6.796875 5.199218-3.203125 6.800781-9.800781 3.597656-15-3-5-9.398438-6.601563-14.398438-3.800781-2.398437 1.398437-5.398437.597656-6.800781-1.800782-1.398437-2.398437-.597656-5.398437 1.800781-6.800781 5.199219-3 7-9.597656 3.800782-14.800781-3-5.199219-9.601563-7-14.800782-4l-75.199218 43.402344c-2.402344 1.398437-5.402344.597656-6.800782-1.800782l-8.199218-14.398437c-3.800782.796875-7.800782 1.199219-11.601563 1.398437-2.398437 2.199219-4.199219 4.800782-5.398437 7.800782-.199219.398437-.199219.597656-.402344.800781-1.796875 3.796875-3.398438 7.796875-4.597656 12-4.199219 13.199219-7.800782 20.199219-42.402344 40.597656zm0 0"/><path d="m270.839844 247.882812c-1.796875 0-3.398438-1-4.398438-2.398437l-10-17.402344c-1-2-.800781-4.398437.601563-6 3.597656-3.800781 6.796875-7.800781 9.597656-12.199219.601563-1 1.800781-1.800781 3-2.199218 7.402344-1.800782 15.199219 1.398437 19 8l7.199219 12.597656c1.402344 2.402344.601562 5.402344-1.796875 6.800781l-20.800781 12c-.601563.601563-1.402344.800781-2.402344.800781zm-3.796875-21.601562 5.796875 9.800781 12-7-4.796875-8.398437c-1.203125-2.199219-3.601563-3.601563-6.203125-3.402344-2 3.203125-4.398438 6-6.796875 9zm0 0"/><path d="m221.839844 276.28125c-1.796875 0-3.398438-1-4.398438-2.398438l-8.199218-14.398437c-42 8-84.601563-11.601563-106-48.800781l-49-85.199219c-1.402344-2.402344-.601563-5.402344 1.800781-6.800781l166-95.800782c2.398437-1.398437 5.398437-.601562 6.796875 1.800782l49.203125 85.199218c21.597656 37.199219 17.199219 84-11 116.398438l8.199219 14.203125c1.398437 2.398437.597656 5.398437-1.800782 6.796875l-49 28.402344c-.800781.398437-1.601562.597656-2.601562.597656zm-10-27.597656c1.800781 0 3.402344 1 4.402344 2.398437l7.597656 13.199219 40.402344-23.398438-7.601563-12.800781c-1-2-.800781-4.398437.601563-6 27.398437-29.199219 32.398437-72.800781 12.199218-107.398437l-46.601562-80.601563-157.398438 90.800781 46.601563 80.800782c19.796875 34.597656 59.796875 52.199218 98.597656 43.199218.402344 0 .800781-.199218 1.199219-.199218zm0 0"/><path d="m125.441406 263.882812c-6.800781 0-13.800781-.800781-20.398437-2.398437-27-6.402344-50.402344-23.800781-64.203125-48l-26-45c-6.199219-10.800781-2.597656-24.402344 8.203125-30.601563l33-19c2.398437-1.398437 5.398437-.601562 6.796875 1.800782l10.601562 18.398437c1.398438 2.402344.601563 5.402344-1.800781 6.800781l-25.398437 14.601563 21.597656 37.398437c9.601562 16.601563 25.402344 28.601563 44.203125 33.199219 6.597656 1.601563 13.597656 2 20.398437 1 1.398438-.199219 2.601563.199219 3.800782 1 7.199218 5.402344 15.199218 9.601563 23.800781 12.800781 2.597656 1 4 3.800782 3 6.398438-.402344 1.203125-1.203125 2-2.203125 2.601562-10.796875 6-23 9-35.398438 9zm-68.800781-134-28.597656 16.601563c-6 3.398437-8 11-4.601563 17l26 45c12.398438 21.796875 33.398438 37.398437 57.800782 43.199219 12.597656 3.199218 26 2.800781 38.398437-1.199219-4.800781-2.402344-9.398437-5.203125-13.800781-8.402344-7.398438.800781-14.796875.199219-22-1.398437-21.398438-5.199219-39.597656-18.800782-50.597656-38l-24-41.601563c-1.402344-2.398437-.601563-5.398437 1.800781-6.800781l25.398437-14.597656zm0 0"/><path d="m285.042969 182.28125c-2.800781 0-5-2.199219-5-5 0-.199219 0-.597656 0-.796875 1.597656-9 1.796875-18 .796875-27.203125-.199219-1.398438.203125-2.597656 1-3.796875 4-5.402344 7-11.402344 9-17.800781 5.402344-18.402344 3-38.199219-6.597656-54.800782l-21.601563-37.398437-25 14.398437c-2.398437 1.398438-5.398437.601563-6.800781-1.800781l-10.597656-18.398437c-1.402344-2.402344-.601563-5.402344 1.800781-6.800782l32.597656-18.800781c10.800781-6.199219 24.402344-2.597656 30.601563 8.199219l26 45c14 24 17.398437 52.800781 9.398437 79.601562-6.199219 20-17.199219 35-33.199219 44.601563-.601562.398437-1.398437.796875-2.398437.796875zm6-32.199219c.597656 5.402344.597656 10.800781.398437 16.402344 9.398438-8.800781 16.398438-20 19.800782-32.402344 7.199218-24 4-50-8.601563-71.597656l-26-45.203125c-3.398437-6-11-8-17-4.597656l-28.199219 16.199218 5.601563 9.601563 25-14.402344c2.398437-1.398437 5.398437-.597656 6.796875 1.800781l24.203125 41.800782c11 19 13.796875 41.597656 7.597656 62.800781-2.199219 7.199219-5.398437 13.597656-9.597656 19.597656zm-33.800781-141.800781"/><path d="m181.441406 182.484375c-21.199218 0-38.398437-17.203125-38.398437-38.402344s17.199219-38.398437 38.398437-38.398437c13.800782 0 26.398438 7.398437 33.398438 19.199218 10.601562 18.398438 4.402344 41.800782-14 52.398438-6 3.402344-12.597656 5.203125-19.398438 5.203125zm-.199218-67c-15.800782 0-28.402344 12.796875-28.402344 28.398437 0 15.800782 12.800781 28.398438 28.402344 28.398438 15.800781 0 28.398437-12.796875 28.398437-28.398438 0-5-1.398437-9.800781-3.800781-14.199218-3.796875-6.601563-10-11.402344-17.199219-13.199219-2.398437-.601563-4.800781-1-7.398437-1zm0 0"/><path d="m199.242188 202.484375c-2.800782 0-5-2.203125-5-5 0-1.800781 1-3.402344 2.398437-4.402344l19.402344-11.199219c2.398437-1.398437 5.398437-.601562 6.796875 1.800782 1.402344 2.398437.601562 5.398437-1.796875 6.800781l-19.402344 11.199219c-.597656.597656-1.398437.800781-2.398437.800781zm0 0"/></g></svg>