<?xml version="1.0" encoding="utf-8"?>
<!-- Generator: Adobe Illustrator 22.0.1, SVG Export Plug-In . SVG Version: 6.00 Build 0)  -->
<svg xmlns="http://www.w3.org/2000/svg" xmlns:xlink="http://www.w3.org/1999/xlink" version="1.1" id="Layer_1" x="0px" y="0px" viewBox="0 0 256 256" style="enable-background:new 0 0 256 256;" xml:space="preserve" width="512" height="512">
<style type="text/css">
	.st0{fill:#3A312A;}
	.st1{fill:#D7E057;}
	.st2{fill:#F16C7A;}
	.st3{fill:#FCE8CB;}
	.st4{fill:#87796F;}
	.st5{fill:#8AC6DD;}
	.st6{fill:#CE4E61;}
	.st7{fill:#6CA8BF;}
	.st8{fill:#B9C239;}
	.st9{fill:#DECAAD;}
	.st10{fill:#695B51;}
	.st11{fill-rule:evenodd;clip-rule:evenodd;fill:#FCE8CB;}
	.st12{fill:#F5978A;}
	.st13{fill:#68A8BC;}
	.st14{fill:#B9BC39;}
	.st15{fill:#6B5B51;}
	.st16{fill:#D34E5C;}
	.st17{fill-rule:evenodd;clip-rule:evenodd;fill:#87796F;}
	.st18{fill-rule:evenodd;clip-rule:evenodd;fill:#F16C7A;}
</style>
<g>
	<g>
		<g>
			<path class="st1" d="M47.943,31.271C46.97,42.834,34.919,44.66,34.919,44.66c10.346,0.487,12.925,14.059,12.925,14.059     c0.221-9.677,13.321-14.202,13.321-14.202C51.352,43.93,47.943,31.271,47.943,31.271z"/>
		</g>
	</g>
	<g>
		<g>
			<path class="st0" d="M61.255,43.02c-8.605-0.515-11.832-12.024-11.864-12.141c-0.19-0.702-0.848-1.165-1.583-1.102     c-0.725,0.066-1.298,0.642-1.359,1.367c-0.86,10.215-11.313,11.964-11.754,12.033c-0.763,0.115-1.313,0.79-1.273,1.561     c0.04,0.77,0.657,1.384,1.428,1.421c9.028,0.425,11.499,12.718,11.523,12.842c0.137,0.711,0.759,1.217,1.472,1.217     c0.041,0,0.084-0.001,0.126-0.005c0.764-0.064,1.357-0.693,1.375-1.459c0.194-8.509,12.191-12.777,12.313-12.819     c0.675-0.235,1.092-0.914,0.994-1.623C62.552,43.604,61.969,43.063,61.255,43.02z M47.689,53.365     c-1.357-3.13-3.709-6.907-7.587-8.876c2.931-1.405,6.409-3.913,8.202-8.272c1.551,3.071,4.199,6.88,8.333,8.722     C53.63,46.579,49.715,49.344,47.689,53.365z"/>
		</g>
	</g>
	<g>
		<g>
			<path class="st1" d="M26.245,48.251c-0.689,8.179-9.212,9.471-9.212,9.471c7.318,0.344,9.142,9.944,9.142,9.944     c0.156-6.845,9.422-10.046,9.422-10.046C28.655,57.205,26.245,48.251,26.245,48.251z"/>
		</g>
	</g>
	<g>
		<g>
			<path class="st0" d="M35.686,56.123c-5.766-0.345-7.972-8.186-7.994-8.265c-0.19-0.702-0.856-1.171-1.582-1.102     c-0.726,0.065-1.299,0.642-1.36,1.368c-0.579,6.871-7.646,8.067-7.942,8.114c-0.763,0.115-1.313,0.79-1.273,1.561     c0.04,0.77,0.657,1.384,1.427,1.421c6.035,0.284,7.724,8.644,7.739,8.726c0.135,0.712,0.759,1.22,1.472,1.22     c0.042,0,0.083-0.001,0.125-0.005c0.765-0.063,1.358-0.694,1.376-1.461c0.13-5.709,8.331-8.634,8.412-8.662     c0.676-0.234,1.094-0.913,0.996-1.622C36.985,56.708,36.4,56.166,35.686,56.123z M26.102,62.918     c-0.924-1.886-2.34-3.947-4.447-5.28c1.855-1.042,3.697-2.63,4.871-4.917c1.057,1.874,2.654,3.954,4.941,5.224     C29.616,59.046,27.477,60.686,26.102,62.918z"/>
		</g>
	</g>
	<g>
		<g>
			<path class="st1" d="M26.245,21.594c-0.689,8.179-9.212,9.47-9.212,9.47c7.318,0.344,9.142,9.944,9.142,9.944     c0.156-6.844,9.422-10.045,9.422-10.045C28.655,30.548,26.245,21.594,26.245,21.594z"/>
		</g>
	</g>
	<g>
		<g>
			<path class="st0" d="M35.685,29.465c-5.766-0.345-7.972-8.185-7.993-8.264c-0.19-0.702-0.856-1.164-1.582-1.102     c-0.726,0.065-1.299,0.642-1.36,1.368c-0.579,6.871-7.646,8.067-7.942,8.114c-0.763,0.115-1.314,0.79-1.273,1.561     c0.04,0.77,0.657,1.384,1.428,1.421c6.035,0.284,7.723,8.644,7.739,8.726c0.135,0.712,0.759,1.22,1.473,1.22     c0.041,0,0.083-0.001,0.125-0.005c0.765-0.063,1.358-0.694,1.376-1.461c0.13-5.709,8.332-8.634,8.412-8.662     c0.677-0.234,1.094-0.913,0.996-1.622C36.985,30.05,36.4,29.508,35.685,29.465z M26.102,36.261     c-0.924-1.886-2.34-3.947-4.447-5.28c1.855-1.041,3.697-2.63,4.871-4.916c1.057,1.874,2.654,3.954,4.941,5.223     C29.616,32.389,27.477,34.028,26.102,36.261z"/>
		</g>
	</g>
	<g>
		<g>
			<path class="st3" d="M223.974,102.271h-61.279c-5.931,0-10.736-4.805-10.736-10.736V56.561c0-11.976-9.709-21.686-21.672-21.686     c-5.988,0-11.406,2.423-15.327,6.344c-3.921,3.935-6.345,9.353-6.345,15.341v27.061c0,11.149-7.1,21.073-17.665,24.666     l-21.044,7.172c0.086,0.641,0.128,1.297,0.128,1.968v98.064c0,0.299-0.014,0.584-0.014,0.869l4.548,1.155     c22.042,5.603,44.684,8.483,67.424,8.626c0.185,0,0.357,0.014,0.542,0.014h52.881c8.498,0,15.384-6.886,15.384-15.384v-0.199     c0-8.498-6.886-15.384-15.384-15.384h10.522c8.497,0,15.384-6.886,15.384-15.384v-0.2c0-8.498-6.887-15.384-15.384-15.384h10.522     c8.498,0,15.384-6.887,15.384-15.384v-0.2c0-8.498-6.886-15.384-15.384-15.384h-17.508l0.014-0.014h25.008     c8.497,0,15.384-6.886,15.384-15.384v-0.2C239.358,109.158,232.472,102.271,223.974,102.271z"/>
		</g>
	</g>
	<g>
		<g>
			<path class="st0" d="M223.975,100.771h-61.279c-5.093,0-9.236-4.144-9.236-9.236V56.561c0-12.785-10.394-23.186-23.171-23.186     c-6.193,0-12.013,2.409-16.39,6.786c-4.373,4.389-6.782,10.213-6.782,16.4v27.061c0,10.518-6.69,19.859-16.649,23.246     l-21.044,7.171c-0.678,0.231-1.098,0.909-1.003,1.619c0.077,0.57,0.115,1.166,0.115,1.769v98.064     c0,0.139-0.003,0.274-0.007,0.409c-0.004,0.155-0.007,0.308-0.007,0.461c0,0.686,0.466,1.285,1.131,1.454l4.547,1.154     c22.071,5.611,44.878,8.529,67.794,8.672l0.211,0.006c0.109,0.004,0.217,0.008,0.33,0.008h12.284c0.829,0,1.5-0.671,1.5-1.5     s-0.671-1.5-1.5-1.5h-12.284l-0.211-0.006c-0.109-0.004-0.169-0.005-0.321-0.008c-22.664-0.142-45.229-3.029-67.065-8.58     l-3.403-0.864v-97.771c0-0.312-0.009-0.622-0.025-0.929l19.924-6.79c11.174-3.8,18.682-14.284,18.682-26.086V56.561     c0-5.387,2.098-10.459,5.905-14.281c3.808-3.808,8.875-5.905,14.267-5.905c11.123,0,20.171,9.055,20.171,20.186v34.974     c0,6.747,5.489,12.236,12.236,12.236h61.279c7.656,0,13.884,6.228,13.884,13.884v0.2c0,7.656-6.228,13.884-13.884,13.884h-25.008     c-0.398,0-0.793,0.172-1.075,0.454c-0.429,0.429-0.558,1.074-0.325,1.635c0.232,0.561,0.779,0.926,1.386,0.926h17.508     c7.656,0,13.884,6.229,13.884,13.884v0.2c0,7.656-6.228,13.884-13.884,13.884h-10.522c-0.829,0-1.5,0.671-1.5,1.5     s0.671,1.5,1.5,1.5c7.656,0,13.884,6.228,13.884,13.884v0.2c0,7.656-6.228,13.884-13.884,13.884h-10.522     c-0.829,0-1.5,0.671-1.5,1.5s0.671,1.5,1.5,1.5c7.656,0,13.884,6.228,13.884,13.884v0.2c0,7.656-6.228,13.884-13.884,13.884     h-25.504c-0.829,0-1.5,0.671-1.5,1.5s0.671,1.5,1.5,1.5h25.504c9.31,0,16.884-7.574,16.884-16.884v-0.2     c0-5.748-2.886-10.833-7.286-13.884h0.924c9.31,0,16.884-7.574,16.884-16.884v-0.2c0-5.748-2.886-10.833-7.286-13.884h0.924     c9.31,0,16.884-7.574,16.884-16.884v-0.2c0-5.824-2.964-10.969-7.463-14.005c8.416-0.95,14.977-8.111,14.977-16.777v-0.2     C240.858,108.346,233.284,100.771,223.975,100.771z"/>
		</g>
	</g>
	<g>
		<g>
			<path class="st5" d="M53.857,101.24H16.706v130.431h37.151c8.939,0,16.185-7.246,16.185-16.185v-98.061     C70.042,108.487,62.795,101.24,53.857,101.24z"/>
		</g>
	</g>
	<g>
		<g>
			<path class="st0" d="M53.856,99.74H16.706c-0.829,0-1.5,0.671-1.5,1.5v31.488c0,0.829,0.671,1.5,1.5,1.5     c0.829,0,1.5-0.671,1.5-1.5V102.74h35.651c8.097,0,14.685,6.588,14.685,14.685v98.061c0,8.097-6.588,14.685-14.685,14.685H18.206     v-81.853c0-0.829-0.671-1.5-1.5-1.5c-0.829,0-1.5,0.671-1.5,1.5v83.353c0,0.829,0.671,1.5,1.5,1.5h37.151     c9.752,0,17.685-7.934,17.685-17.685v-98.061C71.542,107.674,63.608,99.74,53.856,99.74z"/>
		</g>
	</g>
	<g>
		<g>
			<path class="st4" d="M43.374,192.412c-6.743,0-12.209,5.466-12.209,12.208c0,6.743,5.466,12.209,12.209,12.209     c6.743,0,12.209-5.466,12.209-12.209C55.582,197.878,50.116,192.412,43.374,192.412z"/>
		</g>
	</g>
	<g>
		<g>
			<path class="st0" d="M43.373,190.912c-7.559,0-13.708,6.149-13.708,13.708s6.15,13.708,13.708,13.708     c7.559,0,13.709-6.149,13.709-13.708S50.933,190.912,43.373,190.912z M43.373,215.329c-5.905,0-10.708-4.804-10.708-10.708     s4.804-10.708,10.708-10.708c5.905,0,10.709,4.804,10.709,10.708S49.278,215.329,43.373,215.329z"/>
		</g>
	</g>
	<g>
		<g>
			<path class="st9" d="M216.462,134.753h-15c7.65,0,13.88,6.23,13.88,13.88v0.2c0,7.66-6.23,13.89-13.88,13.89h-10.52     c-0.83,0-1.5,0.67-1.5,1.5c0,0.83,0.67,1.5,1.5,1.5c7.65,0,13.88,6.23,13.88,13.88v0.2c0,7.66-6.23,13.89-13.88,13.89h-10.53     c-0.82,0-1.5,0.67-1.5,1.5c0,0.82,0.68,1.5,1.5,1.5c7.66,0,13.89,6.22,13.89,13.88v0.2c0,7.65-6.23,13.88-13.89,13.88h15     c7.66,0,13.89-6.23,13.89-13.88v-0.2c0-7.66-6.23-13.88-13.89-13.88c-0.82,0-1.5-0.68-1.5-1.5c0-0.83,0.68-1.5,1.5-1.5h10.53     c7.65,0,13.88-6.23,13.88-13.89v-0.2c0-7.65-6.23-13.88-13.88-13.88c-0.83,0-1.5-0.67-1.5-1.5c0-0.83,0.67-1.5,1.5-1.5h10.52     c7.65,0,13.88-6.23,13.88-13.89v-0.2C230.342,140.983,224.112,134.753,216.462,134.753z"/>
		</g>
	</g>
	<g>
		<g>
			<path class="st9" d="M223.972,103.773h-15c7.66,0,13.89,6.23,13.89,13.88v0.2c0,7.66-6.23,13.89-13.89,13.89h15     c7.66,0,13.89-6.23,13.89-13.89v-0.2C237.862,110.003,231.632,103.773,223.972,103.773z"/>
		</g>
	</g>
</g>
</svg>
