<svg height="452pt" viewBox="-25 0 452 452.62975" width="452pt" xmlns="http://www.w3.org/2000/svg"><path d="m212.578125 162.089844c-3.679687.800781-7.5 1.21875-11.421875 1.21875-3.917969 0-7.738281-.417969-11.417969-1.21875l-20.601562 97.3125-6.230469 29.414062-26.210938 123.8125h128.921876zm0 0" fill="#87796f"/><path d="m268.554688 412.007812-53.042969-250.539062c-.167969-.78125-.636719-1.46875-1.308594-1.898438-.667969-.433593-1.480469-.585937-2.265625-.414062-7.03125 1.53125-14.535156 1.53125-21.566406 0-.777344-.167969-1.59375-.019531-2.265625.414062-.671875.433594-1.136719 1.117188-1.304688 1.898438l-20.601562 97.3125c-.34375 1.621094.691406 3.210938 2.3125 3.554688 1.621093.347656 3.214843-.691407 3.558593-2.3125l19.992188-94.441407c5.988281.964844 12.199219.964844 18.1875 0l51.664062 244.046875h-121.515624l25.445312-120.191406c.34375-1.621094-.691406-3.210938-2.3125-3.554688-1.613281-.351562-3.210938.691407-3.554688 2.3125l-26.214843 123.8125c-.1875.882813.035156 1.808594.605469 2.511719.570312.699219 1.425781 1.109375 2.332031 1.109375h128.917969c.90625 0 1.765624-.410156 2.332031-1.109375.570312-.703125.792969-1.625.605469-2.511719zm0 0" fill="#3a312a"/><path d="m255.839844 108.628906c0 30.203125-24.480469 54.683594-54.683594 54.683594-30.199219 0-54.683594-24.480469-54.683594-54.683594 0-30.199218 24.484375-54.683594 54.683594-54.683594 30.203125 0 54.683594 24.484376 54.683594 54.683594zm0 0" fill="#d7e057"/><path d="m201.15625 50.945312c-31.804688 0-57.683594 25.878907-57.683594 57.683594 0 31.808594 25.875 57.683594 57.683594 57.683594 31.804688 0 57.683594-25.875 57.683594-57.683594 0-31.804687-25.878906-57.683594-57.683594-57.683594zm0 109.367188c-28.496094 0-51.683594-23.183594-51.683594-51.683594 0-28.496094 23.1875-51.683594 51.683594-51.683594 28.5 0 51.683594 23.1875 51.683594 51.683594 0 28.5-23.183594 51.683594-51.683594 51.683594zm0 0" fill="#3a312a"/><path d="m130.125 127.859375c-5.175781-5.144531-8.023438-11.988281-8.023438-19.273437 0-7.261719 2.824219-14.082032 7.953126-19.203126 5.574218-5.566406 5.578124-14.59375.015624-20.164062-5.566406-5.574219-14.589843-5.578125-20.164062-.015625-10.523438 10.507813-16.320312 24.496094-16.320312 39.382813 0 14.933593 5.835937 28.960937 16.4375 39.496093 5.582031 5.554688 14.613281 5.527344 20.164062-.058593 2.765625-2.78125 4.144531-6.417969 4.144531-10.050782 0-3.664062-1.402343-7.328125-4.207031-10.113281zm0 0" fill="#f16c7a"/><path d="m132.242188 125.726562c-4.601563-4.574218-7.140626-10.660156-7.140626-17.144531 0-6.457031 2.511719-12.523437 7.074219-17.082031 3.261719-3.257812 5.0625-7.589844 5.066407-12.199219 0-4.609375-1.792969-8.945312-5.046876-12.207031-6.722656-6.730469-17.671874-6.738281-24.40625-.015625-11.09375 11.078125-17.199218 25.816406-17.199218 41.503906 0 15.742188 6.152344 30.523438 17.320312 41.628907 3.257813 3.238281 7.574219 5.015624 12.164063 5.015624h.054687c4.609375-.011718 8.9375-1.820312 12.1875-5.089843 3.234375-3.253907 5.015625-7.578125 5.015625-12.167969 0-4.628906-1.808593-8.976562-5.089843-12.242188zm-4.183594 20.175782c-2.121094 2.136718-4.945313 3.316406-7.949219 3.324218h-.035156c-2.996094 0-5.8125-1.160156-7.933594-3.273437-10.03125-9.96875-15.554687-23.242187-15.554687-37.371094 0-14.085937 5.484374-27.316406 15.441406-37.257812 2.195312-2.191407 5.074218-3.285157 7.957031-3.285157s5.769531 1.097657 7.964844 3.292969c2.125 2.128907 3.292969 4.957031 3.292969 7.960938-.003907 3.007812-1.175782 5.835937-3.304688 7.960937-5.695312 5.6875-8.835938 13.261719-8.835938 21.328125 0 8.089844 3.164063 15.691407 8.910157 21.398438 2.140625 2.128906 3.320312 4.964843 3.320312 7.984375 0 3-1.164062 5.820312-3.273437 7.9375zm0 0" fill="#3a312a"/><path d="m65.566406 189.917969c-21.753906-21.722657-33.734375-50.605469-33.734375-81.335938 0-30.683593 11.949219-59.539062 33.648438-81.25 5.566406-5.566406 5.5625-14.597656-.003907-20.164062-5.570312-5.566407-14.601562-5.5625-20.164062.003906-27.082031 27.097656-41.996094 63.113281-41.996094 101.410156 0 38.355469 14.949219 74.402344 42.097656 101.515625 5.574219 5.5625 14.601563 5.554688 20.164063-.015625 2.78125-2.785156 4.171875-6.429687 4.171875-10.078125-.003906-3.648437-1.398438-7.300781-4.183594-10.085937zm0 0" fill="#f16c7a"/><path d="m67.683594 187.796875c-21.183594-21.15625-32.851563-49.289063-32.851563-79.214844 0-29.882812 11.636719-57.984375 32.769531-79.128906 3.257813-3.261719 5.054688-7.59375 5.050782-12.207031 0-4.609375-1.796875-8.941406-5.058594-12.203125-6.730469-6.726563-17.679688-6.722657-24.40625.007812-27.648438 27.664063-42.871094 64.429688-42.871094 103.53125 0 39.15625 15.261719 75.960938 42.976563 103.636719 3.261719 3.253906 7.59375 5.046875 12.199219 5.046875h.011718c4.609375-.003906 8.941406-1.800781 12.199219-5.0625 3.253906-3.261719 5.046875-7.589844 5.046875-12.195313-.003906-4.613281-1.800781-8.949218-5.066406-12.210937zm-4.230469 20.164063c-2.121094 2.128906-4.949219 3.300781-7.953125 3.304687h-.007812c-3.003907 0-5.828126-1.167969-7.957032-3.292969-26.582031-26.539062-41.21875-61.839844-41.21875-99.390625 0-37.5 14.601563-72.757812 41.117188-99.289062 2.199218-2.195313 5.078125-3.292969 7.964844-3.292969 2.878906 0 5.761718 1.097656 7.957031 3.289062 2.128906 2.125 3.300781 4.953126 3.300781 7.960938 0 3.003906-1.167969 5.832031-3.296875 7.960938-22.265625 22.273437-34.527344 51.886718-34.527344 83.371093 0 31.53125 12.289063 61.167969 34.609375 83.460938 2.132813 2.125 3.304688 4.957031 3.304688 7.964843 0 3-1.167969 5.828126-3.292969 7.953126zm0 0" fill="#3a312a"/><path d="m97.472656 157.992188c-13.226562-13.1875-20.515625-30.734376-20.515625-49.410157 0-18.632812 7.261719-36.152343 20.4375-49.328125 5.566407-5.566406 5.574219-14.597656.003907-20.164062-5.570313-5.570313-14.59375-5.570313-20.164063-.003906-18.566406 18.5625-28.792969 43.246093-28.792969 69.496093 0 26.308594 10.265625 51.027344 28.898438 69.605469 5.578125 5.558594 14.605468 5.542969 20.164062-.03125 2.773438-2.78125 4.160156-6.425781 4.160156-10.066406 0-3.65625-1.398437-7.3125-4.191406-10.097656zm0 0" fill="#f16c7a"/><path d="m99.589844 155.867188c-12.660156-12.621094-19.632813-29.414063-19.632813-47.285157 0-17.832031 6.949219-34.597656 19.558594-47.207031 3.261719-3.257812 5.058594-7.59375 5.058594-12.203125s-1.796875-8.945313-5.054688-12.203125c-3.261719-3.261719-7.59375-5.058594-12.203125-5.058594-4.613281 0-8.945312 1.796875-12.203125 5.054688-19.132812 19.128906-29.671875 44.5625-29.671875 71.617187 0 27.109375 10.578125 52.582031 29.78125 71.726563 3.363282 3.351562 7.773438 5.023437 12.183594 5.023437 4.429688 0 8.855469-1.6875 12.222656-5.0625 3.246094-3.257812 5.035156-7.585937 5.035156-12.183593 0-4.617188-1.804687-8.957032-5.074218-12.21875zm-4.207032 20.167968c-4.386718 4.394532-11.527343 4.40625-15.925781.023438-18.0625-18.007813-28.015625-41.972656-28.015625-67.476563 0-25.449219 9.914063-49.375 27.914063-67.371093 2.128906-2.128907 4.953125-3.296876 7.960937-3.296876 3.003906 0 5.832032 1.167969 7.957032 3.296876 2.128906 2.125 3.296874 4.953124 3.296874 7.957031 0 3.011719-1.171874 5.835937-3.296874 7.964843-13.746094 13.742188-21.316407 32.015626-21.316407 51.449219 0 19.476563 7.597657 37.777344 21.394531 51.535157 2.136719 2.125 3.3125 4.957031 3.3125 7.96875 0 3.003906-1.167968 5.824218-3.28125 7.949218zm0 0" fill="#3a312a"/><path d="m292.410156 69.203125c-5.574218-5.566406-14.601562-5.558594-20.164062.011719-5.566406 5.570312-5.5625 14.597656.011718 20.164062 5.132813 5.121094 7.953126 11.941406 7.953126 19.203125 0 7.289063-2.847657 14.132813-8.019532 19.273438-2.804687 2.785156-4.207031 6.449219-4.207031 10.113281 0 3.632812 1.378906 7.269531 4.144531 10.050781 5.550782 5.585938 14.578125 5.613281 20.164063.058594 10.601562-10.535156 16.4375-24.5625 16.4375-39.496094-.003907-14.886719-5.800781-28.871093-16.320313-39.378906zm0 0" fill="#f16c7a"/><path d="m294.527344 67.078125c-6.738282-6.722656-17.6875-6.710937-24.40625.015625-3.257813 3.261719-5.050782 7.597656-5.046875 12.207031.003906 4.609375 1.800781 8.941407 5.066406 12.199219 4.558594 4.558594 7.070313 10.625 7.070313 17.082031 0 6.484375-2.535157 12.570313-7.136719 17.148438-3.285157 3.265625-5.09375 7.609375-5.09375 12.238281 0 4.59375 1.785156 8.914062 5.019531 12.167969 3.25 3.269531 7.578125 5.074219 12.1875 5.089843h.054688c4.589843 0 8.90625-1.78125 12.164062-5.015624 11.167969-11.101563 17.320312-25.886719 17.320312-41.628907 0-15.6875-6.109374-30.429687-17.199218-41.503906zm-4.351563 78.875c-2.132812 2.121094-4.921875 3.230469-7.96875 3.273437-3.007812-.007812-5.832031-1.1875-7.953125-3.320312-2.109375-2.121094-3.273437-4.941406-3.273437-7.9375 0-3.019531 1.179687-5.851562 3.324219-7.984375 5.742187-5.707031 8.90625-13.308594 8.90625-21.398437 0-8.0625-3.136719-15.640626-8.835938-21.328126-2.125-2.125-3.296875-4.953124-3.300781-7.960937 0-3.003906 1.167969-5.832031 3.292969-7.960937 2.195312-2.195313 5.078124-3.292969 7.964843-3.292969 2.878907 0 5.761719 1.09375 7.957031 3.285156 9.953126 9.941406 15.4375 23.171875 15.4375 37.257813 0 14.128906-5.523437 27.398437-15.550781 37.367187zm0 0" fill="#3a312a"/><path d="m357.003906 7.171875c-5.566406-5.566406-14.597656-5.570313-20.164062-.003906-5.570313 5.566406-5.574219 14.597656-.007813 20.164062 21.699219 21.710938 33.652344 50.566407 33.652344 81.25 0 30.730469-11.980469 59.613281-33.734375 81.335938-2.789062 2.785156-4.183594 6.4375-4.183594 10.085937 0 3.648438 1.386719 7.292969 4.167969 10.078125 5.566406 5.570313 14.589844 5.578125 20.164063.015625 27.148437-27.113281 42.101562-63.160156 42.101562-101.515625 0-38.296875-14.914062-74.3125-41.996094-101.410156zm0 0" fill="#f16c7a"/><path d="m359.121094 5.050781c-6.722656-6.726562-17.675782-6.734375-24.402344-.003906-3.261719 3.257813-5.058594 7.589844-5.058594 12.203125 0 4.609375 1.789063 8.945312 5.050782 12.203125 21.132812 21.144531 32.773437 49.25 32.773437 79.132813 0 29.921874-11.667969 58.054687-32.859375 79.210937-3.261719 3.261719-5.058594 7.597656-5.058594 12.210937 0 4.605469 1.792969 8.9375 5.042969 12.195313 3.367187 3.367187 7.792969 5.054687 12.214844 5.054687 4.414062 0 8.832031-1.679687 12.195312-5.039062 27.714844-27.675781 42.980469-64.480469 42.980469-103.636719 0-39.101562-15.226562-75.867187-42.878906-103.53125zm-4.34375 202.921875c-4.394532 4.390625-11.535156 4.378906-15.921875-.011718-2.121094-2.125-3.289063-4.953126-3.289063-7.953126 0-3.011718 1.171875-5.839843 3.296875-7.964843 22.324219-22.292969 34.617188-51.929688 34.617188-83.460938 0-31.484375-12.261719-61.09375-34.53125-83.371093-2.121094-2.128907-3.292969-4.957032-3.292969-7.960938.003906-3.007812 1.175781-5.835938 3.300781-7.960938 2.195313-2.191406 5.074219-3.289062 7.957031-3.289062 2.886719 0 5.769532 1.097656 7.964844 3.292969 26.515625 26.527343 41.117188 61.789062 41.117188 99.289062.003906 37.550781-14.636719 72.851563-41.21875 99.390625zm0 0" fill="#3a312a"/><path d="m325.082031 39.085938c-5.570312-5.566407-14.597656-5.566407-20.164062.003906-5.570313 5.566406-5.566407 14.597656 0 20.164062 13.179687 13.175782 20.4375 30.695313 20.4375 49.328125 0 18.675781-7.285157 36.222657-20.515625 49.410157-2.792969 2.785156-4.191406 6.441406-4.191406 10.09375 0 3.644531 1.386718 7.285156 4.160156 10.066406 5.558594 5.578125 14.589844 5.589844 20.164062.03125 18.632813-18.574219 28.898438-43.292969 28.898438-69.601563 0-26.25-10.222656-50.933593-28.789063-69.496093zm0 0" fill="#f16c7a"/><path d="m327.199219 36.96875c-6.726563-6.730469-17.675781-6.730469-24.40625 0-3.257813 3.257812-5.054688 7.59375-5.050781 12.203125 0 4.609375 1.792968 8.945313 5.054687 12.203125 12.613281 12.609375 19.554687 29.375 19.554687 47.207031 0 17.871094-6.96875 34.664063-19.628906 47.285157-3.273437 3.261718-5.074218 7.601562-5.074218 12.222656 0 4.601562 1.789062 8.925781 5.035156 12.183594 3.253906 3.265624 7.585937 5.066406 12.199218 5.074218h.027344c4.597656 0 8.925782-1.789062 12.183594-5.035156 19.203125-19.144531 29.777344-44.617188 29.777344-71.726562-.003906-27.058594-10.539063-52.492188-29.671875-71.617188zm-4.34375 139.09375c-2.125 2.117188-4.945313 3.285156-7.949219 3.285156h-.015625c-3.007813-.007812-5.832031-1.183594-7.957031-3.308594-2.117188-2.125-3.285156-4.949218-3.285156-7.949218 0-3.015625 1.175781-5.84375 3.308593-7.972656 13.796875-13.753907 21.394531-32.058594 21.394531-51.535157 0-19.433593-7.570312-37.707031-21.3125-51.449219-2.128906-2.125-3.296874-4.953124-3.296874-7.960937s1.167968-5.835937 3.292968-7.960937c2.199219-2.191407 5.078125-3.292969 7.964844-3.292969 2.882812 0 5.765625 1.101562 7.957031 3.292969 18 17.996093 27.910157 41.921874 27.910157 67.375 0 25.5-9.945313 49.464843-28.011719 67.476562zm0 0" fill="#3a312a"/><path d="m335.574219 412.628906h-268.832031c-12.75 0-23.085938 10.335938-23.085938 23.085938v13.914062h315v-13.914062c0-12.75-10.332031-23.085938-23.082031-23.085938zm0 0" fill="#87796f"/><path d="m335.574219 409.628906h-268.832031c-14.382813 0-26.085938 11.703125-26.085938 26.085938v13.914062c0 1.660156 1.34375 3 3 3h61.050781c1.65625 0 3-1.339844 3-3 0-1.65625-1.34375-3-3-3h-58.050781v-10.914062c0-11.074219 9.007812-20.085938 20.085938-20.085938h268.832031c11.074219 0 20.085937 9.011719 20.085937 20.085938v10.914062h-222.054687c-1.65625 0-3 1.34375-3 3 0 1.660156 1.34375 3 3 3h225.050781c1.65625 0 3-1.339844 3-3v-13.914062c0-14.382813-11.703125-26.085938-26.082031-26.085938zm0 0" fill="#3a312a"/><path d="m91.953125 274.917969c-1.949219 23.128906-26.046875 26.78125-26.046875 26.78125 20.691406.972656 25.847656 28.117187 25.847656 28.117187.441406-19.351562 26.644532-28.402344 26.644532-28.402344-19.628907-1.175781-26.445313-26.496093-26.445313-26.496093zm0 0" fill="#d7e057"/><path d="m118.574219 298.417969c-17.210938-1.027344-23.664063-24.046875-23.726563-24.28125-.378906-1.402344-1.703125-2.324219-3.167968-2.199219-1.449219.128906-2.59375 1.28125-2.71875 2.730469-1.71875 20.433593-22.625 23.929687-23.507813 24.066406-1.523437.230469-2.625 1.578125-2.542969 3.121094.078125 1.539062 1.3125 2.769531 2.851563 2.839843 18.058593.851563 23 25.4375 23.046875 25.6875.273437 1.421876 1.519531 2.433594 2.945312 2.433594.082032 0 .167969-.003906.25-.011718 1.527344-.125 2.714844-1.386719 2.75-2.917969.390625-17.019531 24.382813-25.554688 24.625-25.640625 1.351563-.46875 2.183594-1.828125 1.988282-3.246094-.199219-1.414062-1.367188-2.496094-2.792969-2.582031zm-27.132813 20.691406c-2.710937-6.257813-7.417968-13.8125-15.171875-17.75 5.863281-2.8125 12.816407-7.828125 16.402344-16.546875 3.101563 6.140625 8.402344 13.761719 16.667969 17.441406-6.015625 3.28125-13.84375 8.8125-17.898438 16.855469zm0 0" fill="#3a312a"/><path d="m48.554688 308.882812c-1.378907 16.355469-18.421876 18.941407-18.421876 18.941407 14.632813.6875 18.28125 19.886719 18.28125 19.886719.3125-13.6875 18.84375-20.089844 18.84375-20.089844-13.882812-.832032-18.703124-18.738282-18.703124-18.738282zm0 0" fill="#d7e057"/><path d="m67.4375 324.625c-11.53125-.6875-15.945312-16.371094-15.988281-16.527344-.378907-1.402344-1.707031-2.328125-3.164063-2.203125-1.453125.132813-2.597656 1.285157-2.71875 2.738281-1.160156 13.742188-15.296875 16.132813-15.886718 16.226563-1.523438.230469-2.625 1.582031-2.542969 3.121094.078125 1.539062 1.3125 2.769531 2.855469 2.839843 12.070312.570313 15.445312 17.289063 15.476562 17.453126.269531 1.425781 1.519531 2.441406 2.945312 2.441406.082032 0 .164063-.003906.25-.011719 1.527344-.125 2.714844-1.386719 2.75-2.921875.261719-11.417969 16.664063-17.265625 16.828126-17.324219 1.351562-.46875 2.1875-1.824219 1.992187-3.242187-.199219-1.421875-1.367187-2.503906-2.796875-2.589844zm-19.167969 13.589844c-1.847656-3.769532-4.679687-7.894532-8.894531-10.558594 3.710938-2.082031 7.394531-5.257812 9.738281-9.832031 2.117188 3.746093 5.308594 7.90625 9.882813 10.445312-3.695313 2.203125-7.976563 5.480469-10.726563 9.945313zm0 0" fill="#3a312a"/><path d="m48.554688 255.566406c-1.378907 16.355469-18.421876 18.9375-18.421876 18.9375 14.632813.691406 18.28125 19.890625 18.28125 19.890625.3125-13.6875 18.84375-20.089843 18.84375-20.089843-13.882812-.832032-18.703124-18.738282-18.703124-18.738282zm0 0" fill="#d7e057"/><path d="m67.4375 271.308594c-11.480469-.683594-15.902344-16.226563-15.988281-16.523438-.378907-1.40625-1.699219-2.332031-3.164063-2.207031-1.453125.132813-2.597656 1.285156-2.71875 2.734375-1.160156 13.742188-15.296875 16.132812-15.886718 16.226562-1.523438.230469-2.625 1.582032-2.542969 3.121094.078125 1.539063 1.3125 2.769532 2.855469 2.839844 12.070312.570312 15.445312 17.289062 15.476562 17.453125.269531 1.425781 1.519531 2.441406 2.945312 2.441406.082032 0 .167969-.003906.25-.011719 1.53125-.125 2.71875-1.386718 2.753907-2.921874.257812-11.417969 16.664062-17.265626 16.824219-17.324219 1.351562-.46875 2.1875-1.824219 1.992187-3.242188-.199219-1.414062-1.367187-2.5-2.796875-2.585937zm-19.167969 13.589844c-1.847656-3.769532-4.679687-7.894532-8.894531-10.558594 3.710938-2.082032 7.394531-5.257813 9.738281-9.832032 2.117188 3.746094 5.3125 7.910157 9.882813 10.449219-3.695313 2.199219-7.976563 5.480469-10.726563 9.941407zm0 0" fill="#3a312a"/><path d="m210.257812 165.589844c-1.421874.222656-2.859374.382812-4.300781.5-.179687.023437-.339843.042968-.5.042968-1.421875.097657-2.859375.179688-4.300781.179688-1.4375 0-2.878906-.082031-4.300781-.179688-.160157 0-.320313-.019531-.5-.042968-1.4375-.117188-2.878907-.277344-4.296875-.5l-5.902344 27.882812 45.761719 216.160156h30zm0 0" fill="#695b51"/><path d="m335.578125 415.632812h-30c11.078125 0 20.078125 9 20.078125 20.078126v10.921874h30v-10.921874c0-11.078126-9-20.078126-20.078125-20.078126zm0 0" fill="#695b51"/><path d="m201.15625 56.953125c-5.21875 0-10.257812.777344-15 2.21875 21.21875 6.441406 36.679688 26.179687 36.679688 49.460937 0 23.277344-15.460938 43.019532-36.679688 49.457032 4.742188 1.441406 9.78125 2.222656 15 2.222656 28.5 0 51.679688-23.179688 51.679688-51.679688s-23.179688-51.679687-51.679688-51.679687zm0 0" fill="#b9c239"/></svg>