<svg height="512pt" viewBox="0 -23 512 512" width="512pt" xmlns="http://www.w3.org/2000/svg"><path d="m249.398438 279.683594h-12v26.597656h24v-14.597656c0-6.601563-5.398438-12-12-12zm0 0" fill="#f9d0b4"/><path d="m283.601562 353.882812c0-8.800781-7-15.800781-15.800781-15.800781 8.800781 0 15.800781-7 15.800781-15.800781 0-8.796875-7-15.796875-15.800781-15.796875h-86.800781v-26.601563h-11.199219c-6 0-11.800781 2.199219-16.601562 6-20.398438 13.800782-11.398438 21.199219-69.199219 21.199219v115.402344c33.601562.796875 44.398438-2 62 3.597656 8.800781 2.402344 17.800781 7.199219 33 7.199219h88.800781c8.800781 0 15.800781-7 15.800781-15.796875 0-8.800781-7-15.800781-15.800781-15.800781 8.800781 0 15.800781-7 15.800781-15.800782 0-8.800781-7-15.800781-15.800781-15.800781 8.597657-.398437 15.800781-7.597656 15.800781-16.199219zm0 0" fill="#f9d0b4"/><path d="m79 295.882812h-22.601562v137.199219h22.601562c2.601562 0 4.800781-2.199219 4.800781-4.800781v-127.398438c.199219-2.800781-2-5-4.800781-5zm0 0" fill="#e9e9ea"/><path d="m9.800781 286.28125h41.800781c2.597657 0 4.796876 2.203125 4.796876 4.800781v148.800781c0 2.601563-2.199219 4.800782-4.796876 4.800782h-41.800781c-2.601562 0-4.800781-2.199219-4.800781-4.800782v-148.800781c0-2.597656 2.199219-4.800781 4.800781-4.800781zm0 0" fill="#60bae2"/><path d="m181 260.082031h56.601562v46.199219h-56.601562zm0 0" fill="#e9e9ea"/><path d="m181 433.082031c0 15.601563 12.800781 28.199219 28.199219 28.199219 15.601562 0 28.199219-12.597656 28.199219-28.199219zm0 0" fill="#e9e9ea"/><path d="m433.398438 175.082031h-5.398438v40.402344h5.398438c11.203124 0 20.203124-9 20.203124-20.203125 0-11.199219-9-20.199219-20.203124-20.199219zm0 0" fill="#fcd770"/><path d="m265 130.484375h-95.398438c-35.800781 0-64.800781 29-64.800781 64.796875 0 35.800781 29 64.800781 64.800781 64.800781h95.199219zm0 0" fill="#6d6c6b"/><path d="m414.199219 49.683594c-7.597657 0-13.800781 6.199218-13.800781 13.800781v264c0 7.597656 6.203124 13.796875 13.800781 13.796875 7.601562 0 13.800781-6.199219 13.800781-13.796875v-264c0-7.800781-6.199219-13.800781-13.800781-13.800781zm0 0" fill="#f75c64"/><path d="m265 130.484375v129.597656l135.601562 65.800781v-261zm0 0" fill="#e9e9ea"/><path d="m350.601562 17.882812c-8.800781-1.800781-15.800781-8.601562-17.601562-17.601562 0-.1992188-.199219-.398438-.398438-.1992188-.203124 0-.203124.1992188-.203124.1992188-1.796876 8.800781-8.597657 15.800781-17.597657 17.601562-.199219 0-.402343.199219-.199219.398438 0 .203125.199219.203125.199219.203125 8.800781 1.796875 15.800781 8.597656 17.597657 17.597656 0 .199219.203124.402344.402343.199219.199219 0 .199219-.199219.199219-.199219 1.800781-8.800781 8.601562-15.800781 17.601562-17.597656.199219 0 .398438-.203125.199219-.402344.199219-.199219 0-.199219-.199219-.199219zm0 0" fill="#60bae2"/><path d="m345.800781 358.082031h-17.402343c-2.796876 0-5-2.199219-5-5s2.203124-5 5-5h17.402343c2.800781 0 5 2.199219 5 5s-2.199219 5-5 5zm0 0" fill="#fcd770"/><path d="m337.199219 366.683594c-2.800781 0-5-2.199219-5-5v-17.402344c0-2.796875 2.199219-5 5-5s5 2.203125 5 5v17.402344c0 2.800781-2.199219 5-5 5zm0 0" fill="#fcd770"/><path d="m367.199219 403.082031c-1.398438 0-2.597657-.597656-3.597657-1.398437-.203124-.199219-.402343-.402344-.601562-.800782-.199219-.199218-.398438-.601562-.398438-.800781-.203124-.199219-.203124-.597656-.203124-1 0-.398437-.199219-.597656-.199219-1 0-.398437 0-.597656.199219-1 0-.398437.203124-.597656.203124-1 .199219-.398437.199219-.597656.398438-.800781.199219-.199219.398438-.597656.601562-.796875 1.398438-1.402344 3.597657-1.800781 5.398438-1 .199219.199219.601562.199219.800781.398437.199219.199219.597657.398438.800781.601563.199219.199219.398438.398437.597657.796875.199219.203125.402343.601562.402343.800781.199219.199219.199219.601563.199219 1 0 .402344 0 .601563.199219 1 0 .402344 0 .601563-.199219 1 0 .402344-.199219.601563-.199219 1-.203124.402344-.203124.601563-.402343.800781-.199219.199219-.398438.601563-.597657.800782-.203124.199218-.402343.398437-.800781.597656-.199219.203125-.601562.402344-.800781.402344-.398438.199218-.601562.199218-1 .199218-.199219.199219-.601562.199219-.800781.199219zm0 0" fill="#6dcc6d"/><path d="m285.398438 61.082031c-1.398438 0-2.597657-.597656-3.597657-1.398437-.199219-.199219-.402343-.402344-.601562-.800782-.199219-.199218-.398438-.601562-.398438-.800781-.199219-.199219-.199219-.597656-.199219-1 0-.398437-.203124-.597656-.203124-1 0-.398437 0-.597656.203124-1 0-.398437.199219-.597656.199219-1 .199219-.398437.199219-.597656.398438-.800781.199219-.199219.402343-.597656.601562-.796875 1.398438-1.402344 3.597657-1.800781 5.398438-1 .199219.199219.601562.199219.800781.398437.199219.199219.601562.398438.800781.601563.199219.199219.398438.398437.597657.796875.203124.203125.402343.601562.402343.800781.199219.199219.199219.601563.199219 1 0 .402344 0 .601563.199219 1 0 .402344 0 .601563-.199219 1 0 .402344-.199219.601563-.199219 1-.199219.402344-.199219.601563-.402343.800781-.199219.199219-.398438.601563-.597657.800782-.199219.199218-.402343.398437-.800781.597656-.199219.203125-.601562.402344-.800781.402344-.398438.199218-.597657.199218-1 .199218-.199219.199219-.398438.199219-.800781.199219zm0 0" fill="#f75c64"/><g fill="#231f20"><path d="m51.601562 450.082031h-41.800781c-5.402343 0-9.800781-4.398437-9.800781-9.800781v-148.796875c0-5.402344 4.398438-9.800781 9.800781-9.800781h41.800781c5.398438 0 9.796876 4.398437 9.796876 9.800781v148.796875c0 5.203125-4.398438 9.800781-9.796876 9.800781zm-.203124-158.800781-41.597657.203125.199219 148.597656 41.398438-.199219zm0 0"/><path d="m79 438.082031h-22.601562c-2.796876 0-5-2.199219-5-5v-137.199219c0-2.800781 2.203124-5 5-5h22.601562c5.398438 0 9.800781 4.398438 9.800781 9.800782v127.398437c.199219 5.601563-4.402343 10-9.800781 10zm-17.601562-10h17.601562l-.199219-127.199219h-17.402343zm17.601562-127.199219"/><path d="m237.398438 311.28125h-56.398438c-2.800781 0-5-2.199219-5-5v-46.199219c0-2.800781 2.199219-5 5-5h56.601562c2.796876 0 5 2.199219 5 5v46.199219c-.203124 2.800781-2.402343 5-5.203124 5zm-51.398438-10h46.601562v-36.199219h-46.601562zm0 0"/><path d="m261.398438 311.28125h-24c-2.796876 0-5-2.199219-5-5v-26.597656c0-2.800782 2.203124-5 5-5h12c9.402343 0 17 7.597656 17 17v14.597656c0 2.800781-2.199219 5-5 5zm-19-10h14v-9.597656c0-3.800782-3.199219-7-7-7h-7zm0 0"/><path d="m267.601562 342.882812h-70.203124c-2.796876 0-5-2.199218-5-5 0-2.800781 2.203124-5 5-5h70.402343c2.800781 0 5 2.199219 5 5 0 2.800782-2.402343 5-5.199219 5zm0 0"/><path d="m267.601562 374.683594h-70.203124c-2.796876 0-5-2.199219-5-5 0-2.800782 2.203124-5 5-5h70.402343c2.800781 0 5 2.199218 5 5 0 2.800781-2.402343 5-5.199219 5zm0 0"/><path d="m267.601562 406.28125h-70.203124c-2.796876 0-5-2.199219-5-5 0-2.796875 2.203124-5 5-5h70.402343c2.800781 0 5 2.203125 5 5 0 2.800781-2.402343 5-5.199219 5zm0 0"/><path d="m267.601562 438.082031h-88.800781c-9.601562-.199219-19-2-28-5.398437-2.199219-.800782-4.402343-1.402344-6.402343-2h-.199219c-11.398438-3.601563-19.597657-3.601563-34.800781-3.402344-6.796876 0-15.199219.203125-25.796876 0-2.800781 0-4.800781-2.199219-4.800781-5v-115.398438c0-2.800781 2.199219-5 5-5 42.597657 0 46.800781-3.800781 55.199219-11.398437 3.398438-3.203125 7.199219-6.203125 11.199219-8.800781h.199219l.203124-.199219c5.398438-4.203125 12.199219-6.601563 19-6.601563h11.199219c2.800781 0 5 2.199219 5 5v21.601563h81.800781c11.597657 0 20.796876 9.398437 20.796876 20.796875 0 6.203125-2.597657 12-7.398438 15.800781 8.800781 7.402344 9.800781 20.601563 2.398438 29.402344-.796876.796875-1.597657 1.597656-2.398438 2.398437 8.800781 7.398438 9.800781 20.601563 2.398438 29.398438-.796876.800781-1.597657 1.601562-2.398438 2.402344 8.800781 7.398437 9.800781 20.597656 2.398438 29.398437-3.796876 4.402344-9.597657 7-15.796876 7zm-120.203124-17c2.203124.601563 4.402343 1.402344 6.800781 2.199219 7.800781 3 16.199219 4.800781 24.800781 4.800781h88.800781c6 0 10.800781-4.800781 10.800781-10.800781s-4.800781-10.796875-10.800781-10.796875c-2.800781 0-5-2.203125-5-5 0-2.800781 2.199219-5 5-5 6 0 10.800781-4.800781 10.800781-10.800781s-4.800781-10.800782-10.800781-10.800782c-2.800781 0-5-2.199218-5-5 0-2.800781 2.199219-5 5-5 6 0 10.800781-4.800781 10.800781-10.800781s-4.800781-10.800781-10.800781-10.800781c-2.800781 0-5-2.199219-5-5 0-2.796875 2.199219-5 5-5 6 0 10.800781-4.796875 10.800781-10.796875s-4.800781-10.800781-10.800781-10.800781h-86.800781c-2.800781 0-5-2.199219-5-5v-21.601563h-6.199219c-4.800781 0-9.199219 1.601563-13 4.601563-.402343.199218-.601562.398437-.800781.597656-3.601562 2.402344-6.800781 5.203125-10 8-10.398438 9.402344-16.800781 13.601562-57 14v105.601562c8 .199219 14.601562 0 20.601562 0 15.398438-.800781 25-1 37.796876 3.199219zm0 0"/><path d="m209.199219 466.28125c-18.398438 0-33.199219-14.796875-33.199219-33.199219 0-2.800781 2.199219-5 5-5h56.601562c2.796876 0 5 2.199219 5 5-.203124 18.402344-15 33-33.402343 33.199219zm-22.800781-28.199219c2.800781 12.601563 15.402343 20.402344 27.800781 17.601563 8.800781-2 15.601562-8.800782 17.601562-17.601563zm0 0"/><path d="m265 265.082031h-95.398438c-38.601562 0-69.800781-31.199219-69.800781-69.800781 0-38.597656 31.199219-69.796875 69.800781-69.796875h95.199219c2.800781 0 5 2.199219 5 5v129.597656c.199219 2.800781-2.199219 5-4.800781 5zm-95.398438-129.597656c-33 0-59.800781 26.796875-59.800781 59.796875s26.800781 59.800781 59.800781 59.800781h90.398438v-119.597656zm0 0"/><path d="m177 168.082031c-2.800781 0-5-2.199219-5-5v-11.398437c0-2.800782 2.199219-5 5-5s5 2.199218 5 5v11.398437c0 2.800781-2.199219 5-5 5zm0 0"/><path d="m198.398438 168.082031c-2.796876 0-5-2.199219-5-5v-11.398437c0-2.800782 2.203124-5 5-5 2.800781 0 5 2.199218 5 5v11.398437c0 2.800781-2.199219 5-5 5zm0 0"/><path d="m220 168.082031c-2.800781 0-5-2.199219-5-5v-11.398437c0-2.800782 2.199219-5 5-5s5 2.199218 5 5v11.398437c0 2.800781-2.398438 5-5 5zm0 0"/><path d="m241.398438 168.082031c-2.796876 0-5-2.199219-5-5v-11.398437c0-2.800782 2.203124-5 5-5 2.800781 0 5 2.199218 5 5v11.398437c0 2.800781-2.199219 5-5 5zm0 0"/><path d="m400.601562 330.882812c-.800781 0-1.601562-.199218-2.203124-.398437l-135.597657-65.601563c-1.800781-.800781-2.800781-2.601562-2.800781-4.398437v-130c0-2 1-3.601563 2.800781-4.402344l135.597657-65.597656c2.402343-1.203125 5.402343-.203125 6.601562 2.398437.398438.601563.601562 1.398438.601562 2.199219v261c0 2.402344-2.402343 4.800781-5 4.800781zm-130.601562-73.800781 125.601562 60.800781v-245l-125.601562 60.800782zm0 0"/><path d="m414.199219 346.082031c-10.398438 0-18.800781-8.398437-18.800781-18.800781v-264c0-10.398438 8.402343-18.796875 18.800781-18.796875 10.402343 0 18.800781 8.398437 18.800781 18.796875v264c0 10.402344-8.398438 18.800781-18.800781 18.800781zm0-291.398437c-4.800781 0-8.800781 4-8.800781 8.800781v264c0 4.796875 4 8.796875 8.800781 8.796875s8.800781-4 8.800781-8.796875v-264c0-5-4-8.800781-8.800781-8.800781zm0 0"/><path d="m433.398438 220.484375h-5.398438c-2.800781 0-5-2.203125-5-5v-40.402344c0-2.800781 2.199219-5 5-5h5.398438c13.800781 0 25.203124 11.199219 25.203124 25.199219s-11.402343 25.203125-25.203124 25.203125zm-.398438-10h.398438c8.402343 0 15.203124-6.800781 15.203124-15.203125 0-8.398438-6.800781-15.199219-15.203124-15.199219h-.398438zm0 0"/><path d="m490.800781 250.484375c-1.402343 0-2.601562-.601563-3.601562-1.402344l-22.199219-22.199219c-2-2-2-5-.199219-7s5-2 7-.199218c0 0 0 0 .199219.199218l22.199219 22.199219c2 2 2 5.199219 0 7-.800781.800781-2 1.402344-3.398438 1.402344zm0 0"/><path d="m507 200.28125h-31.398438c-2.800781 0-5-2.199219-5-5 0-2.796875 2.199219-5 5-5h31.398438c2.800781 0 5 2.203125 5 5 0 2.800781-2.199219 5-5 5zm0 0"/><path d="m468.601562 172.28125c-2.800781 0-5-2.199219-5-5 0-1.398438.597657-2.597656 1.398438-3.597656l22.199219-22.199219c2-2 5-2 7-.203125 2 2 2 5 .199219 7 0 0 0 0-.199219.203125l-22.199219 22.199219c-.800781 1.199218-2 1.597656-3.398438 1.597656zm0 0"/></g></svg>