<?xml version="1.0" encoding="utf-8"?>
<!-- Generator: Adobe Illustrator 22.0.1, SVG Export Plug-In . SVG Version: 6.00 Build 0)  -->
<svg xmlns="http://www.w3.org/2000/svg" xmlns:xlink="http://www.w3.org/1999/xlink" version="1.1" id="Layer_1" x="0px" y="0px" viewBox="0 0 256 256" style="enable-background:new 0 0 256 256;" xml:space="preserve" width="512" height="512">
<style type="text/css">
	.st0{fill:#3A312A;}
	.st1{fill:#D7E057;}
	.st2{fill:#F16C7A;}
	.st3{fill:#FCE8CB;}
	.st4{fill:#87796F;}
	.st5{fill:#8AC6DD;}
	.st6{fill:#CE4E61;}
	.st7{fill:#6CA8BF;}
	.st8{fill:#B9C239;}
	.st9{fill:#DECAAD;}
	.st10{fill:#695B51;}
	.st11{fill-rule:evenodd;clip-rule:evenodd;fill:#FCE8CB;}
	.st12{fill:#F5978A;}
	.st13{fill:#68A8BC;}
	.st14{fill:#B9BC39;}
	.st15{fill:#6B5B51;}
	.st16{fill:#D34E5C;}
	.st17{fill-rule:evenodd;clip-rule:evenodd;fill:#87796F;}
	.st18{fill-rule:evenodd;clip-rule:evenodd;fill:#F16C7A;}
</style>
<g>
	<g>
		<g>
			<path class="st5" d="M127.733,35.565c-22.018,0-42.242,7.67-58.158,20.477L58.28,66.804     c-14.549,16.391-23.389,37.963-23.389,61.603c0,51.276,41.567,92.843,92.843,92.843c51.275,0,92.843-41.567,92.843-92.843     C220.576,77.132,179.009,35.565,127.733,35.565z"/>
		</g>
	</g>
	<g>
		<g>
			<path class="st0" d="M127.733,34.065c-21.435,0-42.423,7.39-59.098,20.808c-0.646,0.519-0.748,1.463-0.228,2.109     c0.52,0.645,1.462,0.747,2.109,0.228c16.378-13.179,36.164-20.145,57.217-20.145c50.367,0,91.343,40.976,91.343,91.343     S178.1,219.75,127.733,219.75s-91.343-40.976-91.343-91.343c0-22.365,8.172-43.89,23.011-60.607     c0.55-0.62,0.494-1.567-0.126-2.118c-0.619-0.55-1.567-0.493-2.118,0.126c-15.326,17.267-23.767,39.498-23.767,62.599     c0,52.021,42.322,94.343,94.343,94.343s94.343-42.322,94.343-94.343S179.754,34.065,127.733,34.065z"/>
		</g>
	</g>
	<g>
		<g>
			<path class="st2" d="M127.733,17.074c-5.707,0-10.333,4.626-10.333,10.333v20c0,5.707,4.626,10.333,10.333,10.333     c5.707,0,10.333-4.626,10.333-10.333v-20C138.067,21.701,133.44,17.074,127.733,17.074z"/>
		</g>
	</g>
	<g>
		<g>
			<path class="st0" d="M127.733,15.574c-6.525,0-11.833,5.308-11.833,11.833v2.427c0,0.829,0.671,1.5,1.5,1.5s1.5-0.671,1.5-1.5     v-2.427c0-4.871,3.963-8.833,8.833-8.833s8.833,3.962,8.833,8.833v20c0,4.871-3.962,8.833-8.833,8.833s-8.833-3.963-8.833-8.833     v-1.927c0-0.829-0.671-1.5-1.5-1.5s-1.5,0.671-1.5,1.5v1.927c0,6.525,5.309,11.833,11.833,11.833s11.833-5.309,11.833-11.833v-20     C139.566,20.882,134.258,15.574,127.733,15.574z"/>
		</g>
	</g>
	<g>
		<g>
			<path class="st2" d="M127.733,198.574c-5.707,0-10.333,4.626-10.333,10.333v20c0,5.707,4.626,10.333,10.333,10.333     c5.707,0,10.333-4.626,10.333-10.333v-20C138.067,203.201,133.44,198.574,127.733,198.574z"/>
		</g>
	</g>
	<g>
		<g>
			<path class="st0" d="M127.733,197.074c-6.525,0-11.833,5.308-11.833,11.833v20c0,6.525,5.309,11.833,11.833,11.833     s11.833-5.309,11.833-11.833v-20C139.566,202.382,134.258,197.074,127.733,197.074z M136.566,228.907     c0,4.871-3.962,8.833-8.833,8.833s-8.833-3.963-8.833-8.833v-20c0-4.871,3.963-8.833,8.833-8.833s8.833,3.962,8.833,8.833     V228.907z"/>
		</g>
	</g>
	<g>
		<g>
			<path class="st2" d="M228.483,117.824h-20c-5.707,0-10.333,4.626-10.333,10.333c0,5.707,4.626,10.333,10.333,10.333h20     c5.707,0,10.333-4.626,10.333-10.333C238.817,122.451,234.19,117.824,228.483,117.824z"/>
		</g>
	</g>
	<g>
		<g>
			<path class="st0" d="M228.483,116.324h-20c-6.525,0-11.833,5.308-11.833,11.833s5.309,11.833,11.833,11.833h20     c6.525,0,11.833-5.309,11.833-11.833S235.008,116.324,228.483,116.324z M228.483,136.991h-20c-4.871,0-8.833-3.963-8.833-8.833     s3.963-8.833,8.833-8.833h20c4.871,0,8.833,3.962,8.833,8.833S233.354,136.991,228.483,136.991z"/>
		</g>
	</g>
	<g>
		<g>
			<path class="st2" d="M46.983,117.824h-20c-5.707,0-10.333,4.626-10.333,10.333c0,5.707,4.626,10.333,10.333,10.333h20     c5.707,0,10.333-4.626,10.333-10.333C57.317,122.451,52.69,117.824,46.983,117.824z"/>
		</g>
	</g>
	<g>
		<g>
			<path class="st0" d="M46.983,116.324h-20c-6.525,0-11.833,5.308-11.833,11.833s5.309,11.833,11.833,11.833h20     c6.525,0,11.833-5.309,11.833-11.833S53.508,116.324,46.983,116.324z M46.983,136.991h-20c-4.871,0-8.833-3.963-8.833-8.833     s3.963-8.833,8.833-8.833h20c4.871,0,8.833,3.962,8.833,8.833S51.854,136.991,46.983,136.991z"/>
		</g>
	</g>
	<g>
		<g>
			<path class="st1" d="M46.817,26.432c-0.974,11.564-13.025,13.39-13.025,13.39c10.347,0.487,12.925,14.059,12.925,14.059     c0.221-9.677,13.321-14.202,13.321-14.202C50.226,39.092,46.817,26.432,46.817,26.432z"/>
		</g>
	</g>
	<g>
		<g>
			<path class="st0" d="M60.128,38.181c-8.604-0.514-11.831-12.024-11.863-12.14c-0.191-0.703-0.863-1.168-1.583-1.102     c-0.725,0.066-1.298,0.642-1.359,1.367c-0.86,10.215-11.313,11.963-11.754,12.032c-0.763,0.115-1.313,0.79-1.273,1.56     c0.04,0.77,0.657,1.384,1.427,1.421c9.028,0.425,11.498,12.719,11.522,12.843c0.137,0.711,0.759,1.217,1.472,1.217     c0.042,0,0.084-0.001,0.126-0.005c0.764-0.064,1.357-0.693,1.374-1.459c0.195-8.509,12.192-12.777,12.313-12.819     c0.675-0.235,1.092-0.915,0.994-1.623C61.426,38.765,60.842,38.224,60.128,38.181z M46.563,48.527     c-1.356-3.13-3.708-6.907-7.586-8.876c2.931-1.405,6.409-3.913,8.202-8.273c1.551,3.071,4.199,6.88,8.334,8.722     C52.504,41.74,48.589,44.506,46.563,48.527z"/>
		</g>
	</g>
	<g>
		<g>
			<path class="st1" d="M25.119,43.413c-0.689,8.179-9.212,9.471-9.212,9.471c7.318,0.344,9.142,9.944,9.142,9.944     c0.156-6.845,9.422-10.045,9.422-10.045C27.529,52.367,25.119,43.413,25.119,43.413z"/>
		</g>
	</g>
	<g>
		<g>
			<path class="st0" d="M34.56,51.285c-5.766-0.345-7.972-8.185-7.993-8.264c-0.19-0.702-0.85-1.164-1.582-1.102     c-0.726,0.065-1.299,0.642-1.36,1.368c-0.579,6.871-7.646,8.067-7.942,8.114c-0.763,0.115-1.313,0.79-1.273,1.561     c0.04,0.77,0.657,1.384,1.428,1.421c6.035,0.284,7.723,8.644,7.739,8.726c0.135,0.712,0.759,1.22,1.473,1.22     c0.041,0,0.083-0.001,0.125-0.005c0.765-0.063,1.358-0.694,1.376-1.461c0.13-5.709,8.331-8.634,8.412-8.662     c0.677-0.234,1.094-0.913,0.996-1.622C35.859,51.869,35.274,51.328,34.56,51.285z M24.976,58.08     c-0.924-1.886-2.34-3.947-4.447-5.28c1.855-1.041,3.697-2.63,4.871-4.916c1.057,1.874,2.654,3.954,4.941,5.223     C28.49,54.208,26.352,55.848,24.976,58.08z"/>
		</g>
	</g>
	<g>
		<g>
			<path class="st1" d="M25.119,16.755c-0.689,8.179-9.212,9.471-9.212,9.471c7.318,0.345,9.142,9.944,9.142,9.944     c0.156-6.845,9.422-10.045,9.422-10.045C27.529,25.709,25.119,16.755,25.119,16.755z"/>
		</g>
	</g>
	<g>
		<g>
			<path class="st0" d="M34.56,24.627c-5.766-0.345-7.972-8.185-7.994-8.265c-0.19-0.702-0.85-1.165-1.582-1.102     c-0.726,0.065-1.299,0.642-1.36,1.368c-0.579,6.871-7.646,8.067-7.942,8.114c-0.763,0.115-1.313,0.79-1.273,1.56     c0.04,0.77,0.657,1.384,1.427,1.421c6.035,0.284,7.724,8.644,7.739,8.726c0.135,0.712,0.759,1.22,1.472,1.22     c0.042,0,0.083-0.002,0.125-0.005c0.765-0.063,1.358-0.694,1.376-1.461c0.13-5.709,8.331-8.634,8.412-8.662     c0.676-0.234,1.094-0.913,0.996-1.622C35.859,25.212,35.274,24.67,34.56,24.627z M24.976,31.423     c-0.924-1.886-2.34-3.947-4.447-5.28c1.855-1.042,3.697-2.63,4.871-4.917c1.057,1.873,2.654,3.954,4.941,5.224     C28.49,27.551,26.352,29.19,24.976,31.423z"/>
		</g>
	</g>
	<g>
		<g>
			<path class="st1" d="M127.081,63.998c-35.348,0-64,28.652-64,64c0,22.761,11.876,42.735,29.787,54.074     c0.206,0.134,0.413,0.268,0.619,0.392c0.279,0.186,0.567,0.361,0.846,0.526c3.487,2.084,7.171,3.838,11.04,5.221     c0.268,0.103,0.536,0.196,0.805,0.289c0.134,0.052,0.279,0.093,0.423,0.145c5.21,1.764,10.72,2.868,16.426,3.229     c1.341,0.083,2.693,0.124,4.055,0.124c1.434,0,2.848-0.052,4.251-0.145c5.86-0.382,11.514-1.548,16.818-3.405     c0.289-0.103,0.588-0.217,0.877-0.32c0.052-0.021,0.093-0.031,0.144-0.052c3.735-1.372,7.305-3.075,10.658-5.086     c0.485-0.289,0.96-0.578,1.424-0.877c0.093-0.062,0.186-0.113,0.268-0.175c0.01,0,0.01-0.01,0.01-0.01     c17.777-11.37,29.55-31.273,29.55-53.93C191.081,92.65,162.429,63.998,127.081,63.998z"/>
		</g>
	</g>
	<g>
		<g>
			<path class="st0" d="M127.082,62.498c-36.117,0-65.5,29.383-65.5,65.5c0,22.569,11.396,43.257,30.515,55.362     c0.207,0.134,0.413,0.267,0.56,0.354c0.301,0.201,0.612,0.39,0.908,0.565c3.606,2.156,7.41,3.954,11.269,5.333     c0.285,0.11,0.57,0.209,0.808,0.291c0.098,0.038,0.201,0.072,0.305,0.106l0.173,0.059c5.402,1.829,11.059,2.941,16.814,3.306     c1.364,0.084,2.759,0.126,4.147,0.126c1.423,0,2.846-0.048,4.349-0.147c5.92-0.386,11.713-1.559,17.223-3.489l0.918-0.335     c0.015-0.005,0.103-0.036,0.118-0.041c3.821-1.404,7.493-3.157,10.909-5.206c0.5-0.298,0.99-0.596,1.468-0.905     c0.007-0.004,0.081-0.052,0.088-0.056c0.089-0.056,0.175-0.111,0.257-0.172c18.895-12.117,30.171-32.727,30.171-55.148     C192.581,91.881,163.198,62.498,127.082,62.498z M160.724,180.665c-0.023,0.015-0.046,0.031-0.069,0.047     c-0.031,0.02-0.061,0.04-0.088,0.062l-0.125,0.08c-0.45,0.29-0.91,0.569-1.383,0.852c-3.258,1.955-6.758,3.625-10.431,4.975     c-0.011,0.003-0.095,0.033-0.106,0.037l-0.867,0.316c-5.246,1.837-10.771,2.956-16.421,3.324     c-2.845,0.187-5.485,0.182-8.112,0.021c-5.49-0.348-10.886-1.409-16.014-3.144l-0.439-0.15c-0.252-0.087-0.503-0.174-0.79-0.284     c-3.711-1.326-7.336-3.04-10.78-5.099c-0.257-0.152-0.523-0.313-0.838-0.521c-0.177-0.106-0.354-0.221-0.589-0.374     c-18.214-11.531-29.089-31.272-29.089-52.807c0-34.462,28.038-62.5,62.5-62.5c34.462,0,62.5,28.038,62.5,62.5     C189.581,149.419,178.794,169.107,160.724,180.665z"/>
		</g>
	</g>
	<g>
		<g>
			<path class="st3" d="M161.129,176.542c0,0,0,0,0-0.01c-0.093-0.371-0.186-0.743-0.299-1.104c-0.093-0.299-0.196-0.599-0.31-0.898     c-0.341-0.887-0.753-1.733-1.238-2.528c-0.33-0.526-0.681-1.042-1.063-1.527c0,0,0,0,0-0.01     c-0.382-0.485-0.794-0.949-1.228-1.383c-2.817-2.806-6.676-4.54-10.947-4.54H135.81v-6.242c-0.052,0.031-0.114,0.072-0.175,0.113     c-0.196,0.134-0.402,0.268-0.598,0.392c-0.299,0.196-0.599,0.371-0.898,0.536c-0.299,0.175-0.598,0.341-0.898,0.485     c-0.402,0.206-0.805,0.392-1.207,0.547c-0.134,0.052-0.258,0.103-0.392,0.155c-0.165,0.062-0.33,0.124-0.495,0.175     c-0.227,0.083-0.454,0.155-0.691,0.217c-0.217,0.062-0.423,0.113-0.629,0.165c-0.206,0.052-0.413,0.093-0.619,0.124     c-0.144,0.031-0.289,0.052-0.444,0.072c-0.021,0.01-0.041,0.01-0.062,0.01c-0.186,0.021-0.371,0.041-0.547,0.062     c-0.31,0.031-0.619,0.041-0.929,0.041c-0.186,0-0.371,0-0.567-0.021c-0.093,0-0.196-0.01-0.289-0.021     c-0.144-0.01-0.289-0.021-0.433-0.041c-0.237-0.031-0.485-0.072-0.732-0.124c-0.103-0.021-0.206-0.052-0.31-0.072     c-0.34-0.072-0.702-0.175-1.042-0.289c-0.114-0.031-0.237-0.062-0.351-0.103c-0.31-0.103-0.609-0.217-0.918-0.351     c-0.196-0.083-0.392-0.175-0.588-0.268c-0.062-0.021-0.124-0.052-0.186-0.083c-0.289-0.134-0.578-0.279-0.867-0.444     c-0.227-0.124-0.454-0.258-0.681-0.392c-0.186-0.113-0.371-0.227-0.557-0.341c-0.021-0.01-0.041-0.021-0.072-0.041     c-0.341-0.227-0.691-0.464-1.032-0.712v6.448h-10.235c-8.553,0-15.497,6.944-15.497,15.497v2.033     c0.206,0.134,0.413,0.268,0.619,0.392c0.279,0.186,0.567,0.361,0.846,0.526c3.487,2.084,7.171,3.838,11.04,5.221     c0.268,0.103,0.536,0.196,0.805,0.289c0.134,0.052,0.279,0.093,0.423,0.145c5.21,1.764,10.72,2.868,16.426,3.229     c1.341,0.083,2.693,0.124,4.055,0.124c1.434,0,2.848-0.052,4.251-0.145c5.86-0.382,11.514-1.548,16.818-3.405     c0.289-0.103,0.588-0.217,0.877-0.32c0.052-0.021,0.093-0.031,0.144-0.052c3.735-1.372,7.305-3.075,10.658-5.086     c0.485-0.289,0.96-0.578,1.424-0.877c0.093-0.062,0.186-0.113,0.268-0.175v-1.909     C161.521,178.833,161.377,177.667,161.129,176.542z"/>
		</g>
	</g>
	<g>
		<g>
			<path class="st0" d="M162.61,176.292c-0.006-0.042-0.015-0.083-0.025-0.124c-0.101-0.401-0.202-0.802-0.322-1.185     c-0.102-0.329-0.215-0.658-0.342-0.991c-0.375-0.978-0.831-1.91-1.368-2.788c-0.368-0.586-0.719-1.095-1.071-1.55     c-0.026-0.041-0.053-0.08-0.083-0.117c-0.415-0.527-0.867-1.037-1.348-1.518c-3.222-3.209-7.485-4.977-12.006-4.977h-8.735     v-4.742c0-0.541-0.292-1.04-0.763-1.306c-0.471-0.266-1.049-0.257-1.513,0.022c-0.069,0.042-0.151,0.096-0.245,0.159     c-0.182,0.124-0.373,0.248-0.576,0.376c-0.266,0.175-0.533,0.331-0.835,0.497c-0.264,0.155-0.527,0.301-0.821,0.443     c-0.387,0.198-0.734,0.355-1.065,0.483l-0.379,0.149c-0.137,0.052-0.275,0.104-0.482,0.171c-0.183,0.066-0.365,0.125-0.59,0.184     c-0.198,0.057-0.388,0.104-0.58,0.152c-0.159,0.04-0.317,0.072-0.567,0.112c-0.107,0.023-0.214,0.038-0.329,0.053     c-0.023,0.003-0.046,0.006-0.069,0.011l-0.491,0.056c-0.26,0.026-0.52,0.034-0.78,0.034c-0.134-0.001-0.269,0.002-0.412-0.012     c-0.082-0.009-0.141-0.005-0.338-0.025c-0.108-0.008-0.216-0.014-0.347-0.033c-0.201-0.026-0.411-0.061-0.713-0.127     c-0.076-0.019-0.152-0.038-0.21-0.049c-0.287-0.061-0.591-0.148-0.878-0.245c-0.029-0.009-0.108-0.032-0.138-0.04     c-0.059-0.016-0.121-0.03-0.213-0.063c-0.269-0.09-0.528-0.188-0.813-0.311c-0.172-0.072-0.344-0.154-0.529-0.241     c-0.054-0.026-0.137-0.067-0.194-0.086c-0.251-0.117-0.504-0.243-0.783-0.401c-0.211-0.115-0.422-0.24-0.617-0.356l-0.553-0.338     c-0.021-0.013-0.043-0.025-0.065-0.037c-0.311-0.208-0.63-0.424-0.94-0.65c-0.456-0.332-1.06-0.379-1.563-0.124     c-0.503,0.256-0.819,0.772-0.819,1.337v4.948h-8.735c-9.372,0-16.997,7.625-16.997,16.997v2.033c0,0.508,0.301,1.011,0.728,1.287     c0.207,0.134,0.413,0.267,0.56,0.354c0.301,0.201,0.612,0.39,0.908,0.565c3.606,2.156,7.41,3.954,11.269,5.333     c0.285,0.11,0.57,0.209,0.808,0.291c0.098,0.038,0.2,0.072,0.305,0.106l0.173,0.059c5.402,1.829,11.059,2.941,16.814,3.306     c1.364,0.084,2.759,0.126,4.147,0.126c1.423,0,2.846-0.048,4.349-0.148c5.92-0.386,11.713-1.559,17.223-3.488l0.918-0.335     c0.015-0.005,0.103-0.036,0.118-0.041c3.821-1.404,7.493-3.157,10.909-5.206c0.5-0.298,0.99-0.596,1.468-0.905     c0.007-0.004,0.081-0.052,0.088-0.056c0.094-0.059,0.184-0.117,0.269-0.181c0.377-0.283,0.599-0.728,0.599-1.199v-1.909     C163.021,178.813,162.883,177.556,162.61,176.292z M160.021,181.119c-0.315,0.197-0.636,0.391-0.964,0.586     c-3.258,1.955-6.758,3.625-10.431,4.975c-0.011,0.003-0.095,0.033-0.106,0.037l-0.867,0.316     c-5.246,1.837-10.771,2.956-16.421,3.324c-2.845,0.187-5.485,0.182-8.112,0.021c-5.49-0.348-10.886-1.409-16.014-3.144     l-0.439-0.15c-0.252-0.087-0.503-0.174-0.79-0.284c-3.711-1.326-7.336-3.04-10.78-5.099c-0.227-0.134-0.461-0.275-0.729-0.45     v-1.21c0-7.718,6.279-13.997,13.997-13.997h10.235c0.829,0,1.5-0.671,1.5-1.5v-3.714c0.033,0.019,0.066,0.037,0.098,0.054     c0.326,0.186,0.652,0.35,0.952,0.489c0.085,0.042,0.171,0.083,0.257,0.117c0.198,0.093,0.395,0.185,0.579,0.262     c0.35,0.152,0.689,0.28,1.004,0.386c0.137,0.049,0.283,0.09,0.386,0.115c0.417,0.139,0.833,0.254,1.206,0.333     c0.006,0.001,0.101,0.024,0.107,0.025l0.21,0.049c0.285,0.059,0.57,0.107,0.821,0.139c0.181,0.026,0.362,0.04,0.485,0.048     c0.117,0.013,0.245,0.024,0.366,0.028c0.601,0.054,1.141,0.033,1.757-0.029l0.538-0.061v0c0.039-0.004,0.077-0.01,0.116-0.016     c0.187-0.025,0.358-0.052,0.447-0.073c0.253-0.037,0.508-0.089,0.76-0.152c0.223-0.055,0.446-0.112,0.646-0.169     c0.284-0.074,0.556-0.16,0.757-0.235c0.193-0.06,0.385-0.131,0.586-0.207l0.396-0.156c0.428-0.165,0.87-0.364,1.322-0.596     c0.139-0.067,0.279-0.139,0.416-0.212v3.576c0,0.829,0.671,1.5,1.5,1.5h10.235c3.721,0,7.233,1.457,9.886,4.1     c0.365,0.366,0.712,0.753,1.033,1.153c0.024,0.037,0.05,0.073,0.078,0.108c0.313,0.398,0.631,0.854,0.961,1.38     c0.432,0.708,0.808,1.476,1.116,2.279c0.102,0.27,0.196,0.539,0.281,0.816c0.097,0.308,0.177,0.625,0.256,0.942     c0.002,0.015,0.005,0.029,0.009,0.043c0.237,1.076,0.357,2.141,0.357,3.165V181.119z"/>
		</g>
	</g>
	<g>
		<g>
			<polygon class="st4" points="127.225,174.505 127.205,174.536 127.236,174.556 127.256,174.536    "/>
		</g>
	</g>
	<g>
		<g>
			<path class="st0" d="M128.277,173.436c-0.319-0.314-0.771-0.455-1.216-0.408c-0.445,0.046-0.856,0.303-1.104,0.675     c-0.459,0.689-0.243,1.641,0.447,2.101c0.254,0.169,0.543,0.252,0.832,0.252c0.381,0,0.76-0.145,1.049-0.427l0.021-0.021     c0.288-0.282,0.435-0.683,0.436-1.086C128.742,174.12,128.564,173.719,128.277,173.436z"/>
		</g>
	</g>
	<g>
		<g>
			<path class="st4" d="M161.129,176.542c0,0,0,0,0-0.01c-0.083-0.371-0.186-0.743-0.299-1.104c-0.093-0.299-0.196-0.599-0.31-0.898     c-0.341-0.887-0.753-1.733-1.238-2.528c-0.32-0.536-0.671-1.042-1.063-1.527c0,0,0,0,0-0.01     c-0.382-0.485-0.794-0.949-1.228-1.383c-2.817-2.806-6.676-4.54-10.947-4.54h-2.714l0.031,0.021h0.01l-10.648,14.125l-0.867-0.65     v-0.01l-4.622-3.467l-2.724,2.032l-0.65,0.485l-1.331,1.001l-0.794,0.609l-10.648-14.125l0.031-0.021h-2.755     c-8.553,0-15.497,6.944-15.497,15.497v2.033c0.206,0.134,0.413,0.268,0.619,0.392c0.279,0.186,0.567,0.361,0.846,0.526     c3.487,2.084,7.171,3.838,11.04,5.221c0.268,0.103,0.536,0.196,0.805,0.289c0.134,0.052,0.279,0.093,0.423,0.145     c5.21,1.764,10.72,2.868,16.426,3.229c1.341,0.083,2.693,0.124,4.055,0.124c1.434,0,2.848-0.052,4.251-0.145     c5.86-0.382,11.514-1.548,16.818-3.405c0.289-0.103,0.588-0.217,0.877-0.32c0.052-0.021,0.093-0.031,0.144-0.052     c3.735-1.372,7.305-3.075,10.658-5.086c0.485-0.289,0.96-0.578,1.424-0.877c0.093-0.062,0.186-0.113,0.268-0.175     c0.01,0,0.01-0.01,0.01-0.01v-1.888C161.532,178.833,161.398,177.667,161.129,176.542z"/>
		</g>
	</g>
	<g>
		<g>
			<path class="st0" d="M162.606,176.271c-0.004-0.022-0.008-0.043-0.013-0.064c-0.092-0.414-0.207-0.828-0.331-1.223     c-0.102-0.329-0.215-0.658-0.342-0.991c-0.375-0.978-0.831-1.91-1.35-2.759c-0.337-0.566-0.698-1.089-1.099-1.594     c-0.023-0.035-0.047-0.069-0.073-0.102c-0.415-0.527-0.867-1.037-1.348-1.518c-3.222-3.209-7.485-4.977-12.006-4.977h-2.713     c-0.581,0-1.088,0.341-1.333,0.853l-9.565,12.688l-4.297-3.223c-0.532-0.398-1.263-0.4-1.797-0.002l-4.312,3.223l-9.54-12.655     c-0.24-0.533-0.772-0.884-1.368-0.884h-2.755c-9.372,0-16.997,7.625-16.997,16.997v2.033c0,0.508,0.301,1.011,0.728,1.287     c0.207,0.134,0.413,0.267,0.56,0.354c0.301,0.201,0.612,0.39,0.908,0.565c3.606,2.156,7.41,3.954,11.269,5.333     c0.285,0.11,0.57,0.209,0.808,0.291c0.098,0.038,0.2,0.072,0.305,0.106l0.173,0.059c5.402,1.829,11.059,2.941,16.814,3.306     c1.364,0.084,2.759,0.126,4.147,0.126c1.423,0,2.846-0.048,4.349-0.147c5.92-0.386,11.713-1.559,17.223-3.489l0.918-0.335     c0.015-0.005,0.103-0.036,0.118-0.041c3.821-1.404,7.493-3.157,10.909-5.206c0.5-0.298,0.99-0.596,1.468-0.905     c0.007-0.004,0.081-0.052,0.088-0.056c0.094-0.059,0.184-0.117,0.269-0.181l0,0c0.369-0.276,0.609-0.717,0.609-1.209v-1.888     C163.032,178.749,162.889,177.481,162.606,176.271z M160.032,181.112c-0.319,0.199-0.643,0.395-0.974,0.592     c-3.258,1.955-6.758,3.625-10.431,4.975c-0.011,0.003-0.095,0.033-0.106,0.037l-0.867,0.316     c-5.246,1.837-10.771,2.956-16.421,3.324c-2.845,0.187-5.485,0.182-8.112,0.021c-5.49-0.348-10.886-1.409-16.014-3.144     l-0.439-0.15c-0.252-0.087-0.503-0.174-0.79-0.284c-3.711-1.326-7.336-3.04-10.78-5.099c-0.227-0.134-0.461-0.275-0.729-0.45     v-1.21c0-7.718,6.279-13.997,13.997-13.997h1.961l10.213,13.548c0.241,0.319,0.599,0.529,0.995,0.583     c0.396,0.054,0.798-0.052,1.115-0.296l4.584-3.444l3.604,2.704c0.038,0.035,0.079,0.069,0.121,0.101l0.867,0.65     c0.662,0.496,1.599,0.363,2.098-0.297l10.213-13.548h1.909c3.721,0,7.233,1.457,9.886,4.1c0.365,0.366,0.712,0.753,1.033,1.153     c0.028,0.042,0.058,0.083,0.089,0.123c0.345,0.427,0.653,0.869,0.949,1.365c0.432,0.708,0.808,1.476,1.116,2.279     c0.102,0.27,0.196,0.539,0.281,0.816c0.094,0.298,0.18,0.605,0.251,0.913c0.005,0.033,0.012,0.066,0.02,0.098     c0.24,1.006,0.361,2.066,0.361,3.15V181.112z"/>
		</g>
	</g>
	<g>
		<g>
			<path class="st0" d="M105.373,181.48c-0.829,0-1.5,0.671-1.5,1.5v5.231c0,0.829,0.671,1.5,1.5,1.5c0.829,0,1.5-0.671,1.5-1.5     v-5.231C106.873,182.152,106.202,181.48,105.373,181.48z"/>
		</g>
	</g>
	<g>
		<g>
			<path class="st0" d="M149.027,181.48c-0.829,0-1.5,0.671-1.5,1.5v5.148c0,0.829,0.671,1.5,1.5,1.5c0.829,0,1.5-0.671,1.5-1.5     v-5.148C150.527,182.152,149.856,181.48,149.027,181.48z"/>
		</g>
	</g>
	<g>
		<g>
			<path class="st5" d="M130.373,185.57h-6.376l-0.97,6.304c1.341,0.083,2.693,0.124,4.055,0.124c1.434,0,2.848-0.052,4.251-0.145     L130.373,185.57z"/>
		</g>
	</g>
	<g>
		<g>
			<path class="st0" d="M132.815,191.627l-0.96-6.283c-0.112-0.733-0.742-1.273-1.483-1.273h-6.376c-0.74,0-1.37,0.54-1.482,1.272     l-0.97,6.304c-0.064,0.417,0.05,0.841,0.314,1.169c0.265,0.328,0.655,0.53,1.076,0.556c1.364,0.084,2.759,0.126,4.147,0.126     c1.423,0,2.846-0.048,4.35-0.148c0.419-0.027,0.808-0.23,1.07-0.558C132.765,192.465,132.879,192.042,132.815,191.627z      M124.762,190.457l0.521-3.387h3.801l0.516,3.375C127.956,190.513,126.362,190.514,124.762,190.457z"/>
		</g>
	</g>
	<g>
		<g>
			<polygon class="st5" points="121.844,174.531 123.998,185.566 130.356,185.566 132.561,174.531    "/>
		</g>
	</g>
	<g>
		<g>
			<path class="st0" d="M133.722,173.58c-0.285-0.347-0.711-0.549-1.16-0.549h-10.718c-0.448,0-0.873,0.2-1.158,0.546     c-0.285,0.346-0.4,0.801-0.314,1.241l2.154,11.035c0.137,0.705,0.754,1.213,1.472,1.213h6.359c0.715,0,1.331-0.505,1.471-1.206     l2.205-11.035C134.121,174.385,134.006,173.928,133.722,173.58z M129.126,184.066h-3.894l-1.568-8.035h7.067L129.126,184.066z"/>
		</g>
	</g>
	<g>
		<g>
			<circle class="st11" cx="100.544" cy="126.412" r="6.115"/>
		</g>
	</g>
	<g>
		<g>
			<path class="st0" d="M100.544,118.797c-4.199,0-7.615,3.416-7.615,7.615c0,4.199,3.416,7.614,7.615,7.614     c4.199,0,7.614-3.415,7.614-7.614C108.159,122.213,104.743,118.797,100.544,118.797z M100.544,131.026     c-2.544,0-4.615-2.07-4.615-4.614c0-2.544,2.07-4.615,4.615-4.615c2.544,0,4.614,2.07,4.614,4.615     C105.159,128.956,103.089,131.026,100.544,131.026z"/>
		</g>
	</g>
	<g>
		<g>
			<path class="st11" d="M153.913,120.297c-3.377,0-6.114,2.738-6.114,6.115c0,3.377,2.737,6.115,6.114,6.115     s6.115-2.738,6.115-6.115C160.028,123.035,157.29,120.297,153.913,120.297z"/>
		</g>
	</g>
	<g>
		<g>
			<path class="st0" d="M153.913,118.797c-4.199,0-7.614,3.416-7.614,7.615c0,4.199,3.416,7.614,7.614,7.614     c4.199,0,7.615-3.415,7.615-7.614C161.528,122.213,158.112,118.797,153.913,118.797z M153.913,131.026     c-2.544,0-4.614-2.07-4.614-4.614c0-2.544,2.07-4.615,4.614-4.615c2.544,0,4.615,2.07,4.615,4.615     C158.528,128.956,156.458,131.026,153.913,131.026z"/>
		</g>
	</g>
	<g>
		<g>
			<path class="st3" d="M127.229,96.337c-14.97,0-27.106,12.136-27.106,27.106c0,14.97,14.995,37.948,27.106,37.948     c12.688,0,27.106-22.978,27.106-37.948C154.335,108.473,142.199,96.337,127.229,96.337z"/>
		</g>
	</g>
	<g>
		<g>
			<path class="st0" d="M127.229,94.837c-15.773,0-28.606,12.832-28.606,28.606c0,7.411,3.555,17.16,9.277,25.441     c6.151,8.902,13.197,14.008,19.329,14.008c13.538,0,28.606-23.514,28.606-39.449C155.835,107.67,143.002,94.837,127.229,94.837z      M127.229,159.892c-11.301,0-25.606-22.599-25.606-36.449c0-14.119,11.487-25.606,25.606-25.606     c14.119,0,25.606,11.487,25.606,25.606C152.835,137.505,138.854,159.892,127.229,159.892z"/>
		</g>
	</g>
	<g>
		<g>
			<path class="st4" d="M155.597,117.178c0-14.814-12.561-26.823-28.056-26.823c-15.495,0-28.056,12.009-28.056,26.824     c0,1.568,0.284,2.736,0.811,4.196c0.249,0.688,4.266-1.51,4.608-1.75c1.711-1.204,3.108-2.836,4.153-4.641     c0.432-0.75,0.792-1.514,1.082-2.278c0.925-2.437,3.438-9.217,5.989-8.685c3.421,0.713,7.299,1.116,11.413,1.116     c4.114,0,7.992-0.403,11.413-1.116c2.551-0.532,5.064,6.248,5.989,8.685c0.29,0.764,0.65,1.527,1.082,2.278     c1.726,2.985,4.641,5.827,8.188,6.344c0.009-0.171,0.225-0.23,0.387-0.288C155.76,120.617,155.597,118.109,155.597,117.178z"/>
		</g>
	</g>
	<g>
		<g>
			<path class="st0" d="M157.101,117.47l-0.003-0.292c0-15.618-13.259-28.323-29.556-28.323c-16.297,0-29.556,12.706-29.556,28.323     c0,1.836,0.36,3.209,0.9,4.706c0.179,0.495,0.576,0.872,1.089,1.034c0.161,0.05,0.342,0.073,0.539,0.073     c1.892,0,5.219-2.116,5.254-2.14c1.795-1.264,3.382-3.034,4.59-5.12c0.463-0.806,0.862-1.645,1.184-2.494l0.057-0.151     c2.673-7.055,4.008-7.565,4.223-7.598c3.655,0.762,7.598,1.148,11.719,1.148c4.121,0,8.064-0.386,11.694-1.146     c0.24,0.03,1.574,0.54,4.246,7.591l0.059,0.155c0.322,0.849,0.72,1.689,1.186,2.497c2.264,3.915,5.729,6.562,9.269,7.078     c0.417,0.061,0.842-0.057,1.168-0.325c0.041-0.033,0.079-0.069,0.116-0.106C157.161,121.549,157.122,118.908,157.101,117.47z      M153.919,119.692c-0.028,0.012-0.057,0.023-0.083,0.036c-2.44-0.59-4.838-2.602-6.51-5.494     c-0.384-0.667-0.714-1.361-0.979-2.062l-0.059-0.154c-2.018-5.323-4.334-10.159-7.639-9.466     c-3.454,0.72-7.191,1.084-11.107,1.084c-3.916,0-7.652-0.365-11.106-1.084c-3.298-0.688-5.623,4.146-7.641,9.471l-0.057,0.149     c-0.266,0.701-0.596,1.395-0.978,2.059c-0.99,1.709-2.276,3.15-3.7,4.153c-0.429,0.278-1.782,0.977-2.719,1.363     c-0.229-0.809-0.355-1.593-0.355-2.569c0-13.963,11.913-25.323,26.556-25.323s26.556,11.36,26.556,25.323l0.003,0.336     C154.118,118.65,154.057,119.381,153.919,119.692z M155.005,122.486l-0.544-1.397l0.645,1.348     C155.071,122.458,155.037,122.474,155.005,122.486z"/>
		</g>
	</g>
	<g>
		<g>
			<path class="st4" d="M127.035,80.619c-19.108,11.241-30.198-10.368-30.198-0.513c0,0.946,0.174,2.095,0.456,3.293     c0.676,2.868,1.888,5.582,3.467,8.069l0.962,1.516c2.142,3.375,4.629,6.534,7.549,9.264c3.543,3.312,7.558,6.031,11.781,7.232     c10.707,3.044,29.658-0.753,29.658-16.165C150.71,83.46,142.45,71.55,127.035,80.619z"/>
		</g>
	</g>
	<g>
		<g>
			<path class="st0" d="M144.018,77.647c-3.443-1.97-9.319-3.277-17.744,1.679c-10.751,6.325-18.801,1.496-23.61-1.388     c-2.473-1.483-4.259-2.555-5.826-1.667c-1.331,0.754-1.502,2.446-1.502,3.835c0,1.015,0.167,2.238,0.497,3.637     c0.686,2.913,1.917,5.783,3.66,8.529l0.962,1.516c2.35,3.704,4.972,6.919,7.792,9.556c4.136,3.866,8.306,6.416,12.395,7.579     c2.314,0.658,5.034,1.019,7.894,1.019c5.836,0,12.25-1.505,16.958-5.062c4.395-3.319,6.717-8.01,6.717-13.565     C152.21,86.644,148.994,80.494,144.018,77.647z M143.685,104.486c-6.166,4.658-16.052,5.306-22.223,3.551     c-3.625-1.031-7.382-3.347-11.167-6.884c-2.634-2.463-5.093-5.481-7.307-8.972l-0.962-1.516     c-1.563-2.463-2.665-5.023-3.273-7.609c-0.272-1.157-0.417-2.177-0.417-2.949c0-0.524,0.036-0.863,0.074-1.074     c0.626,0.229,1.764,0.911,2.71,1.479c5.029,3.016,14.388,8.628,26.674,1.401c5.687-3.346,10.781-3.921,14.733-1.661     c4.616,2.64,6.682,8.463,6.682,13.063C149.21,97.958,147.351,101.717,143.685,104.486z"/>
		</g>
	</g>
	<g>
		<g>
			<path class="st0" d="M117.637,120.492c-1.461,0-2.646,1.185-2.646,2.646c0,1.461,1.185,2.646,2.646,2.646     s2.646-1.184,2.646-2.646C120.282,121.676,119.098,120.492,117.637,120.492z"/>
		</g>
	</g>
	<g>
		<g>
			<path class="st0" d="M136.777,120.492c-1.461,0-2.646,1.185-2.646,2.646c0,1.461,1.184,2.646,2.646,2.646     c1.461,0,2.646-1.184,2.646-2.646C139.422,121.676,138.238,120.492,136.777,120.492z"/>
		</g>
	</g>
	<g>
		<g>
			<path class="st12" d="M112.349,127.596c-2.517,0-4.557,1.525-4.557,3.407c0,1.882,2.04,3.407,4.557,3.407     c2.517,0,4.557-1.525,4.557-3.407C116.906,129.121,114.866,127.596,112.349,127.596z"/>
		</g>
	</g>
	<g>
		<g>
			<path class="st12" d="M142.064,127.596c-2.517,0-4.557,1.525-4.557,3.407c0,1.882,2.041,3.407,4.557,3.407     c2.517,0,4.557-1.525,4.557-3.407C146.622,129.121,144.581,127.596,142.064,127.596z"/>
		</g>
	</g>
	<g>
		<g>
			<path class="st0" d="M135.19,138.866c-0.773-0.29-1.641,0.103-1.931,0.878c-0.555,1.483-2.634,3.689-6.085,3.689     c-2.949,0-4.899-1.21-6.135-3.807c-0.356-0.747-1.25-1.065-2-0.709c-0.748,0.356-1.065,1.251-0.709,1.999     c1.743,3.661,4.719,5.517,8.844,5.517c4.661,0,7.877-2.921,8.895-5.636C136.359,140.021,135.965,139.157,135.19,138.866z"/>
		</g>
	</g>
	<g>
		<g>
			
				<rect x="115.717" y="160.707" transform="matrix(0.7986 -0.6019 0.6019 0.7986 -78.0438 105.8709)" class="st1" width="6.908" height="17.684"/>
		</g>
	</g>
	<g>
		<g>
			<path class="st0" d="M128.449,173.628l-10.644-14.122c-0.499-0.662-1.439-0.794-2.101-0.295l-5.517,4.158     c-0.318,0.239-0.527,0.595-0.582,0.989c-0.055,0.394,0.048,0.793,0.288,1.111l10.643,14.123c0.295,0.391,0.744,0.597,1.199,0.597     c0.314,0,0.631-0.098,0.902-0.302l5.517-4.158c0.318-0.239,0.527-0.595,0.583-0.989     C128.792,174.346,128.689,173.946,128.449,173.628z M122.029,176.588l-8.838-11.727l3.122-2.352l8.838,11.727L122.029,176.588z"/>
		</g>
	</g>
	<g>
		<g>
			
				<rect x="126.445" y="166.095" transform="matrix(0.6019 -0.7986 0.7986 0.6019 -81.539 175.5459)" class="st1" width="17.684" height="6.908"/>
		</g>
	</g>
	<g>
		<g>
			<path class="st0" d="M144.852,164.358c-0.055-0.394-0.265-0.75-0.583-0.989l-5.517-4.158c-0.662-0.5-1.602-0.367-2.1,0.295     l-10.643,14.122c-0.24,0.318-0.343,0.718-0.288,1.111c0.055,0.394,0.265,0.75,0.583,0.989l5.517,4.158     c0.271,0.204,0.587,0.302,0.902,0.302c0.454,0,0.904-0.206,1.199-0.597l10.643-14.123     C144.804,165.151,144.907,164.751,144.852,164.358z M132.429,176.588l-3.122-2.352l8.837-11.727l3.122,2.352L132.429,176.588z"/>
		</g>
	</g>
	<g>
		<g>
			<polygon class="st1" points="127.225,174.505 127.205,174.536 127.236,174.556 127.256,174.536    "/>
		</g>
	</g>
	<g>
		<g>
			<path class="st0" d="M128.277,173.436c-0.319-0.314-0.771-0.455-1.216-0.408c-0.445,0.046-0.856,0.303-1.104,0.675     c-0.459,0.689-0.243,1.641,0.447,2.101c0.254,0.169,0.543,0.252,0.832,0.252c0.381,0,0.76-0.145,1.049-0.427l0.021-0.021     c0.288-0.282,0.435-0.683,0.436-1.086C128.742,174.12,128.564,173.719,128.277,173.436z"/>
		</g>
	</g>
	<g>
		<g>
			<polygon class="st1" points="127.225,174.505 127.205,174.536 127.236,174.556 127.256,174.536    "/>
		</g>
	</g>
	<g>
		<g>
			<path class="st0" d="M128.309,173.467l-0.031-0.031c-0.319-0.314-0.771-0.455-1.216-0.408c-0.445,0.046-0.856,0.303-1.104,0.675     c-0.459,0.689-0.243,1.641,0.447,2.101c0.247,0.165,0.532,0.244,0.817,0.244c0.395,0,0.79-0.152,1.084-0.439     c0.288-0.282,0.451-0.667,0.452-1.07C128.757,174.136,128.596,173.75,128.309,173.467z"/>
		</g>
	</g>
	<g>
		<g>
			<path class="st8" d="M127.081,65.498c-2.54,0-5.04,0.15-7.5,0.45c30.94,3.71,55,30.13,55,62.05c0,15.42-5.6,29.95-15.48,41.18     c0.1,0.12,0.2,0.24,0.3,0.36c0.02,0.03,0.05,0.07,0.07,0.1c0.38,0.48,0.73,0.98,1.05,1.52c0.01,0.02,0.02,0.03,0.03,0.05     c0,0,0,0,0.01,0c0,0.01,0.01,0.02,0.01,0.03c0.52,0.84,0.97,1.78,1.35,2.76c0.13,0.33,0.24,0.66,0.34,0.99     c0.12,0.38,0.22,0.78,0.32,1.17c0,0.01,0,0.02,0.01,0.02v0.03c0.01,0.02,0.01,0.04,0.02,0.06c0.21,0.93,0.32,1.9,0.37,2.87     c16.7-11.71,26.6-30.63,26.6-51.14C189.581,93.538,161.541,65.498,127.081,65.498z"/>
		</g>
	</g>
</g>
</svg>
