<svg height="504pt" viewBox="0 -56 504 504" width="504pt" xmlns="http://www.w3.org/2000/svg"><path d="m482.300781 322.992188h-460.601562c-9.773438 0-17.699219-7.925782-17.699219-17.699219v-283.59375c0-9.773438 7.925781-17.699219 17.699219-17.699219h460.601562c9.773438 0 17.699219 7.925781 17.699219 17.699219v283.59375c0 9.773437-7.925781 17.699219-17.699219 17.699219zm0 0" fill="#ff4397"/><path d="m462.300781 103.050781-43.601562 43.859375-28.183594-28.183594-61.53125 61.53125-66.367187-66.367187-76.851563 76.851563-36.027344-36.023438-33.664062 33.660156-17.605469-17.601562-31.054688 35.054687-25.972656-21.972656v139.132813h420.859375zm0 0" fill="#7bac51"/><path d="m482.300781 4h-20c9.773438 0 17.699219 7.925781 17.699219 17.699219v283.59375c0 9.773437-7.925781 17.699219-17.699219 17.699219h20c9.773438 0 17.699219-7.925782 17.699219-17.699219v-283.59375c0-9.773438-7.925781-17.699219-17.699219-17.699219zm0 0" fill="#e12579"/><path d="m21.699219 322.992188h20c-9.773438 0-17.699219-7.925782-17.699219-17.699219v-283.59375c0-9.773438 7.925781-17.699219 17.699219-17.699219h-20c-9.773438 0-17.699219 7.925781-17.699219 17.699219v283.59375c0 9.773437 7.925781 17.699219 17.699219 17.699219zm0 0" fill="#ff61b5"/><path d="m462.300781 326.992188h-420.859375c-2.210937 0-4-1.792969-4-4v-139.136719c0-1.558594.902344-2.972657 2.316406-3.628907 1.414063-.652343 3.078126-.429687 4.265626.578126l22.992187 19.449218 28.460937-32.128906c.734376-.828125 1.769532-1.3125 2.875-1.347656 1.117188-.03125 2.171876.386718 2.949219 1.171875l14.777344 14.773437 30.835937-30.832031c1.558594-1.5625 4.097657-1.5625 5.65625 0l33.199219 33.199219 74.023438-74.027344c1.5625-1.558594 4.097656-1.558594 5.65625 0l63.539062 63.539062 58.703125-58.703124c1.5-1.5 4.15625-1.5 5.65625 0l25.347656 25.347656 40.769532-41.015625c1.140625-1.148438 2.863281-1.496094 4.363281-.878907 1.496094.617188 2.472656 2.078126 2.472656 3.699219v219.941407c0 2.210937-1.792969 4-4 4zm-416.859375-8h412.859375v-206.246094l-36.765625 36.984375c-.75.753906-1.734375 1.160156-2.835937 1.179687-1.058594 0-2.078125-.417968-2.828125-1.171875l-25.355469-25.355469-58.703125 58.703126c-1.5 1.5-4.15625 1.5-5.65625 0l-63.535156-63.535157-74.023438 74.023438c-1.5625 1.5625-4.097656 1.5625-5.65625 0l-33.203125-33.199219-30.832031 30.835938c-1.558594 1.5625-4.09375 1.5625-5.65625 0l-14.601562-14.601563-28.238282 31.875c-1.441406 1.628906-3.917968 1.804687-5.578125.402344l-19.390625-16.40625zm0 0" fill="#690589"/><path d="m413.800781 388.710938h-323.601562v-23.707032c0-9.777344 7.921875-17.699218 17.699219-17.699218h288.203124c9.777344 0 17.699219 7.921874 17.699219 17.699218zm0 0" fill="#7bac51"/><path d="m396.101562 347.304688h-20c9.777344 0 17.699219 7.921874 17.699219 17.699218v23.710938h20v-23.710938c0-9.777344-7.921875-17.699218-17.699219-17.699218zm0 0" fill="#5d8e33"/><path d="m107.898438 347.304688h20c-9.777344 0-17.699219 7.921874-17.699219 17.699218v23.710938h-20v-23.710938c0-9.777344 7.921875-17.699218 17.699219-17.699218zm0 0" fill="#99ca6f"/><path d="m157.007812 322.992188h189.984376v24.3125h-189.984376zm0 0" fill="#5d8e33"/><path d="m20 78.40625c-2.207031 0-4-1.789062-4-4v-24c0-2.207031 1.792969-4 4-4s4 1.792969 4 4v24c0 2.210938-1.792969 4-4 4zm0 0" fill="#690589"/><path d="m413.800781 392.710938h-323.601562c-2.210938 0-4-1.789063-4-4v-23.707032c0-11.964844 9.734375-21.699218 21.699219-21.699218h288.203124c11.964844 0 21.699219 9.734374 21.699219 21.699218v23.707032c0 2.210937-1.789062 4-4 4zm-319.601562-8h315.601562v-19.707032c0-7.554687-6.144531-13.699218-13.699219-13.699218h-288.203124c-7.554688 0-13.699219 6.144531-13.699219 13.699218zm0 0" fill="#690589"/><path d="m346.992188 351.304688h-189.984376c-2.210937 0-4-1.792969-4-4v-24.3125c0-2.207032 1.789063-4 4-4h189.984376c2.207031 0 4 1.792968 4 4v24.3125c0 2.207031-1.789063 4-4 4zm-185.984376-8h181.984376v-16.3125h-181.984376zm0 0" fill="#690589"/><path d="m482.300781 326.992188h-460.601562c-11.964844 0-21.699219-9.734376-21.699219-21.699219v-283.59375c0-11.964844 9.734375-21.699219 21.699219-21.699219h460.601562c11.964844 0 21.699219 9.734375 21.699219 21.699219v283.59375c0 11.964843-9.734375 21.699219-21.699219 21.699219zm-460.601562-318.992188c-7.554688 0-13.699219 6.144531-13.699219 13.699219v283.59375c0 7.554687 6.144531 13.699219 13.699219 13.699219h460.601562c7.554688 0 13.699219-6.144532 13.699219-13.699219v-283.59375c0-7.554688-6.144531-13.699219-13.699219-13.699219zm0 0" fill="#690589"/><path d="m369.898438 160.613281c0 65.113281-52.785157 117.898438-117.898438 117.898438s-117.898438-52.785157-117.898438-117.898438 52.785157-117.898437 117.898438-117.898437 117.898438 52.785156 117.898438 117.898437zm0 0" fill="#fcc24c"/><path d="m252 42.714844c-3.371094 0-6.699219.175781-10 .449218 60.429688 5.082032 107.898438 55.707032 107.898438 117.449219 0 61.742188-47.46875 112.363281-107.898438 117.445313 3.300781.277344 6.628906.453125 10 .453125 65.113281 0 117.898438-52.789063 117.898438-117.898438 0-65.117187-52.785157-117.898437-117.898438-117.898437zm0 0" fill="#dea42e"/><path d="m252 278.511719c3.371094 0 6.699219-.175781 10-.453125-60.429688-5.082032-107.898438-55.703125-107.898438-117.445313 0-61.742187 47.46875-112.367187 107.898438-117.449219-3.300781-.277343-6.628906-.449218-10-.449218-65.113281 0-117.898438 52.78125-117.898438 117.898437 0 65.109375 52.785157 117.898438 117.898438 117.898438zm0 0" fill="#fce06a"/><path d="m346.226562 160.613281c0 52.039063-42.1875 94.226563-94.226562 94.226563s-94.226562-42.1875-94.226562-94.226563c0-52.039062 42.1875-94.226562 94.226562-94.226562s94.226562 42.1875 94.226562 94.226562zm0 0" fill="#f4efed"/><path d="m252 282.511719c-67.214844 0-121.898438-54.6875-121.898438-121.898438 0-67.214843 54.683594-121.898437 121.898438-121.898437s121.898438 54.679687 121.898438 121.898437c0 67.214844-54.683594 121.898438-121.898438 121.898438zm0-235.796875c-62.804688 0-113.898438 51.09375-113.898438 113.898437 0 62.800781 51.09375 113.898438 113.898438 113.898438s113.898438-51.097657 113.898438-113.898438c0-62.804687-51.09375-113.898437-113.898438-113.898437zm0 0" fill="#690589"/><path d="m252 258.839844c-54.160156 0-98.226562-44.066406-98.226562-98.230469 0-54.160156 44.066406-98.226563 98.226562-98.226563s98.226562 44.066407 98.226562 98.226563c0 54.164063-44.066406 98.230469-98.226562 98.230469zm0-188.457032c-49.75 0-90.226562 40.476563-90.226562 90.226563 0 49.753906 40.476562 90.230469 90.226562 90.230469s90.226562-40.476563 90.226562-90.230469c0-49.75-40.476562-90.226563-90.226562-90.226563zm0 0" fill="#690589"/><path d="m251.703125 207.566406-64.730469-61.359375 19.261719-20.320312 46.0625 43.664062 108.292969-96.394531 18.617187 20.914062zm0 0" fill="#7bac51"/><g fill="#690589"><path d="m251.703125 211.566406c-.992187 0-1.984375-.367187-2.753906-1.09375l-64.730469-61.363281c-.769531-.730469-1.214844-1.734375-1.246094-2.796875-.03125-1.058594.367188-2.085938 1.09375-2.855469l19.265625-20.320312c1.523438-1.601563 4.050781-1.671875 5.65625-.152344l43.394531 41.136719 105.550782-93.949219c1.644531-1.46875 4.175781-1.324219 5.644531.324219l18.617187 20.914062c.707032.792969 1.070313 1.832032 1.007813 2.894532-.0625 1.058593-.542969 2.050781-1.335937 2.753906l-127.503907 113.496094c-.761719.675781-1.710937 1.011718-2.660156 1.011718zm-59.078125-65.511718 59.160156 56.082031 121.773438-108.394531-13.296875-14.9375-105.304688 93.734374c-1.550781 1.382813-3.902343 1.34375-5.414062-.082031l-43.160157-40.914062zm0 0"/><path d="m252 79.390625c-2.207031 0-4-1.792969-4-4v-9.003906c0-2.207031 1.792969-4 4-4s4 1.792969 4 4v9.003906c0 2.207031-1.792969 4-4 4zm0 0"/><path d="m252 258.839844c-2.207031 0-4-1.792969-4-4v-9.007813c0-2.207031 1.792969-4 4-4s4 1.792969 4 4v9.007813c0 2.207031-1.792969 4-4 4zm0 0"/><path d="m346.226562 164.609375h-9.003906c-2.207031 0-4-1.792969-4-4s1.792969-4 4-4h9.003906c2.207032 0 4 1.792969 4 4s-1.789062 4-4 4zm0 0"/><path d="m166.777344 164.609375h-9.003906c-2.207032 0-4-1.792969-4-4s1.792968-4 4-4h9.003906c2.207031 0 4 1.792969 4 4s-1.789063 4-4 4zm0 0"/></g></svg>